G75*
G70*
%OFA0B0*%
%FSLAX24Y24*%
%IPPOS*%
%LPD*%
%AMOC8*
5,1,8,0,0,1.08239X$1,22.5*
%
%ADD10C,0.0100*%
%ADD11C,0.0060*%
%ADD12C,0.0000*%
%ADD13C,0.0050*%
%ADD14R,0.0062X0.0002*%
%ADD15R,0.0105X0.0002*%
%ADD16R,0.0133X0.0002*%
%ADD17R,0.0159X0.0002*%
%ADD18R,0.0179X0.0002*%
%ADD19R,0.0199X0.0002*%
%ADD20R,0.0215X0.0002*%
%ADD21R,0.0229X0.0002*%
%ADD22R,0.0246X0.0002*%
%ADD23R,0.0258X0.0002*%
%ADD24R,0.0272X0.0002*%
%ADD25R,0.0284X0.0002*%
%ADD26R,0.0296X0.0002*%
%ADD27R,0.0308X0.0002*%
%ADD28R,0.0320X0.0002*%
%ADD29R,0.0330X0.0002*%
%ADD30R,0.0340X0.0002*%
%ADD31R,0.0346X0.0002*%
%ADD32R,0.0350X0.0002*%
%ADD33R,0.0350X0.0002*%
%ADD34R,0.0354X0.0002*%
%ADD35R,0.0358X0.0002*%
%ADD36R,0.0360X0.0002*%
%ADD37R,0.0362X0.0002*%
%ADD38R,0.0366X0.0002*%
%ADD39R,0.0368X0.0002*%
%ADD40R,0.0368X0.0002*%
%ADD41R,0.0372X0.0002*%
%ADD42R,0.0374X0.0002*%
%ADD43R,0.0378X0.0002*%
%ADD44R,0.0378X0.0002*%
%ADD45R,0.0380X0.0002*%
%ADD46R,0.0382X0.0002*%
%ADD47R,0.0386X0.0002*%
%ADD48R,0.0386X0.0002*%
%ADD49R,0.0388X0.0002*%
%ADD50R,0.0390X0.0002*%
%ADD51R,0.0392X0.0002*%
%ADD52R,0.0392X0.0002*%
%ADD53R,0.0395X0.0002*%
%ADD54R,0.0397X0.0002*%
%ADD55R,0.0399X0.0002*%
%ADD56R,0.0399X0.0002*%
%ADD57R,0.0401X0.0002*%
%ADD58R,0.0403X0.0002*%
%ADD59R,0.0405X0.0002*%
%ADD60R,0.0405X0.0002*%
%ADD61R,0.0407X0.0002*%
%ADD62R,0.0409X0.0002*%
%ADD63R,0.0409X0.0002*%
%ADD64R,0.0411X0.0002*%
%ADD65R,0.0137X0.0002*%
%ADD66R,0.0213X0.0002*%
%ADD67R,0.0119X0.0002*%
%ADD68R,0.0197X0.0002*%
%ADD69R,0.0105X0.0002*%
%ADD70R,0.0189X0.0002*%
%ADD71R,0.0093X0.0002*%
%ADD72R,0.0181X0.0002*%
%ADD73R,0.0085X0.0002*%
%ADD74R,0.0175X0.0002*%
%ADD75R,0.0074X0.0002*%
%ADD76R,0.0167X0.0002*%
%ADD77R,0.0064X0.0002*%
%ADD78R,0.0163X0.0002*%
%ADD79R,0.0056X0.0002*%
%ADD80R,0.0159X0.0002*%
%ADD81R,0.0048X0.0002*%
%ADD82R,0.0155X0.0002*%
%ADD83R,0.0040X0.0002*%
%ADD84R,0.0151X0.0002*%
%ADD85R,0.0030X0.0002*%
%ADD86R,0.0149X0.0002*%
%ADD87R,0.0022X0.0002*%
%ADD88R,0.0145X0.0002*%
%ADD89R,0.0014X0.0002*%
%ADD90R,0.0143X0.0002*%
%ADD91R,0.0006X0.0002*%
%ADD92R,0.0139X0.0002*%
%ADD93R,0.0137X0.0002*%
%ADD94R,0.0133X0.0002*%
%ADD95R,0.0133X0.0002*%
%ADD96R,0.0129X0.0002*%
%ADD97R,0.0129X0.0002*%
%ADD98R,0.0127X0.0002*%
%ADD99R,0.0127X0.0002*%
%ADD100R,0.0125X0.0002*%
%ADD101R,0.0125X0.0002*%
%ADD102R,0.0123X0.0002*%
%ADD103R,0.0123X0.0002*%
%ADD104R,0.0121X0.0002*%
%ADD105R,0.0121X0.0002*%
%ADD106R,0.0119X0.0002*%
%ADD107R,0.0117X0.0002*%
%ADD108R,0.0115X0.0002*%
%ADD109R,0.0117X0.0002*%
%ADD110R,0.0115X0.0002*%
%ADD111R,0.0115X0.0002*%
%ADD112R,0.0113X0.0002*%
%ADD113R,0.0113X0.0002*%
%ADD114R,0.0113X0.0002*%
%ADD115R,0.0111X0.0002*%
%ADD116R,0.0111X0.0002*%
%ADD117R,0.0109X0.0002*%
%ADD118R,0.0109X0.0002*%
%ADD119R,0.0109X0.0002*%
%ADD120R,0.0107X0.0002*%
%ADD121R,0.0107X0.0002*%
%ADD122R,0.0107X0.0002*%
%ADD123R,0.0107X0.0002*%
%ADD124R,0.0105X0.0002*%
%ADD125R,0.0105X0.0002*%
%ADD126R,0.0105X0.0002*%
%ADD127R,0.0054X0.0002*%
%ADD128R,0.0062X0.0002*%
%ADD129R,0.0062X0.0002*%
%ADD130R,0.0085X0.0002*%
%ADD131R,0.0097X0.0002*%
%ADD132R,0.0093X0.0002*%
%ADD133R,0.0095X0.0002*%
%ADD134R,0.0020X0.0002*%
%ADD135R,0.0125X0.0002*%
%ADD136R,0.0107X0.0002*%
%ADD137R,0.0141X0.0002*%
%ADD138R,0.0133X0.0002*%
%ADD139R,0.0038X0.0002*%
%ADD140R,0.0137X0.0002*%
%ADD141R,0.0141X0.0002*%
%ADD142R,0.0157X0.0002*%
%ADD143R,0.0147X0.0002*%
%ADD144R,0.0050X0.0002*%
%ADD145R,0.0153X0.0002*%
%ADD146R,0.0173X0.0002*%
%ADD147R,0.0169X0.0002*%
%ADD148R,0.0169X0.0002*%
%ADD149R,0.0171X0.0002*%
%ADD150R,0.0185X0.0002*%
%ADD151R,0.0326X0.0002*%
%ADD152R,0.0171X0.0002*%
%ADD153R,0.0070X0.0002*%
%ADD154R,0.0131X0.0002*%
%ADD155R,0.0183X0.0002*%
%ADD156R,0.0183X0.0002*%
%ADD157R,0.0183X0.0002*%
%ADD158R,0.0199X0.0002*%
%ADD159R,0.0181X0.0002*%
%ADD160R,0.0074X0.0002*%
%ADD161R,0.0145X0.0002*%
%ADD162R,0.0195X0.0002*%
%ADD163R,0.0195X0.0002*%
%ADD164R,0.0193X0.0002*%
%ADD165R,0.0211X0.0002*%
%ADD166R,0.0352X0.0002*%
%ADD167R,0.0193X0.0002*%
%ADD168R,0.0083X0.0002*%
%ADD169R,0.0157X0.0002*%
%ADD170R,0.0207X0.0002*%
%ADD171R,0.0205X0.0002*%
%ADD172R,0.0201X0.0002*%
%ADD173R,0.0221X0.0002*%
%ADD174R,0.0360X0.0002*%
%ADD175R,0.0203X0.0002*%
%ADD176R,0.0087X0.0002*%
%ADD177R,0.0165X0.0002*%
%ADD178R,0.0217X0.0002*%
%ADD179R,0.0217X0.0002*%
%ADD180R,0.0207X0.0002*%
%ADD181R,0.0231X0.0002*%
%ADD182R,0.0366X0.0002*%
%ADD183R,0.0091X0.0002*%
%ADD184R,0.0175X0.0002*%
%ADD185R,0.0229X0.0002*%
%ADD186R,0.0225X0.0002*%
%ADD187R,0.0213X0.0002*%
%ADD188R,0.0242X0.0002*%
%ADD189R,0.0372X0.0002*%
%ADD190R,0.0221X0.0002*%
%ADD191R,0.0097X0.0002*%
%ADD192R,0.0238X0.0002*%
%ADD193R,0.0237X0.0002*%
%ADD194R,0.0252X0.0002*%
%ADD195R,0.0378X0.0002*%
%ADD196R,0.0101X0.0002*%
%ADD197R,0.0187X0.0002*%
%ADD198R,0.0248X0.0002*%
%ADD199R,0.0246X0.0002*%
%ADD200R,0.0223X0.0002*%
%ADD201R,0.0260X0.0002*%
%ADD202R,0.0384X0.0002*%
%ADD203R,0.0238X0.0002*%
%ADD204R,0.0254X0.0002*%
%ADD205R,0.0227X0.0002*%
%ADD206R,0.0270X0.0002*%
%ADD207R,0.0246X0.0002*%
%ADD208R,0.0266X0.0002*%
%ADD209R,0.0262X0.0002*%
%ADD210R,0.0231X0.0002*%
%ADD211R,0.0280X0.0002*%
%ADD212R,0.0252X0.0002*%
%ADD213R,0.0205X0.0002*%
%ADD214R,0.0274X0.0002*%
%ADD215R,0.0270X0.0002*%
%ADD216R,0.0235X0.0002*%
%ADD217R,0.0288X0.0002*%
%ADD218R,0.0399X0.0002*%
%ADD219R,0.0260X0.0002*%
%ADD220R,0.0282X0.0002*%
%ADD221R,0.0278X0.0002*%
%ADD222R,0.0296X0.0002*%
%ADD223R,0.0215X0.0002*%
%ADD224R,0.0290X0.0002*%
%ADD225R,0.0286X0.0002*%
%ADD226R,0.0241X0.0002*%
%ADD227R,0.0300X0.0002*%
%ADD228R,0.0405X0.0002*%
%ADD229R,0.0272X0.0002*%
%ADD230R,0.0121X0.0002*%
%ADD231R,0.0221X0.0002*%
%ADD232R,0.0298X0.0002*%
%ADD233R,0.0292X0.0002*%
%ADD234R,0.0244X0.0002*%
%ADD235R,0.0308X0.0002*%
%ADD236R,0.0123X0.0002*%
%ADD237R,0.0304X0.0002*%
%ADD238R,0.0294X0.0002*%
%ADD239R,0.0316X0.0002*%
%ADD240R,0.0411X0.0002*%
%ADD241R,0.0312X0.0002*%
%ADD242R,0.0250X0.0002*%
%ADD243R,0.0324X0.0002*%
%ADD244R,0.0415X0.0002*%
%ADD245R,0.0292X0.0002*%
%ADD246R,0.0233X0.0002*%
%ADD247R,0.0318X0.0002*%
%ADD248R,0.0302X0.0002*%
%ADD249R,0.0328X0.0002*%
%ADD250R,0.0417X0.0002*%
%ADD251R,0.0324X0.0002*%
%ADD252R,0.0256X0.0002*%
%ADD253R,0.0336X0.0002*%
%ADD254R,0.0421X0.0002*%
%ADD255R,0.0131X0.0002*%
%ADD256R,0.0330X0.0002*%
%ADD257R,0.0258X0.0002*%
%ADD258R,0.0340X0.0002*%
%ADD259R,0.0423X0.0002*%
%ADD260R,0.0135X0.0002*%
%ADD261R,0.0338X0.0002*%
%ADD262R,0.0310X0.0002*%
%ADD263R,0.0348X0.0002*%
%ADD264R,0.0425X0.0002*%
%ADD265R,0.0342X0.0002*%
%ADD266R,0.0314X0.0002*%
%ADD267R,0.0262X0.0002*%
%ADD268R,0.0429X0.0002*%
%ADD269R,0.0320X0.0002*%
%ADD270R,0.0316X0.0002*%
%ADD271R,0.0264X0.0002*%
%ADD272R,0.0360X0.0002*%
%ADD273R,0.0431X0.0002*%
%ADD274R,0.0324X0.0002*%
%ADD275R,0.0139X0.0002*%
%ADD276R,0.0256X0.0002*%
%ADD277R,0.0318X0.0002*%
%ADD278R,0.0266X0.0002*%
%ADD279R,0.0364X0.0002*%
%ADD280R,0.0433X0.0002*%
%ADD281R,0.0139X0.0002*%
%ADD282R,0.0360X0.0002*%
%ADD283R,0.0322X0.0002*%
%ADD284R,0.0268X0.0002*%
%ADD285R,0.0370X0.0002*%
%ADD286R,0.0435X0.0002*%
%ADD287R,0.0330X0.0002*%
%ADD288R,0.0376X0.0002*%
%ADD289R,0.0437X0.0002*%
%ADD290R,0.0332X0.0002*%
%ADD291R,0.0141X0.0002*%
%ADD292R,0.0326X0.0002*%
%ADD293R,0.0272X0.0002*%
%ADD294R,0.0380X0.0002*%
%ADD295R,0.0439X0.0002*%
%ADD296R,0.0334X0.0002*%
%ADD297R,0.0143X0.0002*%
%ADD298R,0.0268X0.0002*%
%ADD299R,0.0376X0.0002*%
%ADD300R,0.0274X0.0002*%
%ADD301R,0.0441X0.0002*%
%ADD302R,0.0382X0.0002*%
%ADD303R,0.0276X0.0002*%
%ADD304R,0.0391X0.0002*%
%ADD305R,0.0443X0.0002*%
%ADD306R,0.0340X0.0002*%
%ADD307R,0.0274X0.0002*%
%ADD308R,0.0334X0.0002*%
%ADD309R,0.0445X0.0002*%
%ADD310R,0.0342X0.0002*%
%ADD311R,0.0278X0.0002*%
%ADD312R,0.0401X0.0002*%
%ADD313R,0.0445X0.0002*%
%ADD314R,0.0344X0.0002*%
%ADD315R,0.0395X0.0002*%
%ADD316R,0.0280X0.0002*%
%ADD317R,0.0447X0.0002*%
%ADD318R,0.0409X0.0002*%
%ADD319R,0.0449X0.0002*%
%ADD320R,0.0348X0.0002*%
%ADD321R,0.0407X0.0002*%
%ADD322R,0.0344X0.0002*%
%ADD323R,0.0415X0.0002*%
%ADD324R,0.0451X0.0002*%
%ADD325R,0.0350X0.0002*%
%ADD326R,0.0411X0.0002*%
%ADD327R,0.0346X0.0002*%
%ADD328R,0.0284X0.0002*%
%ADD329R,0.0419X0.0002*%
%ADD330R,0.0451X0.0002*%
%ADD331R,0.0352X0.0002*%
%ADD332R,0.0290X0.0002*%
%ADD333R,0.0415X0.0002*%
%ADD334R,0.0286X0.0002*%
%ADD335R,0.0423X0.0002*%
%ADD336R,0.0453X0.0002*%
%ADD337R,0.0354X0.0002*%
%ADD338R,0.0292X0.0002*%
%ADD339R,0.0419X0.0002*%
%ADD340R,0.0427X0.0002*%
%ADD341R,0.0455X0.0002*%
%ADD342R,0.0356X0.0002*%
%ADD343R,0.0288X0.0002*%
%ADD344R,0.0431X0.0002*%
%ADD345R,0.0358X0.0002*%
%ADD346R,0.0296X0.0002*%
%ADD347R,0.0290X0.0002*%
%ADD348R,0.0435X0.0002*%
%ADD349R,0.0457X0.0002*%
%ADD350R,0.0300X0.0002*%
%ADD351R,0.0356X0.0002*%
%ADD352R,0.0290X0.0002*%
%ADD353R,0.0439X0.0002*%
%ADD354R,0.0457X0.0002*%
%ADD355R,0.0362X0.0002*%
%ADD356R,0.0302X0.0002*%
%ADD357R,0.0443X0.0002*%
%ADD358R,0.0459X0.0002*%
%ADD359R,0.0304X0.0002*%
%ADD360R,0.0447X0.0002*%
%ADD361R,0.0461X0.0002*%
%ADD362R,0.0306X0.0002*%
%ADD363R,0.0360X0.0002*%
%ADD364R,0.0294X0.0002*%
%ADD365R,0.0461X0.0002*%
%ADD366R,0.0368X0.0002*%
%ADD367R,0.0447X0.0002*%
%ADD368R,0.0463X0.0002*%
%ADD369R,0.0368X0.0002*%
%ADD370R,0.0457X0.0002*%
%ADD371R,0.0455X0.0002*%
%ADD372R,0.0372X0.0002*%
%ADD373R,0.0314X0.0002*%
%ADD374R,0.0203X0.0002*%
%ADD375R,0.0298X0.0002*%
%ADD376R,0.0201X0.0002*%
%ADD377R,0.0201X0.0002*%
%ADD378R,0.0465X0.0002*%
%ADD379R,0.0121X0.0002*%
%ADD380R,0.0316X0.0002*%
%ADD381R,0.0191X0.0002*%
%ADD382R,0.0298X0.0002*%
%ADD383R,0.0189X0.0002*%
%ADD384R,0.0465X0.0002*%
%ADD385R,0.0300X0.0002*%
%ADD386R,0.0181X0.0002*%
%ADD387R,0.0467X0.0002*%
%ADD388R,0.0103X0.0002*%
%ADD389R,0.0320X0.0002*%
%ADD390R,0.0177X0.0002*%
%ADD391R,0.0171X0.0002*%
%ADD392R,0.0079X0.0002*%
%ADD393R,0.0173X0.0002*%
%ADD394R,0.0169X0.0002*%
%ADD395R,0.0467X0.0002*%
%ADD396R,0.0171X0.0002*%
%ADD397R,0.0091X0.0002*%
%ADD398R,0.0324X0.0002*%
%ADD399R,0.0173X0.0002*%
%ADD400R,0.0072X0.0002*%
%ADD401R,0.0469X0.0002*%
%ADD402R,0.0163X0.0002*%
%ADD403R,0.0066X0.0002*%
%ADD404R,0.0165X0.0002*%
%ADD405R,0.0161X0.0002*%
%ADD406R,0.0149X0.0002*%
%ADD407R,0.0163X0.0002*%
%ADD408R,0.0081X0.0002*%
%ADD409R,0.0139X0.0002*%
%ADD410R,0.0076X0.0002*%
%ADD411R,0.0157X0.0002*%
%ADD412R,0.0058X0.0002*%
%ADD413R,0.0159X0.0002*%
%ADD414R,0.0155X0.0002*%
%ADD415R,0.0137X0.0002*%
%ADD416R,0.0159X0.0002*%
%ADD417R,0.0072X0.0002*%
%ADD418R,0.0195X0.0002*%
%ADD419R,0.0052X0.0002*%
%ADD420R,0.0127X0.0002*%
%ADD421R,0.0153X0.0002*%
%ADD422R,0.0155X0.0002*%
%ADD423R,0.0068X0.0002*%
%ADD424R,0.0189X0.0002*%
%ADD425R,0.0125X0.0002*%
%ADD426R,0.0151X0.0002*%
%ADD427R,0.0064X0.0002*%
%ADD428R,0.0044X0.0002*%
%ADD429R,0.0123X0.0002*%
%ADD430R,0.0103X0.0002*%
%ADD431R,0.0179X0.0002*%
%ADD432R,0.0147X0.0002*%
%ADD433R,0.0040X0.0002*%
%ADD434R,0.0151X0.0002*%
%ADD435R,0.0125X0.0002*%
%ADD436R,0.0099X0.0002*%
%ADD437R,0.0175X0.0002*%
%ADD438R,0.0145X0.0002*%
%ADD439R,0.0036X0.0002*%
%ADD440R,0.0056X0.0002*%
%ADD441R,0.0095X0.0002*%
%ADD442R,0.0032X0.0002*%
%ADD443R,0.0117X0.0002*%
%ADD444R,0.0052X0.0002*%
%ADD445R,0.0028X0.0002*%
%ADD446R,0.0115X0.0002*%
%ADD447R,0.0050X0.0002*%
%ADD448R,0.0141X0.0002*%
%ADD449R,0.0024X0.0002*%
%ADD450R,0.0117X0.0002*%
%ADD451R,0.0046X0.0002*%
%ADD452R,0.0119X0.0002*%
%ADD453R,0.0074X0.0002*%
%ADD454R,0.0143X0.0002*%
%ADD455R,0.0137X0.0002*%
%ADD456R,0.0016X0.0002*%
%ADD457R,0.0042X0.0002*%
%ADD458R,0.0135X0.0002*%
%ADD459R,0.0012X0.0002*%
%ADD460R,0.0038X0.0002*%
%ADD461R,0.0058X0.0002*%
%ADD462R,0.0010X0.0002*%
%ADD463R,0.0135X0.0002*%
%ADD464R,0.0115X0.0002*%
%ADD465R,0.0135X0.0002*%
%ADD466R,0.0036X0.0002*%
%ADD467R,0.0153X0.0002*%
%ADD468R,0.0034X0.0002*%
%ADD469R,0.0034X0.0002*%
%ADD470R,0.0002X0.0002*%
%ADD471R,0.0133X0.0002*%
%ADD472R,0.0030X0.0002*%
%ADD473R,0.0149X0.0002*%
%ADD474R,0.0129X0.0002*%
%ADD475R,0.0131X0.0002*%
%ADD476R,0.0028X0.0002*%
%ADD477R,0.0024X0.0002*%
%ADD478R,0.0022X0.0002*%
%ADD479R,0.0020X0.0002*%
%ADD480R,0.0018X0.0002*%
%ADD481R,0.0121X0.0002*%
%ADD482R,0.0012X0.0002*%
%ADD483R,0.0127X0.0002*%
%ADD484R,0.0010X0.0002*%
%ADD485R,0.0008X0.0002*%
%ADD486R,0.0006X0.0002*%
%ADD487R,0.0119X0.0002*%
%ADD488R,0.0004X0.0002*%
%ADD489R,0.0002X0.0002*%
%ADD490R,0.0117X0.0002*%
%ADD491R,0.0004X0.0002*%
%ADD492R,0.0111X0.0002*%
%ADD493R,0.0111X0.0002*%
%ADD494R,0.0018X0.0002*%
%ADD495R,0.0109X0.0002*%
%ADD496R,0.0022X0.0002*%
%ADD497R,0.0042X0.0002*%
%ADD498R,0.0046X0.0002*%
%ADD499R,0.0056X0.0002*%
%ADD500R,0.0161X0.0002*%
%ADD501R,0.0070X0.0002*%
%ADD502R,0.0109X0.0002*%
%ADD503R,0.0185X0.0002*%
%ADD504R,0.0089X0.0002*%
%ADD505R,0.0093X0.0002*%
%ADD506R,0.0099X0.0002*%
%ADD507R,0.0211X0.0002*%
%ADD508R,0.0231X0.0002*%
%ADD509R,0.0240X0.0002*%
%ADD510R,0.0149X0.0002*%
%ADD511R,0.0264X0.0002*%
%ADD512R,0.0268X0.0002*%
%ADD513R,0.0272X0.0002*%
%ADD514R,0.0167X0.0002*%
%ADD515R,0.0068X0.0002*%
%ADD516R,0.0284X0.0002*%
%ADD517R,0.0018X0.0002*%
%ADD518R,0.0185X0.0002*%
%ADD519R,0.0002X0.0002*%
%ADD520R,0.0197X0.0002*%
%ADD521R,0.0197X0.0002*%
%ADD522R,0.0310X0.0002*%
%ADD523R,0.0199X0.0002*%
%ADD524R,0.0310X0.0002*%
%ADD525R,0.0312X0.0002*%
%ADD526R,0.0312X0.0002*%
%ADD527R,0.0310X0.0002*%
%ADD528R,0.0306X0.0002*%
%ADD529R,0.0199X0.0002*%
%ADD530R,0.0197X0.0002*%
%ADD531R,0.0296X0.0002*%
%ADD532R,0.0254X0.0002*%
%ADD533R,0.0225X0.0002*%
%ADD534R,0.0219X0.0002*%
%ADD535R,0.0157X0.0002*%
%ADD536R,0.0107X0.0002*%
%ADD537R,0.0117X0.0002*%
%ADD538R,0.0197X0.0002*%
%ADD539R,0.0141X0.0002*%
%ADD540R,0.0111X0.0002*%
%ADD541R,0.0119X0.0002*%
%ADD542R,0.0111X0.0002*%
%ADD543R,0.0123X0.0002*%
%ADD544R,0.0197X0.0002*%
%ADD545R,0.0121X0.0002*%
%ADD546R,0.0119X0.0002*%
%ADD547R,0.0127X0.0002*%
%ADD548R,0.0193X0.0002*%
%ADD549R,0.0187X0.0002*%
%ADD550R,0.0131X0.0002*%
%ADD551R,0.0125X0.0002*%
%ADD552R,0.0123X0.0002*%
%ADD553R,0.0177X0.0002*%
%ADD554R,0.0127X0.0002*%
%ADD555R,0.0163X0.0002*%
%ADD556R,0.0135X0.0002*%
%ADD557R,0.0129X0.0002*%
%ADD558R,0.0143X0.0002*%
%ADD559R,0.0139X0.0002*%
%ADD560R,0.0135X0.0002*%
%ADD561R,0.0115X0.0002*%
%ADD562R,0.0129X0.0002*%
%ADD563R,0.0137X0.0002*%
%ADD564R,0.0131X0.0002*%
%ADD565R,0.0141X0.0002*%
%ADD566R,0.0153X0.0002*%
%ADD567R,0.0151X0.0002*%
%ADD568R,0.0155X0.0002*%
%ADD569R,0.0159X0.0002*%
%ADD570R,0.0161X0.0002*%
%ADD571R,0.0143X0.0002*%
%ADD572R,0.0147X0.0002*%
%ADD573R,0.0165X0.0002*%
%ADD574R,0.0167X0.0002*%
%ADD575R,0.0167X0.0002*%
%ADD576R,0.0153X0.0002*%
%ADD577R,0.0175X0.0002*%
%ADD578R,0.0149X0.0002*%
%ADD579R,0.0179X0.0002*%
%ADD580R,0.0153X0.0002*%
%ADD581R,0.0191X0.0002*%
%ADD582R,0.0161X0.0002*%
%ADD583R,0.0195X0.0002*%
%ADD584R,0.0199X0.0002*%
%ADD585R,0.0163X0.0002*%
%ADD586R,0.0207X0.0002*%
%ADD587R,0.0167X0.0002*%
%ADD588R,0.0173X0.0002*%
%ADD589R,0.0316X0.0002*%
%ADD590R,0.0171X0.0002*%
%ADD591R,0.0441X0.0002*%
%ADD592R,0.0177X0.0002*%
%ADD593R,0.0322X0.0002*%
%ADD594R,0.0173X0.0002*%
%ADD595R,0.0229X0.0002*%
%ADD596R,0.0441X0.0002*%
%ADD597R,0.0185X0.0002*%
%ADD598R,0.0320X0.0002*%
%ADD599R,0.0147X0.0002*%
%ADD600R,0.0240X0.0002*%
%ADD601R,0.0179X0.0002*%
%ADD602R,0.0264X0.0002*%
%ADD603R,0.0199X0.0002*%
%ADD604R,0.0201X0.0002*%
%ADD605R,0.0439X0.0002*%
%ADD606R,0.0205X0.0002*%
%ADD607R,0.0211X0.0002*%
%ADD608R,0.0201X0.0002*%
%ADD609R,0.0165X0.0002*%
%ADD610R,0.0286X0.0002*%
%ADD611R,0.0449X0.0002*%
%ADD612R,0.0437X0.0002*%
%ADD613R,0.0473X0.0002*%
%ADD614R,0.0314X0.0002*%
%ADD615R,0.0455X0.0002*%
%ADD616R,0.0702X0.0002*%
%ADD617R,0.0700X0.0002*%
%ADD618R,0.0698X0.0002*%
%ADD619R,0.0445X0.0002*%
%ADD620R,0.0435X0.0002*%
%ADD621R,0.0463X0.0002*%
%ADD622R,0.0308X0.0002*%
%ADD623R,0.0447X0.0002*%
%ADD624R,0.0694X0.0002*%
%ADD625R,0.0433X0.0002*%
%ADD626R,0.0459X0.0002*%
%ADD627R,0.0443X0.0002*%
%ADD628R,0.0694X0.0002*%
%ADD629R,0.0431X0.0002*%
%ADD630R,0.0690X0.0002*%
%ADD631R,0.0427X0.0002*%
%ADD632R,0.0686X0.0002*%
%ADD633R,0.0423X0.0002*%
%ADD634R,0.0429X0.0002*%
%ADD635R,0.0431X0.0002*%
%ADD636R,0.0449X0.0002*%
%ADD637R,0.0298X0.0002*%
%ADD638R,0.0686X0.0002*%
%ADD639R,0.0425X0.0002*%
%ADD640R,0.0429X0.0002*%
%ADD641R,0.0427X0.0002*%
%ADD642R,0.0682X0.0002*%
%ADD643R,0.0421X0.0002*%
%ADD644R,0.0441X0.0002*%
%ADD645R,0.0678X0.0002*%
%ADD646R,0.0676X0.0002*%
%ADD647R,0.0407X0.0002*%
%ADD648R,0.0413X0.0002*%
%ADD649R,0.0425X0.0002*%
%ADD650R,0.0433X0.0002*%
%ADD651R,0.0290X0.0002*%
%ADD652R,0.0415X0.0002*%
%ADD653R,0.0336X0.0002*%
%ADD654R,0.0336X0.0002*%
%ADD655R,0.0403X0.0002*%
%ADD656R,0.0423X0.0002*%
%ADD657R,0.0429X0.0002*%
%ADD658R,0.0286X0.0002*%
%ADD659R,0.0411X0.0002*%
%ADD660R,0.0332X0.0002*%
%ADD661R,0.0399X0.0002*%
%ADD662R,0.0328X0.0002*%
%ADD663R,0.0394X0.0002*%
%ADD664R,0.0390X0.0002*%
%ADD665R,0.0397X0.0002*%
%ADD666R,0.0419X0.0002*%
%ADD667R,0.0417X0.0002*%
%ADD668R,0.0278X0.0002*%
%ADD669R,0.0395X0.0002*%
%ADD670R,0.0324X0.0002*%
%ADD671R,0.0386X0.0002*%
%ADD672R,0.0417X0.0002*%
%ADD673R,0.0413X0.0002*%
%ADD674R,0.0276X0.0002*%
%ADD675R,0.0391X0.0002*%
%ADD676R,0.0382X0.0002*%
%ADD677R,0.0316X0.0002*%
%ADD678R,0.0413X0.0002*%
%ADD679R,0.0372X0.0002*%
%ADD680R,0.0396X0.0002*%
%ADD681R,0.0268X0.0002*%
%ADD682R,0.0376X0.0002*%
%ADD683R,0.0370X0.0002*%
%ADD684R,0.0304X0.0002*%
%ADD685R,0.0380X0.0002*%
%ADD686R,0.0352X0.0002*%
%ADD687R,0.0356X0.0002*%
%ADD688R,0.0403X0.0002*%
%ADD689R,0.0376X0.0002*%
%ADD690R,0.0256X0.0002*%
%ADD691R,0.0354X0.0002*%
%ADD692R,0.0294X0.0002*%
%ADD693R,0.0292X0.0002*%
%ADD694R,0.0350X0.0002*%
%ADD695R,0.0350X0.0002*%
%ADD696R,0.0288X0.0002*%
%ADD697R,0.0346X0.0002*%
%ADD698R,0.0364X0.0002*%
%ADD699R,0.0334X0.0002*%
%ADD700R,0.0280X0.0002*%
%ADD701R,0.0328X0.0002*%
%ADD702R,0.0334X0.0002*%
%ADD703R,0.0242X0.0002*%
%ADD704R,0.0330X0.0002*%
%ADD705R,0.0274X0.0002*%
%ADD706R,0.0276X0.0002*%
%ADD707R,0.0388X0.0002*%
%ADD708R,0.0237X0.0002*%
%ADD709R,0.0270X0.0002*%
%ADD710R,0.0270X0.0002*%
%ADD711R,0.0264X0.0002*%
%ADD712R,0.0304X0.0002*%
%ADD713R,0.0380X0.0002*%
%ADD714R,0.0326X0.0002*%
%ADD715R,0.0225X0.0002*%
%ADD716R,0.0254X0.0002*%
%ADD717R,0.0300X0.0002*%
%ADD718R,0.0298X0.0002*%
%ADD719R,0.0250X0.0002*%
%ADD720R,0.0248X0.0002*%
%ADD721R,0.0244X0.0002*%
%ADD722R,0.0274X0.0002*%
%ADD723R,0.0362X0.0002*%
%ADD724R,0.0296X0.0002*%
%ADD725R,0.0205X0.0002*%
%ADD726R,0.0229X0.0002*%
%ADD727R,0.0231X0.0002*%
%ADD728R,0.0266X0.0002*%
%ADD729R,0.0358X0.0002*%
%ADD730R,0.0223X0.0002*%
%ADD731R,0.0215X0.0002*%
%ADD732R,0.0209X0.0002*%
%ADD733R,0.0240X0.0002*%
%ADD734R,0.0244X0.0002*%
%ADD735R,0.0340X0.0002*%
%ADD736R,0.0262X0.0002*%
%ADD737R,0.0238X0.0002*%
%ADD738R,0.0229X0.0002*%
%ADD739R,0.0231X0.0002*%
%ADD740R,0.0229X0.0002*%
%ADD741R,0.0219X0.0002*%
%ADD742R,0.0223X0.0002*%
%ADD743R,0.0183X0.0002*%
%ADD744R,0.0215X0.0002*%
%ADD745R,0.0195X0.0002*%
%ADD746R,0.0203X0.0002*%
%ADD747R,0.0187X0.0002*%
%ADD748R,0.0169X0.0002*%
%ADD749R,0.0143X0.0002*%
%ADD750R,0.0155X0.0002*%
%ADD751R,0.0095X0.0002*%
%ADD752R,0.0078X0.0002*%
%ADD753R,0.0081X0.0002*%
%ADD754R,0.0072X0.0002*%
%ADD755R,0.0020X0.0002*%
%ADD756R,0.0050X0.0002*%
%ADD757R,0.0060X0.0002*%
%ADD758R,0.0066X0.0002*%
%ADD759R,0.0079X0.0002*%
%ADD760R,0.0089X0.0002*%
%ADD761R,0.0091X0.0002*%
%ADD762R,0.0095X0.0002*%
%ADD763R,0.0099X0.0002*%
%ADD764R,0.0103X0.0002*%
%ADD765R,0.0101X0.0002*%
%ADD766R,0.0087X0.0002*%
%ADD767R,0.0074X0.0002*%
%ADD768R,0.0062X0.0002*%
%ADD769R,0.0054X0.0002*%
%ADD770R,0.0044X0.0002*%
%ADD771R,0.0030X0.0002*%
D10*
X003752Y003081D02*
X003502Y003331D01*
X003242Y003331D01*
X003490Y003381D02*
X003740Y003131D01*
X006390Y003131D01*
X006640Y003381D01*
X016340Y003381D01*
X016340Y008131D01*
X015640Y010931D01*
X015240Y011231D01*
X014440Y011231D01*
X013890Y011731D01*
X013890Y012781D01*
X011790Y013631D01*
X005240Y013631D01*
X002940Y012681D01*
X002940Y011581D01*
X002540Y011181D01*
X001940Y011181D01*
X001290Y010781D01*
X000640Y008331D01*
X000640Y003381D01*
X003490Y003381D01*
X003752Y003081D02*
X006402Y003081D01*
X006652Y003331D01*
X006887Y003331D01*
D11*
X006810Y011536D02*
X006810Y011729D01*
X006713Y011826D01*
X006616Y011729D01*
X006616Y011536D01*
X006487Y011536D02*
X006487Y011826D01*
X006391Y011729D01*
X006294Y011826D01*
X006294Y011536D01*
X006165Y011536D02*
X005972Y011536D01*
X005843Y011536D02*
X005843Y011826D01*
X005698Y011826D01*
X005649Y011778D01*
X005649Y011681D01*
X005698Y011633D01*
X005843Y011633D01*
X006068Y011681D02*
X006165Y011681D01*
X006165Y011826D02*
X006165Y011536D01*
X006165Y011826D02*
X005972Y011826D01*
X005521Y011729D02*
X005521Y011536D01*
X005521Y011681D02*
X005327Y011681D01*
X005327Y011729D02*
X005327Y011536D01*
X005198Y011536D02*
X005053Y011536D01*
X005005Y011584D01*
X005005Y011778D01*
X005053Y011826D01*
X005198Y011826D01*
X005198Y011536D01*
X005327Y011729D02*
X005424Y011826D01*
X005521Y011729D01*
X006616Y011681D02*
X006810Y011681D01*
X006939Y011681D02*
X006939Y011584D01*
X006987Y011536D01*
X007084Y011536D01*
X007132Y011584D01*
X007132Y011778D01*
X007084Y011826D01*
X006987Y011826D01*
X006939Y011778D01*
X006939Y011681D02*
X007035Y011681D01*
X007583Y011681D02*
X007777Y011681D01*
X007777Y011536D02*
X007777Y011826D01*
X007905Y011826D02*
X008099Y011826D01*
X008002Y011826D02*
X008002Y011536D01*
X008228Y011584D02*
X008228Y011778D01*
X008276Y011826D01*
X008373Y011826D01*
X008421Y011778D01*
X008421Y011584D01*
X008373Y011536D01*
X008276Y011536D01*
X008228Y011584D01*
X008550Y011584D02*
X008550Y011778D01*
X008598Y011826D01*
X008695Y011826D01*
X008743Y011778D01*
X008743Y011584D01*
X008695Y011536D01*
X008598Y011536D01*
X008550Y011584D01*
X008872Y011826D02*
X009066Y011826D01*
X008969Y011826D02*
X008969Y011536D01*
X009194Y011536D02*
X009388Y011536D01*
X009388Y011826D01*
X009194Y011826D01*
X009291Y011681D02*
X009388Y011681D01*
X009517Y011584D02*
X009517Y011826D01*
X009710Y011826D02*
X009710Y011584D01*
X009662Y011536D01*
X009565Y011536D01*
X009517Y011584D01*
X009839Y011536D02*
X010033Y011536D01*
X010033Y011826D01*
X010161Y011778D02*
X010161Y011729D01*
X010210Y011681D01*
X010355Y011681D01*
X010355Y011536D02*
X010210Y011536D01*
X010161Y011584D01*
X010161Y011633D01*
X010210Y011681D01*
X010161Y011778D02*
X010210Y011826D01*
X010355Y011826D01*
X010355Y011536D01*
X010806Y011536D02*
X010806Y011729D01*
X010903Y011826D01*
X010999Y011729D01*
X010999Y011536D01*
X011128Y011584D02*
X011128Y011633D01*
X011176Y011681D01*
X011322Y011681D01*
X011450Y011681D02*
X011450Y011584D01*
X011499Y011536D01*
X011596Y011536D01*
X011644Y011584D01*
X011644Y011778D01*
X011596Y011826D01*
X011499Y011826D01*
X011450Y011778D01*
X011450Y011681D02*
X011547Y011681D01*
X011322Y011536D02*
X011176Y011536D01*
X011128Y011584D01*
X011176Y011681D02*
X011128Y011729D01*
X011128Y011778D01*
X011176Y011826D01*
X011322Y011826D01*
X011322Y011536D01*
X010999Y011681D02*
X010806Y011681D01*
X007583Y011826D02*
X007583Y011536D01*
D12*
X006527Y005831D02*
X006529Y005857D01*
X006535Y005883D01*
X006544Y005907D01*
X006557Y005930D01*
X006574Y005950D01*
X006593Y005968D01*
X006615Y005983D01*
X006638Y005994D01*
X006663Y006002D01*
X006689Y006006D01*
X006715Y006006D01*
X006741Y006002D01*
X006766Y005994D01*
X006790Y005983D01*
X006811Y005968D01*
X006830Y005950D01*
X006847Y005930D01*
X006860Y005907D01*
X006869Y005883D01*
X006875Y005857D01*
X006877Y005831D01*
X006875Y005805D01*
X006869Y005779D01*
X006860Y005755D01*
X006847Y005732D01*
X006830Y005712D01*
X006811Y005694D01*
X006789Y005679D01*
X006766Y005668D01*
X006741Y005660D01*
X006715Y005656D01*
X006689Y005656D01*
X006663Y005660D01*
X006638Y005668D01*
X006614Y005679D01*
X006593Y005694D01*
X006574Y005712D01*
X006557Y005732D01*
X006544Y005755D01*
X006535Y005779D01*
X006529Y005805D01*
X006527Y005831D01*
X003277Y005831D02*
X003279Y005857D01*
X003285Y005883D01*
X003294Y005907D01*
X003307Y005930D01*
X003324Y005950D01*
X003343Y005968D01*
X003365Y005983D01*
X003388Y005994D01*
X003413Y006002D01*
X003439Y006006D01*
X003465Y006006D01*
X003491Y006002D01*
X003516Y005994D01*
X003540Y005983D01*
X003561Y005968D01*
X003580Y005950D01*
X003597Y005930D01*
X003610Y005907D01*
X003619Y005883D01*
X003625Y005857D01*
X003627Y005831D01*
X003625Y005805D01*
X003619Y005779D01*
X003610Y005755D01*
X003597Y005732D01*
X003580Y005712D01*
X003561Y005694D01*
X003539Y005679D01*
X003516Y005668D01*
X003491Y005660D01*
X003465Y005656D01*
X003439Y005656D01*
X003413Y005660D01*
X003388Y005668D01*
X003364Y005679D01*
X003343Y005694D01*
X003324Y005712D01*
X003307Y005732D01*
X003294Y005755D01*
X003285Y005779D01*
X003279Y005805D01*
X003277Y005831D01*
D13*
X003215Y006188D02*
X003215Y003412D01*
X006915Y003412D02*
X006915Y006188D01*
X005905Y006591D02*
X005805Y006591D01*
X005807Y006604D01*
X005812Y006617D01*
X005821Y006628D01*
X005832Y006635D01*
X005845Y006640D01*
X005858Y006641D01*
X005872Y006638D01*
X005884Y006632D01*
X005894Y006623D01*
X005901Y006611D01*
X005905Y006598D01*
X005905Y006584D01*
X005901Y006571D01*
X005894Y006559D01*
X005884Y006550D01*
X005872Y006544D01*
X005858Y006541D01*
X005845Y006542D01*
X005832Y006547D01*
X005821Y006554D01*
X005812Y006565D01*
X005807Y006578D01*
X005805Y006591D01*
X005784Y006591D02*
X005786Y006607D01*
X005792Y006623D01*
X005801Y006637D01*
X005813Y006648D01*
X005827Y006656D01*
X005843Y006661D01*
X005859Y006662D01*
X005875Y006659D01*
X005890Y006652D01*
X005904Y006643D01*
X005914Y006630D01*
X005922Y006615D01*
X005926Y006599D01*
X005926Y006583D01*
X005922Y006567D01*
X005914Y006552D01*
X005904Y006539D01*
X005891Y006530D01*
X005875Y006523D01*
X005859Y006520D01*
X005843Y006521D01*
X005827Y006526D01*
X005813Y006534D01*
X005801Y006545D01*
X005792Y006559D01*
X005786Y006575D01*
X005784Y006591D01*
X005743Y006591D02*
X005745Y006612D01*
X005751Y006631D01*
X005760Y006650D01*
X005772Y006666D01*
X005788Y006680D01*
X005805Y006691D01*
X005824Y006699D01*
X005845Y006703D01*
X005865Y006703D01*
X005886Y006699D01*
X005905Y006691D01*
X005922Y006680D01*
X005938Y006666D01*
X005950Y006650D01*
X005959Y006631D01*
X005965Y006612D01*
X005967Y006591D01*
X005965Y006570D01*
X005959Y006551D01*
X005950Y006532D01*
X005938Y006516D01*
X005922Y006502D01*
X005905Y006491D01*
X005886Y006483D01*
X005865Y006479D01*
X005845Y006479D01*
X005824Y006483D01*
X005805Y006491D01*
X005788Y006502D01*
X005772Y006516D01*
X005760Y006532D01*
X005751Y006551D01*
X005745Y006570D01*
X005743Y006591D01*
D14*
X010922Y012063D03*
D15*
X010923Y012065D03*
X010681Y012278D03*
X010681Y012280D03*
X010679Y012287D03*
X010679Y012289D03*
X007517Y012353D03*
D16*
X006740Y012778D03*
X006346Y012778D03*
X009423Y012778D03*
X010718Y012778D03*
X010925Y012067D03*
D17*
X010926Y012069D03*
X011065Y012444D03*
X009225Y012921D03*
X009060Y012444D03*
X008197Y012808D03*
X008042Y012337D03*
X007170Y012466D03*
D18*
X008177Y012820D03*
X008482Y012560D03*
X010928Y012071D03*
D19*
X010928Y012073D03*
X009282Y012615D03*
X009245Y012635D03*
X009227Y012645D03*
X009195Y012663D03*
X009155Y012685D03*
X009137Y012695D03*
X009123Y012703D03*
X009100Y012715D03*
X009082Y012725D03*
X009068Y012733D03*
X009050Y012743D03*
X007003Y012355D03*
D20*
X010930Y012075D03*
D21*
X010931Y012077D03*
X008721Y012685D03*
X007018Y012888D03*
X007018Y012367D03*
D22*
X010931Y012079D03*
D23*
X010933Y012081D03*
X010905Y012902D03*
X008701Y012675D03*
X008542Y012590D03*
X007032Y012383D03*
X006543Y012353D03*
X006543Y012902D03*
X007032Y012872D03*
D24*
X010934Y012083D03*
D25*
X010934Y012085D03*
X008676Y012663D03*
X008046Y012367D03*
X007045Y012401D03*
X007045Y012854D03*
D26*
X008577Y012609D03*
X010936Y012087D03*
D27*
X010936Y012089D03*
X010920Y012375D03*
X010906Y012888D03*
X008646Y012647D03*
X008641Y012645D03*
X008599Y012621D03*
X008046Y012375D03*
D28*
X010938Y012091D03*
D29*
X010939Y012093D03*
D30*
X010940Y012095D03*
X008688Y012341D03*
D31*
X008582Y012904D03*
X008057Y012399D03*
X010939Y012097D03*
D32*
X010937Y012099D03*
D33*
X010935Y012101D03*
X006543Y012379D03*
D34*
X006543Y012381D03*
X010933Y012103D03*
X010943Y012413D03*
D35*
X010945Y012417D03*
X010931Y012105D03*
X008023Y012880D03*
D36*
X010930Y012107D03*
D37*
X010927Y012109D03*
X010907Y012870D03*
D38*
X010907Y012868D03*
X010925Y012111D03*
D39*
X010924Y012113D03*
D40*
X010922Y012115D03*
D41*
X010920Y012117D03*
X008595Y012894D03*
D42*
X010919Y012119D03*
D43*
X010917Y012121D03*
D44*
X010915Y012123D03*
X009226Y012866D03*
D45*
X010914Y012126D03*
D46*
X010913Y012128D03*
D47*
X010911Y012130D03*
X009224Y012391D03*
X009226Y012862D03*
X008602Y012886D03*
X008023Y012870D03*
X006543Y012862D03*
X006543Y012393D03*
D48*
X010909Y012132D03*
D49*
X010908Y012134D03*
X008664Y012355D03*
D50*
X010907Y012136D03*
D51*
X010906Y012138D03*
X009227Y012860D03*
X008662Y012357D03*
X008024Y012868D03*
D52*
X008605Y012882D03*
X010904Y012140D03*
D53*
X010903Y012142D03*
D54*
X010902Y012144D03*
X009225Y012395D03*
D55*
X010901Y012146D03*
D56*
X010899Y012148D03*
D57*
X010898Y012150D03*
X009227Y012856D03*
X008658Y012361D03*
X008024Y012864D03*
X006544Y012856D03*
X006544Y012399D03*
D58*
X010897Y012152D03*
D59*
X010896Y012154D03*
D60*
X010894Y012156D03*
D61*
X010893Y012158D03*
D62*
X010892Y012160D03*
D63*
X010890Y012162D03*
X009227Y012852D03*
X008613Y012868D03*
X008654Y012365D03*
D64*
X008614Y012866D03*
X010889Y012164D03*
D65*
X011026Y012166D03*
X010728Y012198D03*
X011090Y012464D03*
X011090Y012792D03*
X009035Y012466D03*
X007517Y012423D03*
X007195Y012490D03*
X007195Y012766D03*
D66*
X007123Y012814D03*
X007123Y012442D03*
X008733Y012691D03*
X010790Y012166D03*
D67*
X010707Y012224D03*
X011035Y012168D03*
X010693Y012735D03*
X010904Y012925D03*
X010401Y013021D03*
X010401Y013074D03*
X009451Y012733D03*
X009453Y012526D03*
X009453Y012524D03*
X009451Y012522D03*
X008994Y012540D03*
X008994Y012542D03*
X008799Y012741D03*
X008444Y012460D03*
X008243Y012508D03*
X008255Y012725D03*
X008251Y012733D03*
X008251Y012735D03*
X007516Y012442D03*
X007516Y012361D03*
X007222Y012534D03*
X007224Y012538D03*
X007224Y012540D03*
X007226Y012711D03*
X007224Y012715D03*
X007224Y012717D03*
X007222Y012719D03*
X007220Y012725D03*
X006770Y012727D03*
X006768Y012733D03*
X006772Y012532D03*
X006770Y012526D03*
X006768Y012524D03*
X006768Y012522D03*
X006321Y012520D03*
X006319Y012524D03*
X006319Y012526D03*
X006317Y012530D03*
X006315Y012534D03*
X006317Y012725D03*
X006317Y012727D03*
X006321Y012735D03*
X006081Y012784D03*
X005771Y012749D03*
X005771Y012743D03*
X005461Y012784D03*
X005459Y012782D03*
D68*
X009053Y012741D03*
X009097Y012717D03*
X009107Y012711D03*
X009116Y012707D03*
X009130Y012699D03*
X009152Y012687D03*
X009166Y012679D03*
X009170Y012677D03*
X009180Y012671D03*
X009184Y012669D03*
X009188Y012667D03*
X009198Y012661D03*
X009202Y012659D03*
X009212Y012653D03*
X009216Y012651D03*
X009230Y012643D03*
X009242Y012637D03*
X009252Y012631D03*
X009260Y012627D03*
X009266Y012623D03*
X009275Y012619D03*
X010780Y012168D03*
D69*
X010679Y012291D03*
X011040Y012170D03*
D70*
X010774Y012170D03*
D71*
X011046Y012172D03*
D72*
X010768Y012172D03*
X009041Y012753D03*
X006994Y012906D03*
D73*
X008993Y012599D03*
X009315Y012564D03*
X010808Y012435D03*
X011050Y012174D03*
D74*
X010763Y012174D03*
X005940Y012913D03*
D75*
X011055Y012176D03*
D76*
X010759Y012176D03*
X011059Y012440D03*
X009072Y012816D03*
X008766Y012709D03*
X008187Y012814D03*
X006697Y012816D03*
X006389Y012816D03*
X006389Y012440D03*
X006697Y012440D03*
D77*
X011058Y012178D03*
D78*
X010755Y012178D03*
X007164Y012462D03*
D79*
X011062Y012180D03*
D80*
X010751Y012180D03*
X010749Y012810D03*
X009390Y012810D03*
X009064Y012810D03*
X006707Y012810D03*
X006379Y012810D03*
D81*
X010790Y012450D03*
X011066Y012182D03*
D82*
X010749Y012182D03*
X011071Y012448D03*
X010745Y012806D03*
X009396Y012806D03*
X009296Y012594D03*
X009396Y012450D03*
X008199Y012806D03*
X006709Y012808D03*
X006377Y012808D03*
X006377Y012448D03*
X006709Y012448D03*
X005940Y012917D03*
X005602Y012917D03*
D83*
X011070Y012184D03*
D84*
X010745Y012184D03*
X009398Y012452D03*
X008464Y012548D03*
X007176Y012784D03*
X005771Y012784D03*
X005491Y012822D03*
D85*
X011073Y012186D03*
D86*
X010742Y012186D03*
X009049Y012796D03*
D87*
X011077Y012188D03*
D88*
X010740Y012188D03*
X009409Y012794D03*
X008212Y012794D03*
X007183Y012778D03*
X006976Y012915D03*
X006056Y012818D03*
X005486Y012818D03*
D89*
X007891Y012492D03*
X007891Y012490D03*
X009334Y012534D03*
X011081Y012190D03*
D90*
X011083Y012458D03*
X010737Y012190D03*
X010735Y012192D03*
X010729Y012792D03*
X008207Y012460D03*
X007516Y012411D03*
X007516Y012409D03*
X007516Y012407D03*
X007516Y012403D03*
X007516Y012401D03*
X007516Y012399D03*
X007516Y012395D03*
X007516Y012393D03*
X007516Y012391D03*
X007188Y012482D03*
X006727Y012464D03*
X006727Y012792D03*
D91*
X010769Y012472D03*
X011085Y012192D03*
D92*
X010733Y012194D03*
X011085Y012796D03*
X006731Y012788D03*
D93*
X010730Y012196D03*
X011088Y012794D03*
D94*
X011098Y012472D03*
X010726Y012200D03*
X010716Y012776D03*
X009425Y012776D03*
X009425Y012480D03*
X009027Y012476D03*
X008789Y012727D03*
X008453Y012448D03*
X008220Y012474D03*
X008228Y012774D03*
X008025Y012925D03*
X007827Y012784D03*
X007825Y012782D03*
X007201Y012758D03*
X007199Y012760D03*
X007201Y012498D03*
X007199Y012496D03*
X006348Y012476D03*
X006066Y012808D03*
X005476Y012808D03*
X005474Y012806D03*
D95*
X006738Y012780D03*
X010724Y012202D03*
X011096Y012470D03*
D96*
X010722Y012204D03*
X010712Y012770D03*
X010402Y013043D03*
X010402Y013051D03*
X009429Y012770D03*
X008791Y012729D03*
X006746Y012770D03*
X006070Y012802D03*
D97*
X006338Y012766D03*
X006336Y012492D03*
X006338Y012490D03*
X006748Y012490D03*
X006750Y012492D03*
X006748Y012766D03*
X007205Y012751D03*
X007207Y012749D03*
X007207Y012506D03*
X007205Y012504D03*
X007821Y012776D03*
X008234Y012766D03*
X008238Y012760D03*
X008228Y012484D03*
X008226Y012482D03*
X008451Y012450D03*
X008449Y012534D03*
X008789Y012808D03*
X009017Y012492D03*
X009019Y012488D03*
X009431Y012488D03*
X009431Y012768D03*
X010402Y013041D03*
X010402Y013045D03*
X010402Y013049D03*
X010710Y012768D03*
X010710Y012766D03*
X011098Y012782D03*
X011104Y012480D03*
X010720Y012206D03*
D98*
X010719Y012208D03*
X010705Y012760D03*
X011103Y012776D03*
X009437Y012760D03*
X009437Y012496D03*
X009435Y012492D03*
X009018Y012490D03*
X009012Y012500D03*
X009010Y012504D03*
X008790Y012806D03*
X008446Y012530D03*
X008231Y012488D03*
X007516Y012435D03*
X007516Y012369D03*
X007516Y012367D03*
X007210Y012512D03*
X007208Y012508D03*
X007210Y012743D03*
X006073Y012798D03*
X006073Y012800D03*
X005469Y012800D03*
D99*
X006751Y012494D03*
X007210Y012510D03*
X007208Y012747D03*
X008229Y012486D03*
X008792Y012731D03*
X009016Y012494D03*
X009435Y012494D03*
X009435Y012764D03*
X010703Y012756D03*
X011105Y012772D03*
X010717Y012210D03*
D100*
X010716Y012212D03*
X010702Y012753D03*
X011106Y012770D03*
X008242Y012753D03*
X006330Y012753D03*
X005466Y012794D03*
D101*
X005468Y012798D03*
X006328Y012749D03*
X006332Y012758D03*
X006328Y012506D03*
X006332Y012500D03*
X006332Y012498D03*
X007211Y012514D03*
X007213Y012516D03*
X007215Y012520D03*
X007215Y012735D03*
X007211Y012741D03*
X007815Y012768D03*
X008242Y012751D03*
X008244Y012749D03*
X008236Y012496D03*
X008234Y012492D03*
X008232Y012490D03*
X008793Y012733D03*
X009005Y012514D03*
X009009Y012506D03*
X009438Y012498D03*
X009440Y012500D03*
X009442Y012504D03*
X009442Y012751D03*
X009438Y012758D03*
X010704Y012758D03*
X011104Y012774D03*
X011108Y012768D03*
X011108Y012484D03*
X011106Y012482D03*
X010714Y012214D03*
D102*
X010713Y012216D03*
X010699Y012749D03*
X010701Y012751D03*
X009443Y012749D03*
X009445Y012508D03*
X009443Y012506D03*
X009008Y012508D03*
X009006Y012512D03*
X009004Y012516D03*
X009002Y012520D03*
X009002Y012522D03*
X008444Y012526D03*
X008247Y012743D03*
X007814Y012766D03*
X007516Y012440D03*
X007218Y012526D03*
X007216Y012522D03*
X007216Y012733D03*
X006760Y012749D03*
X006760Y012508D03*
X006760Y012506D03*
X006329Y012504D03*
X006327Y012508D03*
X006325Y012512D03*
X006325Y012743D03*
X006329Y012751D03*
D103*
X005771Y012756D03*
X010711Y012218D03*
X011109Y012486D03*
X011111Y012764D03*
D104*
X010694Y012737D03*
X010710Y012220D03*
X009450Y012737D03*
X006322Y012737D03*
X006080Y012786D03*
X005462Y012786D03*
D105*
X006078Y012790D03*
X006320Y012733D03*
X006320Y012522D03*
X006322Y012516D03*
X006767Y012520D03*
X006767Y012735D03*
X007219Y012727D03*
X007221Y012532D03*
X007221Y012530D03*
X008240Y012504D03*
X008242Y012506D03*
X008445Y012458D03*
X008995Y012538D03*
X008997Y012534D03*
X008997Y012532D03*
X008999Y012530D03*
X009001Y012524D03*
X009226Y012331D03*
X009446Y012512D03*
X009448Y012514D03*
X009448Y012516D03*
X009450Y012520D03*
X009305Y012580D03*
X009450Y012735D03*
X009448Y012741D03*
X009446Y012743D03*
X010402Y013070D03*
X010696Y012743D03*
X010696Y012741D03*
X010692Y012733D03*
X011114Y012758D03*
X010708Y012222D03*
D106*
X010705Y012226D03*
X010691Y012731D03*
X010401Y013023D03*
X010401Y013072D03*
X009825Y012454D03*
X009453Y012731D03*
X008994Y012544D03*
X008996Y012536D03*
X008243Y012510D03*
X008253Y012731D03*
X007808Y012756D03*
X007226Y012544D03*
X006770Y012528D03*
X006766Y012518D03*
X006772Y012723D03*
X006768Y012731D03*
X006319Y012731D03*
X006317Y012528D03*
X005771Y012747D03*
X005459Y012780D03*
D107*
X005458Y012778D03*
X006773Y012721D03*
X007803Y012745D03*
X007807Y012753D03*
X008256Y012721D03*
X008800Y012745D03*
X008798Y012794D03*
X010402Y013019D03*
X010690Y012729D03*
X011124Y012737D03*
X011128Y012729D03*
X010704Y012228D03*
D108*
X010703Y012230D03*
X011123Y012508D03*
X011125Y012512D03*
X011125Y012514D03*
X011127Y012516D03*
X011129Y012520D03*
X011129Y012725D03*
X011129Y012727D03*
X010684Y012715D03*
X010680Y012703D03*
X010680Y012701D03*
X010401Y013017D03*
X010401Y013078D03*
X009461Y012709D03*
X009461Y012707D03*
X009463Y012703D03*
X009463Y012701D03*
X009463Y012699D03*
X009465Y012695D03*
X009465Y012693D03*
X009467Y012687D03*
X009467Y012685D03*
X009469Y012675D03*
X009469Y012580D03*
X009467Y012570D03*
X009465Y012562D03*
X009465Y012558D03*
X009463Y012556D03*
X009463Y012554D03*
X009461Y012548D03*
X009461Y012546D03*
X009459Y012542D03*
X008988Y012562D03*
X008986Y012570D03*
X008986Y012572D03*
X008984Y012578D03*
X008984Y012580D03*
X008801Y012749D03*
X008801Y012782D03*
X008801Y012784D03*
X008799Y012790D03*
X008438Y012512D03*
X008255Y012534D03*
X008253Y012530D03*
X008251Y012526D03*
X008251Y012524D03*
X008249Y012520D03*
X008040Y012331D03*
X008261Y012707D03*
X008261Y012709D03*
X008259Y012715D03*
X008257Y012719D03*
X007802Y012743D03*
X007516Y012359D03*
X007233Y012562D03*
X007233Y012564D03*
X007235Y012570D03*
X007235Y012572D03*
X007237Y012578D03*
X007237Y012580D03*
X007237Y012675D03*
X007237Y012677D03*
X007235Y012683D03*
X007235Y012685D03*
X007235Y012687D03*
X007233Y012691D03*
X007233Y012693D03*
X007233Y012695D03*
X006784Y012683D03*
X006782Y012691D03*
X006782Y012693D03*
X006780Y012699D03*
X006780Y012701D03*
X006778Y012703D03*
X006778Y012707D03*
X006776Y012711D03*
X006774Y012717D03*
X006784Y012574D03*
X006784Y012572D03*
X006782Y012566D03*
X006782Y012564D03*
X006782Y012562D03*
X006780Y012558D03*
X006780Y012556D03*
X006780Y012554D03*
X006778Y012550D03*
X006778Y012548D03*
X006774Y012538D03*
X006309Y012550D03*
X006309Y012554D03*
X006307Y012556D03*
X006307Y012558D03*
X006305Y012566D03*
X006303Y012578D03*
X006303Y012677D03*
X006305Y012687D03*
X006307Y012695D03*
X006307Y012699D03*
X006309Y012701D03*
X006309Y012703D03*
X006087Y012768D03*
X005771Y012735D03*
X005771Y012733D03*
X005453Y012766D03*
D109*
X005458Y012776D03*
X005770Y012741D03*
X006314Y012719D03*
X006314Y012717D03*
X006543Y012925D03*
X006771Y012725D03*
X006773Y012719D03*
X006775Y012715D03*
X006777Y012709D03*
X006777Y012546D03*
X006775Y012542D03*
X006775Y012540D03*
X006773Y012534D03*
X006771Y012530D03*
X006543Y012331D03*
X006316Y012532D03*
X006314Y012538D03*
X007225Y012542D03*
X007228Y012546D03*
X007228Y012548D03*
X007228Y012707D03*
X007228Y012709D03*
X007517Y012444D03*
X007805Y012749D03*
X007805Y012751D03*
X008254Y012727D03*
X008258Y012717D03*
X008250Y012522D03*
X008800Y012743D03*
X008798Y012792D03*
X008987Y012566D03*
X008987Y012564D03*
X009307Y012578D03*
X009462Y012550D03*
X009460Y012711D03*
X009454Y012727D03*
X009826Y012456D03*
X010685Y012717D03*
X010685Y012719D03*
X010688Y012725D03*
X010690Y012727D03*
X011122Y012741D03*
X011126Y012735D03*
X011126Y012733D03*
X011122Y012506D03*
X010702Y012232D03*
D110*
X010701Y012234D03*
X010684Y012713D03*
X011127Y012731D03*
X009465Y012697D03*
X009459Y012713D03*
X009467Y012568D03*
X009465Y012560D03*
X009463Y012552D03*
X008986Y012568D03*
X008984Y012576D03*
X008801Y012747D03*
X008438Y012510D03*
X008438Y012478D03*
X008253Y012528D03*
X008259Y012713D03*
X007804Y012747D03*
X007800Y012739D03*
X007516Y012446D03*
X007233Y012560D03*
X007235Y012568D03*
X006778Y012552D03*
X006776Y012544D03*
X006784Y012681D03*
X006782Y012689D03*
X006780Y012697D03*
X006778Y012705D03*
X006309Y012705D03*
X006307Y012697D03*
X006305Y012689D03*
X006305Y012568D03*
X006307Y012560D03*
X006309Y012552D03*
X005771Y012739D03*
X005453Y012764D03*
D111*
X005771Y012737D03*
X006087Y012770D03*
X006089Y012762D03*
X008801Y012786D03*
X010401Y013076D03*
X010686Y012721D03*
X011131Y012721D03*
X010699Y012236D03*
D112*
X010698Y012238D03*
X010698Y012240D03*
X010675Y012679D03*
X010677Y012691D03*
X010677Y012693D03*
X010679Y012695D03*
X010679Y012699D03*
X011132Y012717D03*
X011132Y012719D03*
X011134Y012715D03*
X011134Y012711D03*
X011136Y012707D03*
X011134Y012532D03*
X011132Y012526D03*
X011130Y012524D03*
X011130Y012522D03*
X009832Y012466D03*
X009466Y012564D03*
X009466Y012566D03*
X009468Y012572D03*
X009468Y012574D03*
X009468Y012578D03*
X009470Y012582D03*
X009470Y012586D03*
X009470Y012588D03*
X009470Y012590D03*
X009472Y012596D03*
X009472Y012599D03*
X009472Y012603D03*
X009472Y012605D03*
X009472Y012607D03*
X009472Y012611D03*
X009472Y012613D03*
X009472Y012615D03*
X009472Y012619D03*
X009472Y012637D03*
X009472Y012639D03*
X009472Y012643D03*
X009472Y012645D03*
X009472Y012647D03*
X009472Y012651D03*
X009472Y012653D03*
X009472Y012655D03*
X009472Y012659D03*
X009470Y012663D03*
X009470Y012667D03*
X009470Y012669D03*
X009470Y012671D03*
X009468Y012677D03*
X009468Y012679D03*
X009468Y012683D03*
X009466Y012691D03*
X008983Y012586D03*
X008983Y012582D03*
X008985Y012574D03*
X008981Y012594D03*
X008802Y012751D03*
X008802Y012758D03*
X008802Y012774D03*
X008802Y012776D03*
X008437Y012508D03*
X008437Y012506D03*
X008437Y012504D03*
X008437Y012500D03*
X008437Y012498D03*
X008437Y012496D03*
X008437Y012492D03*
X008437Y012490D03*
X008437Y012488D03*
X008437Y012484D03*
X008437Y012482D03*
X008437Y012480D03*
X008439Y012476D03*
X008439Y012474D03*
X008258Y012542D03*
X008256Y012538D03*
X008254Y012532D03*
X008264Y012695D03*
X008264Y012699D03*
X008262Y012701D03*
X008262Y012703D03*
X008260Y012711D03*
X007801Y012741D03*
X007799Y012735D03*
X007240Y012661D03*
X007240Y012659D03*
X007240Y012655D03*
X007240Y012653D03*
X007240Y012651D03*
X007240Y012647D03*
X007240Y012645D03*
X007238Y012667D03*
X007238Y012669D03*
X007238Y012671D03*
X007236Y012679D03*
X007240Y012611D03*
X007240Y012607D03*
X007240Y012605D03*
X007240Y012603D03*
X007240Y012599D03*
X007240Y012596D03*
X007240Y012594D03*
X007238Y012590D03*
X007238Y012588D03*
X007238Y012586D03*
X007238Y012582D03*
X007236Y012574D03*
X007234Y012566D03*
X006789Y012607D03*
X006789Y012611D03*
X006789Y012613D03*
X006789Y012615D03*
X006789Y012619D03*
X006789Y012621D03*
X006789Y012623D03*
X006789Y012627D03*
X006789Y012629D03*
X006789Y012631D03*
X006789Y012635D03*
X006789Y012637D03*
X006789Y012639D03*
X006789Y012643D03*
X006789Y012645D03*
X006789Y012647D03*
X006787Y012659D03*
X006787Y012661D03*
X006787Y012663D03*
X006787Y012667D03*
X006787Y012669D03*
X006785Y012671D03*
X006785Y012675D03*
X006785Y012677D03*
X006785Y012679D03*
X006783Y012685D03*
X006783Y012687D03*
X006781Y012695D03*
X006787Y012599D03*
X006787Y012596D03*
X006787Y012594D03*
X006787Y012590D03*
X006787Y012588D03*
X006787Y012586D03*
X006785Y012582D03*
X006785Y012580D03*
X006785Y012578D03*
X006783Y012570D03*
X006306Y012564D03*
X006306Y012562D03*
X006304Y012570D03*
X006304Y012572D03*
X006304Y012574D03*
X006302Y012580D03*
X006302Y012582D03*
X006302Y012586D03*
X006302Y012588D03*
X006300Y012594D03*
X006300Y012596D03*
X006300Y012599D03*
X006300Y012603D03*
X006300Y012605D03*
X006300Y012607D03*
X006300Y012647D03*
X006300Y012651D03*
X006300Y012653D03*
X006300Y012655D03*
X006300Y012659D03*
X006300Y012661D03*
X006300Y012663D03*
X006302Y012667D03*
X006302Y012669D03*
X006302Y012671D03*
X006302Y012675D03*
X006304Y012679D03*
X006304Y012683D03*
X006304Y012685D03*
X006306Y012691D03*
X006306Y012693D03*
X006090Y012758D03*
X006090Y012760D03*
X006088Y012766D03*
X005452Y012760D03*
X005452Y012758D03*
X005450Y012751D03*
X005450Y012749D03*
D113*
X005770Y012731D03*
X006088Y012764D03*
X006090Y012756D03*
X006092Y012747D03*
X006300Y012657D03*
X006300Y012649D03*
X006302Y012673D03*
X006304Y012681D03*
X006300Y012609D03*
X006300Y012601D03*
X006300Y012592D03*
X006302Y012584D03*
X006304Y012576D03*
X006781Y012560D03*
X006783Y012568D03*
X006785Y012576D03*
X006785Y012584D03*
X006787Y012592D03*
X006789Y012609D03*
X006789Y012617D03*
X006789Y012625D03*
X006789Y012633D03*
X006789Y012641D03*
X006789Y012649D03*
X006787Y012657D03*
X006787Y012665D03*
X006785Y012673D03*
X007234Y012689D03*
X007236Y012681D03*
X007238Y012673D03*
X007238Y012665D03*
X007240Y012657D03*
X007240Y012649D03*
X007240Y012609D03*
X007240Y012601D03*
X007238Y012584D03*
X007236Y012576D03*
X007797Y012731D03*
X008262Y012705D03*
X008264Y012697D03*
X008256Y012536D03*
X008437Y012502D03*
X008437Y012494D03*
X008437Y012486D03*
X008802Y012756D03*
X008802Y012772D03*
X008802Y012780D03*
X008981Y012592D03*
X008983Y012584D03*
X009468Y012576D03*
X009470Y012584D03*
X009470Y012592D03*
X009472Y012601D03*
X009472Y012609D03*
X009472Y012617D03*
X009472Y012641D03*
X009472Y012649D03*
X009472Y012657D03*
X009470Y012665D03*
X009470Y012673D03*
X009468Y012681D03*
X009466Y012689D03*
X009830Y012462D03*
X010402Y013015D03*
X010681Y012705D03*
X010679Y012697D03*
X010677Y012689D03*
X010675Y012681D03*
X010696Y012242D03*
X011128Y012518D03*
X011132Y012528D03*
X011136Y012705D03*
X011134Y012713D03*
X011130Y012723D03*
D114*
X010696Y012244D03*
X008802Y012753D03*
X008802Y012778D03*
X007799Y012737D03*
X005770Y012729D03*
X005452Y012762D03*
D115*
X005449Y012743D03*
X005449Y012741D03*
X005771Y012727D03*
X005771Y012725D03*
X005771Y012719D03*
X005771Y012717D03*
X005771Y012715D03*
X006091Y012749D03*
X006091Y012751D03*
X006093Y012743D03*
X006093Y012741D03*
X006299Y012645D03*
X006299Y012643D03*
X006299Y012639D03*
X006299Y012637D03*
X006299Y012635D03*
X006299Y012631D03*
X006299Y012629D03*
X006299Y012627D03*
X006299Y012623D03*
X006299Y012621D03*
X006299Y012619D03*
X006299Y012615D03*
X006299Y012613D03*
X006299Y012611D03*
X006301Y012590D03*
X006788Y012603D03*
X006788Y012605D03*
X006788Y012651D03*
X006788Y012653D03*
X006788Y012655D03*
X007239Y012663D03*
X007241Y012643D03*
X007241Y012639D03*
X007241Y012637D03*
X007241Y012635D03*
X007241Y012631D03*
X007241Y012629D03*
X007241Y012627D03*
X007241Y012623D03*
X007241Y012621D03*
X007241Y012619D03*
X007241Y012615D03*
X007241Y012613D03*
X007516Y012448D03*
X007798Y012733D03*
X007939Y012431D03*
X008257Y012540D03*
X008259Y012546D03*
X008261Y012550D03*
X008269Y012671D03*
X008267Y012683D03*
X008267Y012685D03*
X008267Y012687D03*
X008265Y012691D03*
X008265Y012693D03*
X008803Y012760D03*
X008803Y012766D03*
X008803Y012768D03*
X008982Y012590D03*
X008982Y012588D03*
X009471Y012594D03*
X009471Y012661D03*
X009833Y012468D03*
X009831Y012464D03*
X010401Y013013D03*
X010676Y012687D03*
X010676Y012685D03*
X010676Y012683D03*
X010674Y012677D03*
X010674Y012675D03*
X010674Y012671D03*
X010674Y012669D03*
X010672Y012661D03*
X010672Y012659D03*
X010691Y012254D03*
X010693Y012248D03*
X010695Y012246D03*
X011133Y012530D03*
X011137Y012540D03*
X011139Y012546D03*
X011143Y012679D03*
X011141Y012687D03*
X011141Y012691D03*
X011139Y012693D03*
X011139Y012695D03*
X011139Y012699D03*
X011137Y012701D03*
X011137Y012703D03*
D116*
X011139Y012697D03*
X011141Y012689D03*
X011143Y012681D03*
X010821Y012429D03*
X010672Y012657D03*
X010674Y012673D03*
X010693Y012250D03*
X010401Y013080D03*
X009308Y012576D03*
X008803Y012764D03*
X008269Y012673D03*
X008267Y012681D03*
X008265Y012689D03*
X008261Y012552D03*
X008259Y012544D03*
X007516Y012357D03*
X007239Y012592D03*
X007241Y012617D03*
X007241Y012625D03*
X007241Y012633D03*
X007241Y012641D03*
X006788Y012601D03*
X006299Y012617D03*
X006299Y012625D03*
X006299Y012633D03*
X006299Y012641D03*
X006301Y012665D03*
X006093Y012739D03*
X005771Y012723D03*
X005451Y012756D03*
X005449Y012747D03*
X005449Y012739D03*
D117*
X005448Y012737D03*
X005448Y012729D03*
X006094Y012729D03*
X006094Y012721D03*
X010688Y012260D03*
X010692Y012252D03*
D118*
X010690Y012256D03*
X010688Y012262D03*
X010671Y012627D03*
X010671Y012629D03*
X010671Y012631D03*
X010671Y012635D03*
X010671Y012637D03*
X010671Y012639D03*
X010671Y012643D03*
X010671Y012645D03*
X010671Y012647D03*
X010671Y012651D03*
X010671Y012653D03*
X010671Y012655D03*
X010673Y012663D03*
X010673Y012667D03*
X011142Y012683D03*
X011142Y012685D03*
X011144Y012677D03*
X011144Y012675D03*
X011144Y012671D03*
X011144Y012669D03*
X011146Y012667D03*
X011146Y012663D03*
X011146Y012661D03*
X011146Y012659D03*
X011146Y012655D03*
X011148Y012647D03*
X011148Y012645D03*
X011148Y012643D03*
X011148Y012639D03*
X011148Y012637D03*
X011148Y012635D03*
X011148Y012596D03*
X011148Y012594D03*
X011146Y012578D03*
X011144Y012566D03*
X011142Y012558D03*
X011142Y012556D03*
X011140Y012550D03*
X011140Y012548D03*
X011138Y012542D03*
X010402Y013082D03*
X009836Y012476D03*
X009836Y012474D03*
X009834Y012472D03*
X009309Y012574D03*
X008272Y012621D03*
X008272Y012623D03*
X008272Y012627D03*
X008272Y012629D03*
X008272Y012631D03*
X008272Y012635D03*
X008272Y012637D03*
X008272Y012639D03*
X008272Y012643D03*
X008272Y012645D03*
X008272Y012647D03*
X008270Y012659D03*
X008270Y012661D03*
X008270Y012663D03*
X008270Y012667D03*
X008270Y012669D03*
X008268Y012675D03*
X008268Y012677D03*
X008268Y012679D03*
X008270Y012594D03*
X008268Y012582D03*
X008268Y012580D03*
X008268Y012578D03*
X008266Y012572D03*
X008266Y012570D03*
X008260Y012548D03*
X007787Y012671D03*
X007787Y012675D03*
X007789Y012695D03*
X007791Y012707D03*
X007791Y012709D03*
X007791Y012711D03*
X007517Y012355D03*
X006094Y012715D03*
X006094Y012717D03*
X006094Y012719D03*
X006094Y012725D03*
X006094Y012727D03*
X006094Y012733D03*
X006094Y012735D03*
X005770Y012711D03*
X005770Y012709D03*
X005448Y012725D03*
X005448Y012727D03*
X005448Y012733D03*
X005448Y012735D03*
D119*
X005448Y012731D03*
X005448Y012723D03*
X005770Y012713D03*
X006094Y012723D03*
X006094Y012731D03*
X007787Y012673D03*
X007789Y012697D03*
X007791Y012705D03*
X008270Y012665D03*
X008270Y012657D03*
X008272Y012641D03*
X008272Y012633D03*
X008272Y012625D03*
X008266Y012568D03*
X009834Y012470D03*
X009836Y012478D03*
X009838Y012486D03*
X010671Y012633D03*
X010671Y012641D03*
X010671Y012649D03*
X010673Y012665D03*
X010685Y012266D03*
X010690Y012258D03*
X011138Y012544D03*
X011140Y012552D03*
X011142Y012560D03*
X011144Y012568D03*
X011148Y012641D03*
X011146Y012657D03*
X011146Y012665D03*
X011144Y012673D03*
D120*
X011147Y012653D03*
X011147Y012651D03*
X011147Y012590D03*
X011147Y012588D03*
X011147Y012586D03*
X011147Y012582D03*
X011147Y012580D03*
X011145Y012574D03*
X011145Y012572D03*
X011145Y012570D03*
X011143Y012564D03*
X011143Y012562D03*
X011141Y012554D03*
X010670Y012554D03*
X010670Y012556D03*
X010670Y012558D03*
X010670Y012562D03*
X010670Y012564D03*
X010670Y012566D03*
X010670Y012570D03*
X010670Y012572D03*
X010670Y012574D03*
X010670Y012578D03*
X010670Y012580D03*
X010670Y012582D03*
X010670Y012586D03*
X010670Y012588D03*
X010670Y012590D03*
X010670Y012594D03*
X010670Y012596D03*
X010670Y012599D03*
X010670Y012603D03*
X010670Y012605D03*
X010670Y012607D03*
X010670Y012611D03*
X010670Y012613D03*
X010670Y012615D03*
X010670Y012619D03*
X010670Y012621D03*
X010670Y012623D03*
X010670Y012550D03*
X010670Y012548D03*
X010670Y012546D03*
X010670Y012542D03*
X010670Y012540D03*
X010670Y012538D03*
X010670Y012534D03*
X010670Y012532D03*
X010670Y012530D03*
X010670Y012526D03*
X010670Y012524D03*
X010670Y012522D03*
X010670Y012520D03*
X010670Y012516D03*
X010670Y012514D03*
X010670Y012512D03*
X010670Y012508D03*
X010670Y012506D03*
X010670Y012504D03*
X010670Y012500D03*
X010670Y012498D03*
X010670Y012496D03*
X010670Y012492D03*
X010670Y012490D03*
X010670Y012488D03*
X010670Y012484D03*
X010670Y012482D03*
X010670Y012480D03*
X010670Y012476D03*
X010670Y012474D03*
X010670Y012472D03*
X010670Y012468D03*
X010670Y012466D03*
X010670Y012464D03*
X010670Y012460D03*
X010670Y012458D03*
X010670Y012456D03*
X010670Y012452D03*
X010670Y012450D03*
X010670Y012448D03*
X010670Y012444D03*
X010670Y012442D03*
X010670Y012440D03*
X010670Y012435D03*
X010670Y012433D03*
X010670Y012431D03*
X010670Y012427D03*
X010670Y012425D03*
X010670Y012423D03*
X010670Y012419D03*
X010670Y012417D03*
X010670Y012415D03*
X010670Y012411D03*
X010670Y012409D03*
X010670Y012407D03*
X010670Y012403D03*
X010670Y012401D03*
X010670Y012399D03*
X010670Y012395D03*
X010670Y012393D03*
X010670Y012391D03*
X010670Y012387D03*
X010670Y012385D03*
X010670Y012383D03*
X010670Y012379D03*
X010670Y012377D03*
X010670Y012375D03*
X010670Y012371D03*
X010670Y012369D03*
X010670Y012367D03*
X010670Y012363D03*
X010670Y012361D03*
X010670Y012359D03*
X010672Y012339D03*
X010672Y012337D03*
X010672Y012335D03*
X010672Y012331D03*
X010686Y012264D03*
X010401Y012339D03*
X010401Y012343D03*
X010401Y012345D03*
X010401Y012347D03*
X010401Y012351D03*
X010401Y012353D03*
X010401Y012355D03*
X010401Y012359D03*
X010401Y012361D03*
X010401Y012363D03*
X010401Y012367D03*
X010401Y012369D03*
X010401Y012371D03*
X010401Y012375D03*
X010401Y012377D03*
X010401Y012379D03*
X010401Y012383D03*
X010401Y012385D03*
X010401Y012387D03*
X010401Y012391D03*
X010401Y012393D03*
X010401Y012395D03*
X010401Y012399D03*
X010401Y012401D03*
X010401Y012403D03*
X010401Y012407D03*
X010401Y012409D03*
X010401Y012411D03*
X010401Y012415D03*
X010401Y012417D03*
X010401Y012419D03*
X010401Y012423D03*
X010401Y012425D03*
X010401Y012427D03*
X010401Y012431D03*
X010401Y012433D03*
X010401Y012435D03*
X010401Y012440D03*
X010401Y012442D03*
X010401Y012444D03*
X010401Y012448D03*
X010401Y012450D03*
X010401Y012452D03*
X010401Y012456D03*
X010401Y012458D03*
X010401Y012460D03*
X010401Y012464D03*
X010401Y012466D03*
X010401Y012468D03*
X010401Y012472D03*
X010401Y012474D03*
X010401Y012476D03*
X010401Y012480D03*
X010401Y012482D03*
X010401Y012484D03*
X010401Y012488D03*
X010401Y012490D03*
X010401Y012492D03*
X010401Y012496D03*
X010401Y012498D03*
X010401Y012500D03*
X010401Y012504D03*
X010401Y012506D03*
X010401Y012508D03*
X010401Y012512D03*
X010401Y012514D03*
X010401Y012516D03*
X010401Y012520D03*
X010401Y012522D03*
X010401Y012524D03*
X010401Y012526D03*
X010401Y012530D03*
X010401Y012532D03*
X010401Y012534D03*
X010401Y012538D03*
X010401Y012540D03*
X010401Y012542D03*
X010401Y012546D03*
X010401Y012548D03*
X010401Y012550D03*
X010401Y012554D03*
X010401Y012556D03*
X010401Y012558D03*
X010401Y012562D03*
X010401Y012564D03*
X010401Y012566D03*
X010401Y012570D03*
X010401Y012572D03*
X010401Y012574D03*
X010401Y012578D03*
X010401Y012580D03*
X010401Y012582D03*
X010401Y012586D03*
X010401Y012588D03*
X010401Y012590D03*
X010401Y012594D03*
X010401Y012596D03*
X010401Y012599D03*
X010401Y012603D03*
X010401Y012605D03*
X010401Y012607D03*
X010401Y012611D03*
X010401Y012613D03*
X010401Y012615D03*
X010401Y012619D03*
X010401Y012621D03*
X010401Y012623D03*
X010401Y012627D03*
X010401Y012629D03*
X010401Y012631D03*
X010401Y012635D03*
X010401Y012637D03*
X010401Y012639D03*
X010401Y012643D03*
X010401Y012645D03*
X010401Y012647D03*
X010401Y012651D03*
X010401Y012653D03*
X010401Y012655D03*
X010401Y012659D03*
X010401Y012661D03*
X010401Y012663D03*
X010401Y012667D03*
X010401Y012669D03*
X010401Y012671D03*
X010401Y012675D03*
X010401Y012677D03*
X010401Y012679D03*
X010401Y012683D03*
X010401Y012685D03*
X010401Y012687D03*
X010401Y012691D03*
X010401Y012693D03*
X010401Y012695D03*
X010401Y012699D03*
X010401Y012701D03*
X010401Y012703D03*
X010401Y012707D03*
X010401Y012709D03*
X010401Y012711D03*
X010401Y012715D03*
X010401Y012717D03*
X010401Y012719D03*
X010401Y012725D03*
X010401Y012727D03*
X010401Y012733D03*
X010401Y012735D03*
X010401Y012741D03*
X010401Y012743D03*
X010401Y012749D03*
X010401Y012751D03*
X010401Y012758D03*
X010401Y012760D03*
X010401Y012766D03*
X010401Y012768D03*
X010401Y012774D03*
X010401Y012776D03*
X010401Y012782D03*
X010401Y012784D03*
X010401Y012790D03*
X010401Y012792D03*
X010401Y012798D03*
X010401Y012800D03*
X010401Y012806D03*
X010401Y012808D03*
X010401Y012814D03*
X010401Y012816D03*
X010401Y012822D03*
X010401Y012824D03*
X010401Y012830D03*
X010401Y012832D03*
X010401Y012838D03*
X010401Y012840D03*
X010401Y012846D03*
X010401Y012848D03*
X010401Y012854D03*
X010401Y012856D03*
X010401Y012862D03*
X010401Y012864D03*
X010401Y012870D03*
X010401Y012872D03*
X010401Y012878D03*
X010401Y012880D03*
X010401Y012886D03*
X010401Y012888D03*
X010401Y012894D03*
X010401Y012896D03*
X010401Y012902D03*
X010401Y012904D03*
X010401Y012910D03*
X010401Y012913D03*
X010401Y012917D03*
X010401Y013009D03*
X009841Y013009D03*
X009841Y013005D03*
X009841Y013001D03*
X009841Y012997D03*
X009841Y012993D03*
X009841Y012989D03*
X009841Y012985D03*
X009841Y012981D03*
X009841Y012977D03*
X009841Y012973D03*
X009841Y012969D03*
X009841Y012965D03*
X009841Y012961D03*
X009841Y012957D03*
X009841Y012953D03*
X009841Y012949D03*
X009841Y012945D03*
X009841Y012941D03*
X009841Y012937D03*
X009841Y012933D03*
X009841Y012929D03*
X009841Y012925D03*
X009841Y012921D03*
X009841Y013013D03*
X009841Y013017D03*
X009841Y013021D03*
X009841Y013025D03*
X009841Y013029D03*
X009841Y013033D03*
X009841Y013037D03*
X009841Y013041D03*
X009841Y013045D03*
X009841Y013049D03*
X009841Y013053D03*
X009841Y013057D03*
X009841Y013061D03*
X009841Y012814D03*
X009841Y012808D03*
X009841Y012806D03*
X009841Y012800D03*
X009841Y012798D03*
X009841Y012792D03*
X009841Y012790D03*
X009841Y012784D03*
X009841Y012782D03*
X009841Y012776D03*
X009841Y012774D03*
X009841Y012768D03*
X009841Y012766D03*
X009841Y012760D03*
X009841Y012758D03*
X009841Y012751D03*
X009841Y012749D03*
X009841Y012743D03*
X009841Y012741D03*
X009841Y012735D03*
X009841Y012733D03*
X009841Y012727D03*
X009841Y012725D03*
X009841Y012719D03*
X009841Y012717D03*
X009841Y012715D03*
X009841Y012711D03*
X009841Y012709D03*
X009841Y012707D03*
X009841Y012703D03*
X009841Y012701D03*
X009841Y012699D03*
X009841Y012695D03*
X009841Y012693D03*
X009841Y012691D03*
X009841Y012687D03*
X009841Y012685D03*
X009841Y012683D03*
X009841Y012679D03*
X009841Y012677D03*
X009841Y012675D03*
X009841Y012671D03*
X009841Y012669D03*
X009841Y012667D03*
X009841Y012663D03*
X009841Y012661D03*
X009841Y012659D03*
X009841Y012655D03*
X009841Y012653D03*
X009841Y012651D03*
X009841Y012647D03*
X009841Y012645D03*
X009841Y012643D03*
X009841Y012639D03*
X009841Y012637D03*
X009841Y012635D03*
X009841Y012631D03*
X009841Y012629D03*
X009841Y012627D03*
X009841Y012623D03*
X009841Y012621D03*
X009841Y012619D03*
X009841Y012615D03*
X009841Y012613D03*
X009841Y012611D03*
X009841Y012607D03*
X009841Y012605D03*
X009841Y012603D03*
X009841Y012599D03*
X009841Y012596D03*
X009841Y012594D03*
X009841Y012590D03*
X009841Y012588D03*
X009841Y012586D03*
X009841Y012582D03*
X009841Y012580D03*
X009841Y012578D03*
X009841Y012574D03*
X009841Y012572D03*
X009841Y012570D03*
X009841Y012566D03*
X009841Y012564D03*
X009841Y012562D03*
X009841Y012558D03*
X009841Y012556D03*
X009841Y012554D03*
X009841Y012550D03*
X009841Y012548D03*
X009841Y012546D03*
X009841Y012542D03*
X009841Y012540D03*
X009841Y012538D03*
X009841Y012534D03*
X009841Y012532D03*
X009841Y012530D03*
X009841Y012526D03*
X009841Y012524D03*
X009841Y012522D03*
X009841Y012520D03*
X009841Y012516D03*
X009841Y012514D03*
X009841Y012512D03*
X009841Y012508D03*
X009841Y012506D03*
X009839Y012504D03*
X009839Y012500D03*
X009839Y012498D03*
X009839Y012496D03*
X009839Y012492D03*
X009839Y012490D03*
X009839Y012488D03*
X009837Y012484D03*
X009837Y012482D03*
X009837Y012480D03*
X008271Y012596D03*
X008271Y012599D03*
X008271Y012603D03*
X008271Y012605D03*
X008271Y012607D03*
X008271Y012611D03*
X008271Y012613D03*
X008271Y012615D03*
X008271Y012619D03*
X008269Y012590D03*
X008269Y012588D03*
X008269Y012586D03*
X008267Y012574D03*
X008271Y012651D03*
X008271Y012653D03*
X008271Y012655D03*
X007790Y012699D03*
X007790Y012701D03*
X007790Y012703D03*
X007788Y012693D03*
X007788Y012691D03*
X007788Y012687D03*
X007788Y012685D03*
X007788Y012683D03*
X007788Y012679D03*
X007788Y012677D03*
X007786Y012669D03*
X007786Y012667D03*
X007786Y012663D03*
X007786Y012661D03*
X007786Y012659D03*
X007786Y012655D03*
X007786Y012653D03*
X007786Y012651D03*
X007786Y012647D03*
X007786Y012645D03*
X007786Y012643D03*
X007786Y012639D03*
X007786Y012637D03*
X007786Y012635D03*
X007786Y012631D03*
X007786Y012629D03*
X007786Y012627D03*
X007786Y012623D03*
X007786Y012621D03*
X007786Y012619D03*
X007786Y012615D03*
X007786Y012613D03*
X007786Y012611D03*
X007786Y012607D03*
X007786Y012605D03*
X007786Y012603D03*
X007786Y012599D03*
X007786Y012596D03*
X007786Y012594D03*
X007786Y012590D03*
X007786Y012588D03*
X007786Y012586D03*
X007786Y012582D03*
X007786Y012580D03*
X007786Y012578D03*
X007786Y012574D03*
X007786Y012572D03*
X007786Y012570D03*
X007786Y012566D03*
X007786Y012564D03*
X007786Y012562D03*
X007786Y012558D03*
X007786Y012556D03*
X007786Y012554D03*
X007786Y012550D03*
X007786Y012548D03*
X007786Y012546D03*
X007786Y012542D03*
X007786Y012540D03*
X007786Y012538D03*
X007786Y012534D03*
X007786Y012532D03*
X007786Y012530D03*
X007786Y012526D03*
X007786Y012524D03*
X007786Y012522D03*
X007786Y012520D03*
X007786Y012516D03*
X007786Y012514D03*
X007786Y012512D03*
X007786Y012508D03*
X007786Y012506D03*
X007786Y012504D03*
X007786Y012500D03*
X007786Y012498D03*
X007786Y012496D03*
X007786Y012492D03*
X007786Y012490D03*
X007786Y012488D03*
X007786Y012484D03*
X007786Y012482D03*
X007786Y012480D03*
X007786Y012476D03*
X007786Y012474D03*
X007786Y012472D03*
X007786Y012468D03*
X007786Y012466D03*
X007786Y012464D03*
X007786Y012460D03*
X007786Y012458D03*
X007786Y012456D03*
X007786Y012452D03*
X007786Y012450D03*
X007786Y012448D03*
X007786Y012444D03*
X007786Y012442D03*
X007786Y012440D03*
X007786Y012435D03*
X007786Y012433D03*
X007786Y012431D03*
X007786Y012427D03*
X007786Y012425D03*
X007786Y012423D03*
X007786Y012419D03*
X007786Y012417D03*
X007786Y012415D03*
X007786Y012411D03*
X007786Y012409D03*
X007786Y012407D03*
X007786Y012403D03*
X007786Y012401D03*
X007786Y012399D03*
X007786Y012395D03*
X007786Y012393D03*
X007786Y012391D03*
X007786Y012387D03*
X007786Y012385D03*
X007786Y012383D03*
X007786Y012379D03*
X007786Y012377D03*
X007786Y012375D03*
X007786Y012371D03*
X007786Y012369D03*
X007786Y012367D03*
X007786Y012363D03*
X007786Y012361D03*
X007786Y012359D03*
X007786Y012355D03*
X007786Y012353D03*
X007786Y012351D03*
X007786Y012347D03*
X007786Y012345D03*
X007786Y012343D03*
X007786Y012339D03*
X007516Y012450D03*
X006095Y012452D03*
X006095Y012450D03*
X006095Y012448D03*
X006095Y012444D03*
X006095Y012442D03*
X006095Y012440D03*
X006095Y012435D03*
X006095Y012433D03*
X006095Y012431D03*
X006095Y012427D03*
X006095Y012425D03*
X006095Y012423D03*
X006095Y012419D03*
X006095Y012417D03*
X006095Y012415D03*
X006095Y012411D03*
X006095Y012409D03*
X006095Y012407D03*
X006095Y012403D03*
X006095Y012401D03*
X006095Y012399D03*
X006095Y012395D03*
X006095Y012393D03*
X006095Y012391D03*
X006095Y012387D03*
X006095Y012385D03*
X006095Y012383D03*
X006095Y012379D03*
X006095Y012377D03*
X006095Y012375D03*
X006095Y012371D03*
X006095Y012369D03*
X006095Y012367D03*
X006095Y012363D03*
X006095Y012361D03*
X006095Y012359D03*
X006095Y012355D03*
X006095Y012353D03*
X006095Y012351D03*
X006095Y012347D03*
X006095Y012345D03*
X006095Y012343D03*
X006095Y012339D03*
X006095Y012456D03*
X006095Y012458D03*
X006095Y012460D03*
X006095Y012464D03*
X006095Y012466D03*
X006095Y012468D03*
X006095Y012472D03*
X006095Y012474D03*
X006095Y012476D03*
X006095Y012480D03*
X006095Y012482D03*
X006095Y012484D03*
X006095Y012488D03*
X006095Y012490D03*
X006095Y012492D03*
X006095Y012496D03*
X006095Y012498D03*
X006095Y012500D03*
X006095Y012504D03*
X006095Y012506D03*
X006095Y012508D03*
X006095Y012512D03*
X006095Y012514D03*
X006095Y012516D03*
X006095Y012520D03*
X006095Y012522D03*
X006095Y012524D03*
X006095Y012526D03*
X006095Y012530D03*
X006095Y012532D03*
X006095Y012534D03*
X006095Y012538D03*
X006095Y012540D03*
X006095Y012542D03*
X006095Y012546D03*
X006095Y012548D03*
X006095Y012550D03*
X006095Y012554D03*
X006095Y012556D03*
X006095Y012558D03*
X006095Y012562D03*
X006095Y012564D03*
X006095Y012566D03*
X006095Y012570D03*
X006095Y012572D03*
X006095Y012574D03*
X006095Y012578D03*
X006095Y012580D03*
X006095Y012582D03*
X006095Y012586D03*
X006095Y012588D03*
X006095Y012590D03*
X006095Y012594D03*
X006095Y012596D03*
X006095Y012599D03*
X006095Y012603D03*
X006095Y012605D03*
X006095Y012607D03*
X006095Y012611D03*
X006095Y012613D03*
X006095Y012615D03*
X006095Y012619D03*
X006095Y012621D03*
X006095Y012623D03*
X006095Y012627D03*
X006095Y012629D03*
X006095Y012631D03*
X006095Y012635D03*
X006095Y012637D03*
X006095Y012639D03*
X006095Y012643D03*
X006095Y012645D03*
X006095Y012647D03*
X006095Y012651D03*
X006095Y012653D03*
X006095Y012655D03*
X006095Y012659D03*
X006095Y012661D03*
X006095Y012663D03*
X006095Y012667D03*
X006095Y012669D03*
X006095Y012671D03*
X006095Y012675D03*
X006095Y012677D03*
X006095Y012679D03*
X006095Y012683D03*
X006095Y012685D03*
X006095Y012687D03*
X006095Y012691D03*
X006095Y012693D03*
X006095Y012695D03*
X006095Y012699D03*
X006095Y012701D03*
X006095Y012703D03*
X006095Y012707D03*
X006095Y012709D03*
X006095Y012711D03*
X005771Y012707D03*
X005771Y012703D03*
X005771Y012701D03*
X005771Y012699D03*
X005771Y012695D03*
X005771Y012693D03*
X005771Y012691D03*
X005771Y012687D03*
X005771Y012685D03*
X005771Y012683D03*
X005771Y012679D03*
X005771Y012677D03*
X005771Y012675D03*
X005771Y012671D03*
X005771Y012669D03*
X005771Y012667D03*
X005771Y012663D03*
X005771Y012661D03*
X005771Y012659D03*
X005771Y012655D03*
X005771Y012653D03*
X005771Y012651D03*
X005771Y012647D03*
X005771Y012645D03*
X005771Y012643D03*
X005771Y012639D03*
X005771Y012637D03*
X005771Y012635D03*
X005771Y012631D03*
X005771Y012629D03*
X005771Y012627D03*
X005771Y012623D03*
X005771Y012621D03*
X005771Y012619D03*
X005771Y012615D03*
X005771Y012613D03*
X005771Y012611D03*
X005771Y012607D03*
X005771Y012605D03*
X005771Y012603D03*
X005771Y012599D03*
X005771Y012596D03*
X005771Y012594D03*
X005771Y012590D03*
X005771Y012588D03*
X005771Y012586D03*
X005771Y012582D03*
X005771Y012580D03*
X005771Y012578D03*
X005771Y012574D03*
X005771Y012572D03*
X005771Y012570D03*
X005771Y012566D03*
X005771Y012564D03*
X005771Y012562D03*
X005771Y012558D03*
X005771Y012556D03*
X005771Y012554D03*
X005771Y012550D03*
X005771Y012548D03*
X005771Y012546D03*
X005771Y012542D03*
X005771Y012540D03*
X005771Y012538D03*
X005771Y012534D03*
X005771Y012532D03*
X005771Y012530D03*
X005771Y012526D03*
X005771Y012524D03*
X005771Y012522D03*
X005771Y012520D03*
X005771Y012516D03*
X005771Y012514D03*
X005771Y012512D03*
X005771Y012508D03*
X005771Y012506D03*
X005771Y012504D03*
X005771Y012500D03*
X005771Y012498D03*
X005771Y012496D03*
X005771Y012492D03*
X005771Y012490D03*
X005771Y012488D03*
X005771Y012484D03*
X005771Y012482D03*
X005771Y012480D03*
X005771Y012476D03*
X005771Y012474D03*
X005771Y012472D03*
X005771Y012468D03*
X005771Y012466D03*
X005771Y012464D03*
X005771Y012460D03*
X005771Y012458D03*
X005771Y012456D03*
X005771Y012452D03*
X005771Y012450D03*
X005771Y012448D03*
X005771Y012444D03*
X005771Y012442D03*
X005771Y012440D03*
X005771Y012435D03*
X005771Y012433D03*
X005771Y012431D03*
X005771Y012427D03*
X005771Y012425D03*
X005771Y012423D03*
X005771Y012419D03*
X005771Y012417D03*
X005771Y012415D03*
X005771Y012411D03*
X005771Y012409D03*
X005771Y012407D03*
X005771Y012403D03*
X005771Y012401D03*
X005771Y012399D03*
X005771Y012395D03*
X005771Y012393D03*
X005771Y012391D03*
X005771Y012387D03*
X005771Y012385D03*
X005771Y012383D03*
X005771Y012379D03*
X005771Y012377D03*
X005771Y012375D03*
X005771Y012371D03*
X005771Y012369D03*
X005771Y012367D03*
X005771Y012363D03*
X005771Y012361D03*
X005771Y012359D03*
X005771Y012355D03*
X005771Y012353D03*
X005771Y012351D03*
X005771Y012347D03*
X005771Y012345D03*
X005771Y012343D03*
X005771Y012339D03*
X005447Y012339D03*
X005447Y012343D03*
X005447Y012345D03*
X005447Y012347D03*
X005447Y012351D03*
X005447Y012353D03*
X005447Y012355D03*
X005447Y012359D03*
X005447Y012361D03*
X005447Y012363D03*
X005447Y012367D03*
X005447Y012369D03*
X005447Y012371D03*
X005447Y012375D03*
X005447Y012377D03*
X005447Y012379D03*
X005447Y012383D03*
X005447Y012385D03*
X005447Y012387D03*
X005447Y012391D03*
X005447Y012393D03*
X005447Y012395D03*
X005447Y012399D03*
X005447Y012401D03*
X005447Y012403D03*
X005447Y012407D03*
X005447Y012409D03*
X005447Y012411D03*
X005447Y012415D03*
X005447Y012417D03*
X005447Y012419D03*
X005447Y012423D03*
X005447Y012425D03*
X005447Y012427D03*
X005447Y012431D03*
X005447Y012433D03*
X005447Y012435D03*
X005447Y012440D03*
X005447Y012442D03*
X005447Y012444D03*
X005447Y012448D03*
X005447Y012450D03*
X005447Y012452D03*
X005447Y012456D03*
X005447Y012458D03*
X005447Y012460D03*
X005447Y012464D03*
X005447Y012466D03*
X005447Y012468D03*
X005447Y012472D03*
X005447Y012474D03*
X005447Y012476D03*
X005447Y012480D03*
X005447Y012482D03*
X005447Y012484D03*
X005447Y012488D03*
X005447Y012490D03*
X005447Y012492D03*
X005447Y012496D03*
X005447Y012498D03*
X005447Y012500D03*
X005447Y012504D03*
X005447Y012506D03*
X005447Y012508D03*
X005447Y012512D03*
X005447Y012514D03*
X005447Y012516D03*
X005447Y012520D03*
X005447Y012522D03*
X005447Y012524D03*
X005447Y012526D03*
X005447Y012530D03*
X005447Y012532D03*
X005447Y012534D03*
X005447Y012538D03*
X005447Y012540D03*
X005447Y012542D03*
X005447Y012546D03*
X005447Y012548D03*
X005447Y012550D03*
X005447Y012554D03*
X005447Y012556D03*
X005447Y012558D03*
X005447Y012562D03*
X005447Y012564D03*
X005447Y012566D03*
X005447Y012570D03*
X005447Y012572D03*
X005447Y012574D03*
X005447Y012578D03*
X005447Y012580D03*
X005447Y012582D03*
X005447Y012586D03*
X005447Y012588D03*
X005447Y012590D03*
X005447Y012594D03*
X005447Y012596D03*
X005447Y012599D03*
X005447Y012603D03*
X005447Y012605D03*
X005447Y012607D03*
X005447Y012611D03*
X005447Y012613D03*
X005447Y012615D03*
X005447Y012619D03*
X005447Y012621D03*
X005447Y012623D03*
X005447Y012627D03*
X005447Y012629D03*
X005447Y012631D03*
X005447Y012635D03*
X005447Y012637D03*
X005447Y012639D03*
X005447Y012643D03*
X005447Y012645D03*
X005447Y012647D03*
X005447Y012651D03*
X005447Y012653D03*
X005447Y012655D03*
X005447Y012659D03*
X005447Y012661D03*
X005447Y012663D03*
X005447Y012667D03*
X005447Y012669D03*
X005447Y012671D03*
X005447Y012675D03*
X005447Y012677D03*
X005447Y012679D03*
X005447Y012683D03*
X005447Y012685D03*
X005447Y012687D03*
X005447Y012691D03*
X005447Y012693D03*
X005447Y012695D03*
X005447Y012699D03*
X005447Y012701D03*
X005447Y012703D03*
X005447Y012707D03*
X005447Y012709D03*
X005447Y012711D03*
X005447Y012715D03*
X005447Y012717D03*
X005447Y012719D03*
D121*
X010101Y012721D03*
X010101Y012729D03*
X010101Y012737D03*
X010101Y012745D03*
X010101Y012753D03*
X010101Y012762D03*
X010101Y012770D03*
X010101Y012778D03*
X010101Y012786D03*
X010101Y012794D03*
X010101Y012802D03*
X010101Y012810D03*
X010101Y012818D03*
X010101Y012826D03*
X010101Y012834D03*
X010101Y012842D03*
X010101Y012850D03*
X010101Y012858D03*
X010101Y012866D03*
X010101Y012874D03*
X010101Y012882D03*
X010101Y012890D03*
X010101Y012898D03*
X010101Y012906D03*
X010101Y012915D03*
X010101Y012923D03*
X010101Y012931D03*
X010101Y012939D03*
X010101Y012947D03*
X010101Y012955D03*
X010101Y012963D03*
X010101Y012971D03*
X010101Y012979D03*
X010101Y012987D03*
X010101Y012995D03*
X010101Y013003D03*
X010101Y013011D03*
X010101Y013019D03*
X010101Y013027D03*
X010101Y013035D03*
X010101Y013043D03*
X010101Y013051D03*
X010101Y013059D03*
X010101Y013067D03*
X010101Y013076D03*
X010101Y013084D03*
X010101Y013092D03*
X010101Y013100D03*
X010101Y013108D03*
X010101Y013116D03*
X010101Y013124D03*
X010101Y013132D03*
X010101Y013140D03*
X010101Y013148D03*
X010101Y013156D03*
X010101Y013164D03*
X010101Y013172D03*
X010101Y013180D03*
X010680Y012285D03*
X010682Y012276D03*
X010684Y012268D03*
D122*
X010684Y012270D03*
X010684Y012272D03*
X010910Y012331D03*
X011149Y012599D03*
X011149Y012603D03*
X011149Y012605D03*
X011149Y012607D03*
X011149Y012611D03*
X011149Y012613D03*
X011149Y012615D03*
X011149Y012619D03*
X011149Y012621D03*
X011149Y012623D03*
X011149Y012627D03*
X011149Y012629D03*
X011149Y012631D03*
X010101Y012631D03*
X010101Y012629D03*
X010101Y012627D03*
X010101Y012623D03*
X010101Y012621D03*
X010101Y012619D03*
X010101Y012615D03*
X010101Y012613D03*
X010101Y012611D03*
X010101Y012607D03*
X010101Y012605D03*
X010101Y012603D03*
X010101Y012599D03*
X010101Y012596D03*
X010101Y012594D03*
X010101Y012590D03*
X010101Y012588D03*
X010101Y012586D03*
X010101Y012582D03*
X010101Y012580D03*
X010101Y012578D03*
X010101Y012574D03*
X010101Y012572D03*
X010101Y012570D03*
X010101Y012566D03*
X010101Y012564D03*
X010101Y012562D03*
X010101Y012558D03*
X010101Y012556D03*
X010101Y012554D03*
X010101Y012550D03*
X010101Y012548D03*
X010101Y012546D03*
X010101Y012542D03*
X010101Y012540D03*
X010101Y012538D03*
X010101Y012534D03*
X010101Y012532D03*
X010101Y012530D03*
X010101Y012526D03*
X010101Y012524D03*
X010101Y012522D03*
X010101Y012520D03*
X010101Y012516D03*
X010101Y012514D03*
X010101Y012512D03*
X010101Y012508D03*
X010101Y012506D03*
X010101Y012504D03*
X010101Y012500D03*
X010101Y012498D03*
X010101Y012496D03*
X010101Y012492D03*
X010101Y012490D03*
X010101Y012488D03*
X010101Y012484D03*
X010101Y012482D03*
X010101Y012480D03*
X010101Y012476D03*
X010101Y012474D03*
X010101Y012472D03*
X010101Y012468D03*
X010101Y012466D03*
X010101Y012464D03*
X010101Y012460D03*
X010101Y012458D03*
X010101Y012456D03*
X010101Y012452D03*
X010101Y012450D03*
X010101Y012448D03*
X010101Y012444D03*
X010101Y012442D03*
X010101Y012440D03*
X010101Y012435D03*
X010101Y012433D03*
X010101Y012431D03*
X010101Y012427D03*
X010101Y012425D03*
X010101Y012423D03*
X010101Y012419D03*
X010101Y012417D03*
X010101Y012415D03*
X010101Y012411D03*
X010101Y012409D03*
X010101Y012407D03*
X010101Y012403D03*
X010101Y012401D03*
X010101Y012399D03*
X010101Y012395D03*
X010101Y012393D03*
X010101Y012391D03*
X010101Y012387D03*
X010101Y012385D03*
X010101Y012383D03*
X010101Y012379D03*
X010101Y012377D03*
X010101Y012375D03*
X010101Y012371D03*
X010101Y012369D03*
X010101Y012367D03*
X010101Y012363D03*
X010101Y012361D03*
X010101Y012359D03*
X010101Y012355D03*
X010101Y012353D03*
X010101Y012351D03*
X010101Y012347D03*
X010101Y012345D03*
X010101Y012343D03*
X010101Y012339D03*
X010101Y012635D03*
X010101Y012637D03*
X010101Y012639D03*
X010101Y012643D03*
X010101Y012645D03*
X010101Y012647D03*
X010101Y012651D03*
X010101Y012653D03*
X010101Y012655D03*
X010101Y012659D03*
X010101Y012661D03*
X010101Y012663D03*
X010101Y012667D03*
X010101Y012669D03*
X010101Y012671D03*
X010101Y012675D03*
X010101Y012677D03*
X010101Y012679D03*
X010101Y012683D03*
X010101Y012685D03*
X010101Y012687D03*
X010101Y012691D03*
X010101Y012693D03*
X010101Y012695D03*
X010101Y012699D03*
X010101Y012701D03*
X010101Y012703D03*
X010101Y012707D03*
X010101Y012709D03*
X010101Y012711D03*
X010101Y012715D03*
X010101Y012717D03*
X010101Y012719D03*
X010101Y012725D03*
X010101Y012727D03*
X010101Y012733D03*
X010101Y012735D03*
X010101Y012741D03*
X010101Y012743D03*
X010101Y012749D03*
X010101Y012751D03*
X010101Y012758D03*
X010101Y012760D03*
X010101Y012766D03*
X010101Y012768D03*
X010101Y012774D03*
X010101Y012776D03*
X010101Y012782D03*
X010101Y012784D03*
X010101Y012790D03*
X010101Y012792D03*
X010101Y012798D03*
X010101Y012800D03*
X010101Y012806D03*
X010101Y012808D03*
X010101Y012814D03*
X010101Y012816D03*
X010101Y012822D03*
X010101Y012824D03*
X010101Y012830D03*
X010101Y012832D03*
X010101Y012838D03*
X010101Y012840D03*
X010101Y012846D03*
X010101Y012848D03*
X010101Y012854D03*
X010101Y012856D03*
X010101Y012862D03*
X010101Y012864D03*
X010101Y012870D03*
X010101Y012872D03*
X010101Y012878D03*
X010101Y012880D03*
X010101Y012886D03*
X010101Y012888D03*
X010101Y012894D03*
X010101Y012896D03*
X010101Y012902D03*
X010101Y012904D03*
X010101Y012910D03*
X010101Y012913D03*
X010101Y012917D03*
X010101Y012921D03*
X010101Y012925D03*
X010101Y012929D03*
X010101Y012933D03*
X010101Y012937D03*
X010101Y012941D03*
X010101Y012945D03*
X010101Y012949D03*
X010101Y012953D03*
X010101Y012957D03*
X010101Y012961D03*
X010101Y012965D03*
X010101Y012969D03*
X010101Y012973D03*
X010101Y012977D03*
X010101Y012981D03*
X010101Y012985D03*
X010101Y012989D03*
X010101Y012993D03*
X010101Y012997D03*
X010101Y013001D03*
X010101Y013005D03*
X010101Y013009D03*
X010101Y013013D03*
X010101Y013017D03*
X010101Y013021D03*
X010101Y013025D03*
X010101Y013029D03*
X010101Y013033D03*
X010101Y013037D03*
X010101Y013041D03*
X010101Y013045D03*
X010101Y013049D03*
X010101Y013053D03*
X010101Y013057D03*
X010101Y013061D03*
X010101Y013065D03*
X010101Y013070D03*
X010101Y013074D03*
X010101Y013078D03*
X010101Y013082D03*
X010101Y013086D03*
X010101Y013090D03*
X010101Y013094D03*
X010101Y013098D03*
X010101Y013102D03*
X010101Y013106D03*
X010101Y013110D03*
X010101Y013114D03*
X010101Y013118D03*
X010101Y013120D03*
X010101Y013126D03*
X010101Y013128D03*
X010101Y013134D03*
X010101Y013136D03*
X010101Y013142D03*
X010101Y013144D03*
X010101Y013150D03*
X010101Y013152D03*
X010101Y013158D03*
X010101Y013160D03*
X010101Y013166D03*
X010101Y013168D03*
X010101Y013174D03*
X010101Y013176D03*
X010101Y013182D03*
X008265Y012566D03*
D123*
X008024Y012927D03*
X010101Y012927D03*
X010101Y012935D03*
X010101Y012943D03*
X010101Y012951D03*
X010101Y012959D03*
X010101Y012967D03*
X010101Y012975D03*
X010101Y012983D03*
X010101Y012991D03*
X010101Y012999D03*
X010101Y013007D03*
X010101Y013015D03*
X010101Y013023D03*
X010101Y013031D03*
X010101Y013039D03*
X010101Y013047D03*
X010101Y013055D03*
X010101Y013063D03*
X010101Y013072D03*
X010101Y013080D03*
X010101Y013088D03*
X010101Y013096D03*
X010101Y013104D03*
X010101Y013112D03*
X010101Y013122D03*
X010101Y013130D03*
X010101Y013138D03*
X010101Y013146D03*
X010101Y013154D03*
X010101Y013162D03*
X010101Y013170D03*
X010101Y013178D03*
X010101Y012919D03*
X010101Y012908D03*
X010101Y012900D03*
X010101Y012892D03*
X010101Y012884D03*
X010101Y012876D03*
X010101Y012868D03*
X010101Y012860D03*
X010101Y012852D03*
X010101Y012844D03*
X010101Y012836D03*
X010101Y012828D03*
X010101Y012820D03*
X010101Y012812D03*
X010101Y012804D03*
X010101Y012796D03*
X010101Y012788D03*
X010101Y012780D03*
X010101Y012772D03*
X010101Y012764D03*
X010101Y012756D03*
X010101Y012747D03*
X010101Y012739D03*
X010101Y012731D03*
X010101Y012723D03*
X010101Y012713D03*
X010101Y012705D03*
X010101Y012697D03*
X010101Y012689D03*
X010101Y012681D03*
X010101Y012673D03*
X010101Y012665D03*
X010101Y012657D03*
X010101Y012649D03*
X010101Y012641D03*
X010101Y012633D03*
X010101Y012625D03*
X010101Y012617D03*
X010101Y012609D03*
X010101Y012601D03*
X010101Y012592D03*
X010101Y012584D03*
X010101Y012576D03*
X010101Y012568D03*
X010101Y012560D03*
X010101Y012552D03*
X010101Y012544D03*
X010101Y012536D03*
X010101Y012528D03*
X010101Y012518D03*
X010101Y012510D03*
X010101Y012502D03*
X010101Y012494D03*
X010101Y012486D03*
X010101Y012478D03*
X010101Y012470D03*
X010101Y012462D03*
X010101Y012454D03*
X010101Y012446D03*
X010101Y012437D03*
X010101Y012429D03*
X010101Y012421D03*
X010101Y012413D03*
X010101Y012405D03*
X010101Y012397D03*
X010101Y012389D03*
X010101Y012381D03*
X010101Y012373D03*
X010101Y012365D03*
X010101Y012357D03*
X010101Y012349D03*
X010101Y012341D03*
X010680Y012283D03*
X010682Y012274D03*
X011149Y012601D03*
X011149Y012609D03*
X011149Y012617D03*
X011149Y012625D03*
X011149Y012633D03*
D124*
X010673Y012325D03*
X010673Y012317D03*
X010675Y012309D03*
X010677Y012301D03*
X010677Y012293D03*
D125*
X010677Y012295D03*
X010677Y012297D03*
X010675Y012303D03*
X010675Y012305D03*
X010675Y012311D03*
X010675Y012313D03*
X010673Y012319D03*
X010673Y012321D03*
X010673Y012327D03*
X010673Y012329D03*
X010671Y012343D03*
X010671Y012345D03*
X010671Y012347D03*
X010671Y012351D03*
X010671Y012353D03*
X010671Y012355D03*
D126*
X010671Y012349D03*
X010671Y012341D03*
X010673Y012323D03*
X010673Y012315D03*
X010675Y012307D03*
X010677Y012299D03*
D127*
X010908Y012327D03*
X005940Y012929D03*
D128*
X007516Y012337D03*
X007915Y012452D03*
X008040Y012327D03*
X009227Y012327D03*
X009322Y012554D03*
X010797Y012444D03*
X010904Y012929D03*
D129*
X006544Y012929D03*
X006544Y012327D03*
D130*
X007926Y012440D03*
X010909Y012329D03*
D131*
X009226Y012329D03*
X007932Y012435D03*
D132*
X008041Y012329D03*
D133*
X006544Y012329D03*
D134*
X007517Y012331D03*
X010776Y012464D03*
D135*
X010911Y012333D03*
X009440Y012756D03*
X009007Y012510D03*
X009011Y012502D03*
X008445Y012528D03*
X008234Y012494D03*
X007517Y012437D03*
X007213Y012739D03*
X006332Y012756D03*
X006330Y012502D03*
X006074Y012796D03*
X005466Y012796D03*
D136*
X005447Y012713D03*
X005447Y012705D03*
X005447Y012697D03*
X005447Y012689D03*
X005447Y012681D03*
X005447Y012673D03*
X005447Y012665D03*
X005447Y012657D03*
X005447Y012649D03*
X005447Y012641D03*
X005447Y012633D03*
X005447Y012625D03*
X005447Y012617D03*
X005447Y012609D03*
X005447Y012601D03*
X005447Y012592D03*
X005447Y012584D03*
X005447Y012576D03*
X005447Y012568D03*
X005447Y012560D03*
X005447Y012552D03*
X005447Y012544D03*
X005447Y012536D03*
X005447Y012528D03*
X005447Y012518D03*
X005447Y012510D03*
X005447Y012502D03*
X005447Y012494D03*
X005447Y012486D03*
X005447Y012478D03*
X005447Y012470D03*
X005447Y012462D03*
X005447Y012454D03*
X005447Y012446D03*
X005447Y012437D03*
X005447Y012429D03*
X005447Y012421D03*
X005447Y012413D03*
X005447Y012405D03*
X005447Y012397D03*
X005447Y012389D03*
X005447Y012381D03*
X005447Y012373D03*
X005447Y012365D03*
X005447Y012357D03*
X005447Y012349D03*
X005447Y012341D03*
X005771Y012341D03*
X005771Y012349D03*
X005771Y012357D03*
X005771Y012365D03*
X005771Y012373D03*
X005771Y012381D03*
X005771Y012389D03*
X005771Y012397D03*
X005771Y012405D03*
X005771Y012413D03*
X005771Y012421D03*
X005771Y012429D03*
X005771Y012437D03*
X005771Y012446D03*
X005771Y012454D03*
X005771Y012462D03*
X005771Y012470D03*
X005771Y012478D03*
X005771Y012486D03*
X005771Y012494D03*
X005771Y012502D03*
X005771Y012510D03*
X005771Y012518D03*
X005771Y012528D03*
X005771Y012536D03*
X005771Y012544D03*
X005771Y012552D03*
X005771Y012560D03*
X005771Y012568D03*
X005771Y012576D03*
X005771Y012584D03*
X005771Y012592D03*
X005771Y012601D03*
X005771Y012609D03*
X005771Y012617D03*
X005771Y012625D03*
X005771Y012633D03*
X005771Y012641D03*
X005771Y012649D03*
X005771Y012657D03*
X005771Y012665D03*
X005771Y012673D03*
X005771Y012681D03*
X005771Y012689D03*
X005771Y012697D03*
X005771Y012705D03*
X006095Y012705D03*
X006095Y012697D03*
X006095Y012689D03*
X006095Y012681D03*
X006095Y012673D03*
X006095Y012665D03*
X006095Y012657D03*
X006095Y012649D03*
X006095Y012641D03*
X006095Y012633D03*
X006095Y012625D03*
X006095Y012617D03*
X006095Y012609D03*
X006095Y012601D03*
X006095Y012592D03*
X006095Y012584D03*
X006095Y012576D03*
X006095Y012568D03*
X006095Y012560D03*
X006095Y012552D03*
X006095Y012544D03*
X006095Y012536D03*
X006095Y012528D03*
X006095Y012518D03*
X006095Y012510D03*
X006095Y012502D03*
X006095Y012494D03*
X006095Y012486D03*
X006095Y012478D03*
X006095Y012470D03*
X006095Y012462D03*
X006095Y012454D03*
X006095Y012446D03*
X006095Y012437D03*
X006095Y012429D03*
X006095Y012421D03*
X006095Y012413D03*
X006095Y012405D03*
X006095Y012397D03*
X006095Y012389D03*
X006095Y012381D03*
X006095Y012373D03*
X006095Y012365D03*
X006095Y012357D03*
X006095Y012349D03*
X006095Y012341D03*
X006095Y012713D03*
X007786Y012665D03*
X007786Y012657D03*
X007786Y012649D03*
X007786Y012641D03*
X007786Y012633D03*
X007786Y012625D03*
X007786Y012617D03*
X007786Y012609D03*
X007786Y012601D03*
X007786Y012592D03*
X007786Y012584D03*
X007786Y012576D03*
X007786Y012568D03*
X007786Y012560D03*
X007786Y012552D03*
X007786Y012544D03*
X007786Y012536D03*
X007786Y012528D03*
X007786Y012518D03*
X007786Y012510D03*
X007786Y012502D03*
X007786Y012494D03*
X007786Y012486D03*
X007786Y012478D03*
X007786Y012470D03*
X007786Y012462D03*
X007786Y012454D03*
X007786Y012446D03*
X007786Y012437D03*
X007786Y012429D03*
X007786Y012421D03*
X007786Y012413D03*
X007786Y012405D03*
X007786Y012397D03*
X007786Y012389D03*
X007786Y012381D03*
X007786Y012373D03*
X007786Y012365D03*
X007786Y012357D03*
X007786Y012349D03*
X007786Y012341D03*
X007788Y012681D03*
X007788Y012689D03*
X008271Y012649D03*
X008271Y012617D03*
X008271Y012609D03*
X008271Y012601D03*
X008269Y012592D03*
X008269Y012584D03*
X008267Y012576D03*
X009839Y012502D03*
X009839Y012494D03*
X009841Y012510D03*
X009841Y012518D03*
X009841Y012528D03*
X009841Y012536D03*
X009841Y012544D03*
X009841Y012552D03*
X009841Y012560D03*
X009841Y012568D03*
X009841Y012576D03*
X009841Y012584D03*
X009841Y012592D03*
X009841Y012601D03*
X009841Y012609D03*
X009841Y012617D03*
X009841Y012625D03*
X009841Y012633D03*
X009841Y012641D03*
X009841Y012649D03*
X009841Y012657D03*
X009841Y012665D03*
X009841Y012673D03*
X009841Y012681D03*
X009841Y012689D03*
X009841Y012697D03*
X009841Y012705D03*
X009841Y012713D03*
X009841Y012723D03*
X009841Y012731D03*
X009841Y012739D03*
X009841Y012747D03*
X009841Y012756D03*
X009841Y012764D03*
X009841Y012772D03*
X009841Y012780D03*
X009841Y012788D03*
X009841Y012796D03*
X009841Y012804D03*
X009841Y012812D03*
X009841Y012919D03*
X009841Y012927D03*
X009841Y012935D03*
X009841Y012943D03*
X009841Y012951D03*
X009841Y012959D03*
X009841Y012967D03*
X009841Y012975D03*
X009841Y012983D03*
X009841Y012991D03*
X009841Y012999D03*
X009841Y013007D03*
X009841Y013015D03*
X009841Y013023D03*
X009841Y013031D03*
X009841Y013039D03*
X009841Y013047D03*
X009841Y013055D03*
X010401Y012908D03*
X010401Y012900D03*
X010401Y012892D03*
X010401Y012884D03*
X010401Y012876D03*
X010401Y012868D03*
X010401Y012860D03*
X010401Y012852D03*
X010401Y012844D03*
X010401Y012836D03*
X010401Y012828D03*
X010401Y012820D03*
X010401Y012812D03*
X010401Y012804D03*
X010401Y012796D03*
X010401Y012788D03*
X010401Y012780D03*
X010401Y012772D03*
X010401Y012764D03*
X010401Y012756D03*
X010401Y012747D03*
X010401Y012739D03*
X010401Y012731D03*
X010401Y012723D03*
X010401Y012713D03*
X010401Y012705D03*
X010401Y012697D03*
X010401Y012689D03*
X010401Y012681D03*
X010401Y012673D03*
X010401Y012665D03*
X010401Y012657D03*
X010401Y012649D03*
X010401Y012641D03*
X010401Y012633D03*
X010401Y012625D03*
X010401Y012617D03*
X010401Y012609D03*
X010401Y012601D03*
X010401Y012592D03*
X010401Y012584D03*
X010401Y012576D03*
X010401Y012568D03*
X010401Y012560D03*
X010401Y012552D03*
X010401Y012544D03*
X010401Y012536D03*
X010401Y012528D03*
X010401Y012518D03*
X010401Y012510D03*
X010401Y012502D03*
X010401Y012494D03*
X010401Y012486D03*
X010401Y012478D03*
X010401Y012470D03*
X010401Y012462D03*
X010401Y012454D03*
X010401Y012446D03*
X010401Y012437D03*
X010401Y012429D03*
X010401Y012421D03*
X010401Y012413D03*
X010401Y012405D03*
X010401Y012397D03*
X010401Y012389D03*
X010401Y012381D03*
X010401Y012373D03*
X010401Y012365D03*
X010401Y012357D03*
X010401Y012349D03*
X010401Y012341D03*
X010670Y012357D03*
X010670Y012365D03*
X010670Y012373D03*
X010670Y012381D03*
X010670Y012389D03*
X010670Y012397D03*
X010670Y012405D03*
X010670Y012413D03*
X010670Y012421D03*
X010670Y012429D03*
X010670Y012437D03*
X010670Y012446D03*
X010670Y012454D03*
X010670Y012462D03*
X010670Y012470D03*
X010670Y012478D03*
X010670Y012486D03*
X010670Y012494D03*
X010670Y012502D03*
X010670Y012510D03*
X010670Y012518D03*
X010670Y012528D03*
X010670Y012536D03*
X010670Y012544D03*
X010670Y012552D03*
X010670Y012560D03*
X010670Y012568D03*
X010670Y012576D03*
X010670Y012584D03*
X010670Y012592D03*
X010670Y012601D03*
X010670Y012609D03*
X010670Y012617D03*
X010670Y012625D03*
X010672Y012333D03*
X011145Y012576D03*
X011147Y012584D03*
X011147Y012592D03*
X011147Y012649D03*
D137*
X010726Y012788D03*
X009226Y012333D03*
X008210Y012462D03*
X008218Y012788D03*
X007189Y012772D03*
X007191Y012486D03*
D138*
X007517Y012429D03*
X008041Y012333D03*
X008451Y012536D03*
X008230Y012772D03*
X009423Y012478D03*
X009816Y012446D03*
X006740Y012478D03*
X006346Y012478D03*
X006348Y012780D03*
D139*
X007516Y012333D03*
X009328Y012544D03*
D140*
X009417Y012470D03*
X008785Y012723D03*
X008224Y012780D03*
X006543Y012333D03*
X006062Y012812D03*
X005480Y012812D03*
D141*
X008216Y012790D03*
X008457Y012542D03*
X009037Y012784D03*
X010911Y012335D03*
X011086Y012460D03*
D142*
X010911Y012337D03*
X010746Y012808D03*
X010905Y012921D03*
X009393Y012808D03*
X009295Y012596D03*
X009393Y012448D03*
X009226Y012335D03*
X008467Y012550D03*
X007169Y012790D03*
D143*
X006721Y012798D03*
X006719Y012800D03*
X006721Y012458D03*
X006719Y012456D03*
X006367Y012456D03*
X006365Y012458D03*
X006365Y012798D03*
X006367Y012800D03*
X005771Y012782D03*
X007840Y012798D03*
X008203Y012456D03*
X008042Y012335D03*
X008778Y012717D03*
X008778Y012814D03*
X009032Y012768D03*
X009050Y012452D03*
X009807Y012442D03*
X010735Y012798D03*
X011075Y012806D03*
D144*
X007516Y012335D03*
D145*
X007177Y012472D03*
X006543Y012335D03*
X006543Y012921D03*
X008775Y012715D03*
X009033Y012766D03*
D146*
X009291Y012603D03*
X009226Y012337D03*
X008479Y012558D03*
X007866Y012816D03*
D147*
X007159Y012458D03*
X006543Y012337D03*
X009381Y012440D03*
X009381Y012816D03*
X010758Y012816D03*
D148*
X010911Y012339D03*
X008763Y012707D03*
X008475Y012556D03*
X008182Y012440D03*
X007862Y012814D03*
D149*
X008024Y012921D03*
X008185Y012816D03*
X009038Y012758D03*
X009664Y012339D03*
D150*
X009226Y012339D03*
X008753Y012701D03*
X010905Y012917D03*
D151*
X008695Y012339D03*
X008572Y012910D03*
X007066Y012440D03*
X005939Y012856D03*
D152*
X005771Y012798D03*
X007156Y012800D03*
X007156Y012456D03*
X008042Y012339D03*
D153*
X007516Y012339D03*
D154*
X007516Y012371D03*
X007516Y012431D03*
X007516Y012433D03*
X007202Y012500D03*
X006969Y012339D03*
X006745Y012484D03*
X006743Y012482D03*
X006741Y012480D03*
X006747Y012488D03*
X006747Y012768D03*
X006743Y012774D03*
X006741Y012776D03*
X006969Y012917D03*
X006345Y012776D03*
X006343Y012774D03*
X006339Y012768D03*
X006067Y012806D03*
X005940Y012921D03*
X005771Y012766D03*
X005602Y012921D03*
X006339Y012488D03*
X006341Y012484D03*
X006343Y012482D03*
X006345Y012480D03*
X008225Y012480D03*
X008233Y012768D03*
X009022Y012484D03*
X009024Y012482D03*
X009024Y012480D03*
X009426Y012482D03*
X009428Y012484D03*
X009426Y012774D03*
X010715Y012774D03*
X011097Y012784D03*
X011101Y012476D03*
X011099Y012474D03*
D155*
X011047Y012433D03*
X011043Y012824D03*
X010769Y012822D03*
X009368Y012822D03*
X009368Y012433D03*
X007146Y012450D03*
X006685Y012433D03*
X006544Y012339D03*
X006401Y012433D03*
X006401Y012822D03*
X006544Y012917D03*
X006685Y012822D03*
D156*
X010912Y012341D03*
D157*
X009670Y012341D03*
X005771Y012804D03*
D158*
X008497Y012568D03*
X009177Y012673D03*
X009191Y012665D03*
X009225Y012341D03*
D159*
X008043Y012341D03*
X006994Y012349D03*
D160*
X007516Y012341D03*
X009318Y012560D03*
D161*
X009409Y012462D03*
X009407Y012796D03*
X009047Y012454D03*
X008459Y012544D03*
X008210Y012796D03*
X007839Y012796D03*
X007183Y012478D03*
X006976Y012341D03*
X006362Y012796D03*
X005770Y012780D03*
X010734Y012796D03*
D162*
X006544Y012341D03*
D163*
X005771Y012808D03*
X008166Y012824D03*
X008493Y012566D03*
X009284Y012613D03*
X010912Y012343D03*
D164*
X009675Y012343D03*
D165*
X009225Y012343D03*
X009225Y012913D03*
X008044Y012347D03*
X007009Y012359D03*
X007009Y012896D03*
D166*
X008585Y012902D03*
X008682Y012343D03*
X009225Y012379D03*
X010942Y012411D03*
D167*
X008043Y012343D03*
X007000Y012353D03*
X007000Y012902D03*
D168*
X007516Y012343D03*
X010401Y012997D03*
X010401Y013098D03*
D169*
X006982Y012913D03*
X006982Y012343D03*
X006046Y012824D03*
X005497Y012824D03*
D170*
X006544Y012913D03*
X006544Y012343D03*
X008738Y012693D03*
D171*
X010911Y012345D03*
D172*
X009679Y012345D03*
D173*
X009226Y012345D03*
D174*
X008678Y012345D03*
X010946Y012419D03*
D175*
X008742Y012695D03*
X008501Y012570D03*
X008044Y012345D03*
X007130Y012444D03*
D176*
X007516Y012460D03*
X007516Y012345D03*
D177*
X007161Y012460D03*
X006986Y012345D03*
X006700Y012442D03*
X006386Y012442D03*
X006386Y012814D03*
X006700Y012814D03*
X006986Y012910D03*
X008473Y012554D03*
X009037Y012760D03*
X009067Y012440D03*
D178*
X009687Y012351D03*
X006543Y012345D03*
X006543Y012910D03*
D179*
X005939Y012902D03*
X010911Y012347D03*
D180*
X009682Y012347D03*
D181*
X009225Y012347D03*
D182*
X009226Y012870D03*
X008675Y012347D03*
X008067Y012419D03*
X006543Y012385D03*
X006543Y012870D03*
X010949Y012427D03*
D183*
X010811Y012433D03*
X007516Y012458D03*
X007516Y012347D03*
D184*
X006991Y012347D03*
X008175Y012435D03*
X009074Y012435D03*
X011051Y012435D03*
X005771Y012800D03*
X005602Y012913D03*
D185*
X006543Y012347D03*
X008045Y012351D03*
D186*
X007016Y012365D03*
X010911Y012349D03*
D187*
X009685Y012349D03*
D188*
X009226Y012349D03*
X008713Y012681D03*
X007024Y012373D03*
D189*
X008672Y012349D03*
X009227Y012868D03*
D190*
X008512Y012576D03*
X008045Y012349D03*
X007014Y012892D03*
D191*
X007517Y012349D03*
X010903Y012927D03*
D192*
X006543Y012349D03*
D193*
X007022Y012371D03*
X005939Y012896D03*
X008717Y012683D03*
X009697Y012361D03*
X010911Y012351D03*
D194*
X009704Y012371D03*
X009225Y012351D03*
X009225Y012904D03*
X007029Y012379D03*
X005771Y012822D03*
D195*
X008669Y012351D03*
X010907Y012864D03*
D196*
X010816Y012431D03*
X008985Y012596D03*
X007517Y012351D03*
X005601Y012925D03*
D197*
X006997Y012904D03*
X006997Y012351D03*
X008173Y012822D03*
X009225Y012917D03*
D198*
X008708Y012679D03*
X008533Y012586D03*
X009702Y012367D03*
X010906Y012904D03*
X007027Y012878D03*
X006544Y012904D03*
X006544Y012351D03*
X007027Y012377D03*
D199*
X010911Y012353D03*
D200*
X009690Y012353D03*
D201*
X009708Y012377D03*
X009225Y012353D03*
X009225Y012902D03*
X005940Y012888D03*
X005602Y012888D03*
D202*
X008666Y012353D03*
D203*
X008045Y012353D03*
D204*
X008538Y012588D03*
X010911Y012355D03*
D205*
X009692Y012355D03*
X008517Y012578D03*
X008024Y012913D03*
D206*
X009226Y012355D03*
D207*
X008045Y012355D03*
X007026Y012375D03*
X007026Y012880D03*
D208*
X006543Y012355D03*
X008045Y012361D03*
D209*
X010911Y012357D03*
D210*
X009694Y012357D03*
D211*
X009225Y012357D03*
X008680Y012665D03*
X008561Y012601D03*
X008046Y012365D03*
X007043Y012397D03*
D212*
X007029Y012876D03*
X008046Y012357D03*
D213*
X007006Y012357D03*
D214*
X006543Y012357D03*
D215*
X007038Y012864D03*
X008023Y012904D03*
X009713Y012387D03*
X010911Y012359D03*
D216*
X009696Y012359D03*
X005602Y012896D03*
D217*
X007047Y012403D03*
X008569Y012605D03*
X008672Y012661D03*
X009225Y012359D03*
X010906Y012894D03*
D218*
X008608Y012878D03*
X008659Y012359D03*
D219*
X008046Y012359D03*
D220*
X007044Y012399D03*
X006543Y012359D03*
X006543Y012896D03*
X007044Y012856D03*
X009719Y012403D03*
X009719Y012401D03*
D221*
X010911Y012361D03*
D222*
X009225Y012361D03*
D223*
X008509Y012574D03*
X007011Y012361D03*
X007011Y012894D03*
X005771Y012814D03*
D224*
X006543Y012894D03*
X006543Y012361D03*
D225*
X008552Y012917D03*
X009226Y012896D03*
X010911Y012363D03*
D226*
X009699Y012363D03*
X005939Y012894D03*
D227*
X009225Y012363D03*
D228*
X009225Y012399D03*
X009227Y012854D03*
X008611Y012872D03*
X008024Y012862D03*
X008656Y012363D03*
D229*
X008688Y012669D03*
X008046Y012363D03*
X007039Y012391D03*
D230*
X007217Y012524D03*
X007517Y012363D03*
X007809Y012758D03*
X008248Y012741D03*
X008443Y012524D03*
X008795Y012735D03*
X008795Y012800D03*
X006763Y012743D03*
X006763Y012741D03*
X006765Y012516D03*
X006763Y012514D03*
X006763Y012512D03*
X006324Y012514D03*
X006324Y012741D03*
X011118Y012751D03*
X011116Y012496D03*
D231*
X007014Y012363D03*
X005770Y012816D03*
D232*
X006543Y012363D03*
X008047Y012371D03*
X008580Y012611D03*
X008661Y012655D03*
X010915Y012369D03*
D233*
X010912Y012365D03*
D234*
X009700Y012365D03*
X008529Y012584D03*
D235*
X009225Y012365D03*
X007057Y012421D03*
D236*
X007214Y012518D03*
X007516Y012365D03*
X007812Y012764D03*
X008245Y012747D03*
X008792Y012804D03*
X009004Y012518D03*
X009441Y012502D03*
X009445Y012510D03*
X009445Y012747D03*
X010699Y012747D03*
X006760Y012747D03*
X006762Y012510D03*
X006327Y012747D03*
D237*
X006544Y012365D03*
X005602Y012868D03*
X008046Y012373D03*
X008591Y012617D03*
X010918Y012373D03*
D238*
X010913Y012367D03*
X009725Y012423D03*
X009226Y012894D03*
X007050Y012846D03*
X007050Y012409D03*
D239*
X008046Y012377D03*
X009225Y012367D03*
X009736Y012822D03*
X009736Y012824D03*
X009736Y012830D03*
X009736Y012832D03*
X009736Y012838D03*
X009736Y012840D03*
X009736Y012846D03*
X009736Y012848D03*
X009736Y012854D03*
X009736Y012856D03*
X009736Y012862D03*
X009736Y012864D03*
X009736Y012870D03*
X009736Y012872D03*
X009736Y012878D03*
X009736Y012880D03*
X009736Y012886D03*
X009736Y012888D03*
X009736Y012894D03*
X009736Y012896D03*
X009736Y012902D03*
X009736Y012904D03*
X009736Y012910D03*
X009736Y012913D03*
X009736Y012917D03*
D240*
X010907Y012848D03*
X008653Y012367D03*
D241*
X008613Y012629D03*
X008623Y012635D03*
X008627Y012637D03*
X008631Y012639D03*
X007059Y012830D03*
X007059Y012425D03*
X006544Y012367D03*
D242*
X009703Y012369D03*
D243*
X009225Y012369D03*
X010928Y012387D03*
X007065Y012816D03*
X005602Y012856D03*
D244*
X008616Y012862D03*
X008651Y012369D03*
X010907Y012846D03*
D245*
X008046Y012369D03*
D246*
X007020Y012369D03*
X007020Y012886D03*
D247*
X007062Y012824D03*
X007062Y012431D03*
X006543Y012369D03*
X006543Y012886D03*
D248*
X008588Y012615D03*
X008657Y012653D03*
X010917Y012371D03*
D249*
X009225Y012371D03*
X008048Y012383D03*
D250*
X008650Y012371D03*
X009227Y012848D03*
D251*
X006544Y012371D03*
D252*
X009706Y012373D03*
D253*
X009225Y012373D03*
X010934Y012397D03*
D254*
X008648Y012373D03*
D255*
X009020Y012486D03*
X009026Y012478D03*
X009302Y012584D03*
X009428Y012772D03*
X010713Y012772D03*
X007824Y012780D03*
X007516Y012373D03*
X007204Y012502D03*
X007202Y012756D03*
X006745Y012772D03*
X006341Y012772D03*
X006069Y012804D03*
X005771Y012764D03*
X006341Y012486D03*
D256*
X006543Y012373D03*
D257*
X009707Y012375D03*
D258*
X009225Y012375D03*
X008024Y012886D03*
X010906Y012878D03*
X010936Y012401D03*
D259*
X008647Y012375D03*
X008620Y012854D03*
D260*
X008227Y012776D03*
X008219Y012472D03*
X008452Y012538D03*
X007516Y012427D03*
X007516Y012425D03*
X007516Y012379D03*
X007516Y012377D03*
X007516Y012375D03*
X007196Y012492D03*
X009420Y012474D03*
X009422Y012476D03*
X009420Y012782D03*
X010721Y012782D03*
X011091Y012790D03*
D261*
X010935Y012399D03*
X009226Y012880D03*
X008053Y012391D03*
X006543Y012375D03*
X006543Y012880D03*
D262*
X006543Y012888D03*
X007058Y012832D03*
X007058Y012423D03*
X008610Y012627D03*
X008638Y012643D03*
X010921Y012377D03*
D263*
X009225Y012377D03*
D264*
X008646Y012377D03*
X008024Y012854D03*
D265*
X006543Y012878D03*
X006543Y012377D03*
D266*
X010923Y012379D03*
D267*
X009709Y012379D03*
X007034Y012385D03*
X007034Y012870D03*
D268*
X008644Y012379D03*
D269*
X008046Y012379D03*
D270*
X010924Y012381D03*
D271*
X009710Y012381D03*
X008696Y012673D03*
X007035Y012868D03*
D272*
X008064Y012413D03*
X009225Y012381D03*
D273*
X008643Y012381D03*
X006543Y012413D03*
D274*
X006544Y012884D03*
X008046Y012381D03*
D275*
X007516Y012381D03*
X007516Y012421D03*
X006733Y012470D03*
X006353Y012470D03*
X006355Y012788D03*
X009030Y012772D03*
X009034Y012780D03*
X009414Y012788D03*
D276*
X007031Y012381D03*
D277*
X010925Y012383D03*
D278*
X009711Y012383D03*
X007036Y012387D03*
X005939Y012886D03*
D279*
X008066Y012417D03*
X009225Y012383D03*
X010948Y012425D03*
D280*
X009227Y012840D03*
X008625Y012838D03*
X008641Y012383D03*
D281*
X008221Y012784D03*
X007832Y012790D03*
X007516Y012419D03*
X007516Y012417D03*
X007516Y012385D03*
X007516Y012383D03*
X007192Y012488D03*
X007192Y012768D03*
X006355Y012468D03*
X006061Y012814D03*
X005771Y012776D03*
X005771Y012774D03*
X005481Y012814D03*
X009300Y012588D03*
X009414Y012468D03*
D282*
X006544Y012383D03*
X006544Y012872D03*
D283*
X007064Y012435D03*
X009226Y012886D03*
X010927Y012385D03*
D284*
X009712Y012385D03*
D285*
X009224Y012385D03*
X008069Y012425D03*
X006543Y012387D03*
D286*
X006543Y012415D03*
X006543Y012840D03*
X008626Y012832D03*
X008640Y012385D03*
D287*
X008049Y012385D03*
X010931Y012391D03*
D288*
X009225Y012387D03*
D289*
X009227Y012838D03*
X008627Y012830D03*
X008639Y012387D03*
X008024Y012848D03*
D290*
X008050Y012387D03*
X010932Y012393D03*
D291*
X011084Y012798D03*
X011082Y012800D03*
X010728Y012790D03*
X009413Y012790D03*
X009411Y012792D03*
X009413Y012466D03*
X009411Y012464D03*
X009043Y012458D03*
X009041Y012460D03*
X008459Y012444D03*
X008212Y012464D03*
X007835Y012792D03*
X007517Y012415D03*
X007517Y012387D03*
X007189Y012484D03*
X007187Y012774D03*
X006058Y012816D03*
X005484Y012816D03*
D292*
X009226Y012884D03*
X010929Y012389D03*
D293*
X009714Y012389D03*
D294*
X009225Y012389D03*
D295*
X008638Y012389D03*
D296*
X008051Y012389D03*
X008576Y012908D03*
D297*
X009042Y012788D03*
X007516Y012413D03*
X007516Y012405D03*
X007516Y012397D03*
X007516Y012389D03*
X006725Y012462D03*
X006723Y012796D03*
X006361Y012462D03*
X005602Y012919D03*
D298*
X007037Y012389D03*
D299*
X006544Y012389D03*
X008597Y012892D03*
D300*
X009715Y012391D03*
D301*
X008637Y012391D03*
D302*
X006543Y012391D03*
X006543Y012864D03*
D303*
X007041Y012395D03*
X008557Y012599D03*
X008684Y012667D03*
X009716Y012395D03*
X009716Y012393D03*
D304*
X009224Y012393D03*
X006543Y012395D03*
D305*
X008636Y012393D03*
X010907Y012832D03*
D306*
X008054Y012393D03*
D307*
X007040Y012393D03*
X007040Y012862D03*
D308*
X010933Y012395D03*
D309*
X010908Y012830D03*
X008635Y012395D03*
D310*
X008055Y012395D03*
D311*
X009717Y012397D03*
D312*
X009225Y012397D03*
X008609Y012876D03*
D313*
X008024Y012844D03*
X008635Y012397D03*
D314*
X008056Y012397D03*
D315*
X006543Y012397D03*
D316*
X009718Y012399D03*
X010906Y012896D03*
D317*
X008634Y012399D03*
D318*
X009225Y012401D03*
D319*
X009227Y012832D03*
X008633Y012401D03*
D320*
X008058Y012401D03*
X010940Y012407D03*
D321*
X008612Y012870D03*
X006543Y012854D03*
X006543Y012401D03*
D322*
X010938Y012403D03*
D323*
X009224Y012403D03*
D324*
X008632Y012403D03*
X006543Y012423D03*
X006543Y012832D03*
D325*
X008059Y012403D03*
X010941Y012409D03*
D326*
X006543Y012403D03*
D327*
X008023Y012884D03*
X010907Y012876D03*
X010939Y012405D03*
D328*
X009720Y012405D03*
D329*
X009224Y012405D03*
X010907Y012844D03*
D330*
X009224Y012421D03*
X008632Y012405D03*
D331*
X008060Y012405D03*
D332*
X007048Y012405D03*
D333*
X006543Y012405D03*
D334*
X009721Y012407D03*
X009721Y012409D03*
D335*
X009224Y012407D03*
X006543Y012409D03*
X006543Y012846D03*
D336*
X008024Y012840D03*
X008631Y012407D03*
X009225Y012423D03*
X009227Y012830D03*
D337*
X008061Y012407D03*
D338*
X008573Y012607D03*
X008668Y012659D03*
X009724Y012419D03*
X009724Y012417D03*
X007049Y012407D03*
X007049Y012848D03*
D339*
X006543Y012848D03*
X006543Y012407D03*
D340*
X006543Y012411D03*
X009224Y012409D03*
D341*
X008630Y012409D03*
X008630Y012411D03*
D342*
X008062Y012409D03*
D343*
X009722Y012411D03*
D344*
X009224Y012411D03*
X008624Y012840D03*
D345*
X008063Y012411D03*
D346*
X007051Y012411D03*
X005602Y012872D03*
X009726Y012427D03*
X009726Y012425D03*
D347*
X009723Y012413D03*
D348*
X009224Y012413D03*
X010907Y012836D03*
D349*
X009227Y012828D03*
X008629Y012413D03*
D350*
X009728Y012437D03*
X007053Y012413D03*
D351*
X010906Y012872D03*
X010944Y012415D03*
D352*
X009723Y012415D03*
D353*
X009224Y012415D03*
X008630Y012816D03*
X008628Y012822D03*
X008628Y012824D03*
X006543Y012838D03*
X006543Y012417D03*
D354*
X008024Y012838D03*
X008629Y012415D03*
D355*
X008065Y012415D03*
X009226Y012872D03*
X010947Y012423D03*
D356*
X008653Y012651D03*
X007054Y012415D03*
X005939Y012870D03*
D357*
X006543Y012419D03*
X009224Y012417D03*
D358*
X008628Y012417D03*
D359*
X008024Y012896D03*
X007055Y012838D03*
X007055Y012417D03*
D360*
X009224Y012419D03*
D361*
X009225Y012427D03*
X008627Y012419D03*
D362*
X008596Y012619D03*
X007056Y012419D03*
D363*
X010946Y012421D03*
D364*
X009725Y012421D03*
D365*
X008627Y012421D03*
D366*
X008068Y012421D03*
D367*
X006543Y012421D03*
D368*
X008626Y012423D03*
X008626Y012425D03*
X008626Y012427D03*
D369*
X008593Y012896D03*
X008068Y012423D03*
D370*
X009225Y012425D03*
D371*
X006543Y012427D03*
X006543Y012425D03*
X006543Y012830D03*
D372*
X008070Y012427D03*
D373*
X007060Y012427D03*
X009226Y012888D03*
X009737Y012816D03*
D374*
X011033Y012429D03*
X007130Y012812D03*
D375*
X009727Y012429D03*
D376*
X009357Y012429D03*
D377*
X009093Y012429D03*
X008157Y012429D03*
X006672Y012429D03*
X006414Y012429D03*
D378*
X008625Y012429D03*
D379*
X008797Y012739D03*
X008248Y012739D03*
X007944Y012429D03*
X007217Y012731D03*
X006765Y012739D03*
X006326Y012510D03*
X011116Y012756D03*
D380*
X009736Y012820D03*
X009736Y012828D03*
X009736Y012836D03*
X009736Y012844D03*
X009736Y012852D03*
X009736Y012860D03*
X009736Y012868D03*
X009736Y012876D03*
X009736Y012884D03*
X009736Y012892D03*
X009736Y012900D03*
X009736Y012908D03*
X007061Y012429D03*
D381*
X006679Y012431D03*
X006407Y012431D03*
X006407Y012824D03*
X006679Y012824D03*
X007879Y012822D03*
X008164Y012431D03*
X008750Y012699D03*
X009286Y012611D03*
X009364Y012431D03*
X009364Y012824D03*
X011041Y012431D03*
D382*
X009727Y012431D03*
X005939Y012872D03*
D383*
X008490Y012564D03*
X009043Y012749D03*
X009085Y012431D03*
D384*
X008625Y012431D03*
X008024Y012832D03*
D385*
X008585Y012613D03*
X009728Y012435D03*
X009728Y012433D03*
X009730Y012440D03*
X007053Y012840D03*
X005602Y012870D03*
D386*
X007145Y012806D03*
X008170Y012433D03*
X008757Y012703D03*
X009079Y012433D03*
X009289Y012607D03*
D387*
X008624Y012435D03*
X008624Y012433D03*
D388*
X007935Y012433D03*
X010401Y013086D03*
D389*
X007063Y012822D03*
X007063Y012433D03*
D390*
X006690Y012435D03*
X006396Y012435D03*
X009289Y012605D03*
X009373Y012435D03*
X011048Y012822D03*
D391*
X011053Y012820D03*
X011055Y012437D03*
D392*
X010805Y012437D03*
X007516Y012462D03*
D393*
X006990Y012908D03*
X006392Y012437D03*
X009377Y012437D03*
D394*
X009071Y012437D03*
D395*
X008624Y012437D03*
D396*
X008179Y012437D03*
X010904Y012919D03*
D397*
X007929Y012437D03*
D398*
X007065Y012437D03*
X010906Y012884D03*
D399*
X006694Y012437D03*
D400*
X010802Y012440D03*
D401*
X008623Y012440D03*
X008024Y012830D03*
D402*
X011063Y012442D03*
D403*
X010799Y012442D03*
X007516Y012466D03*
D404*
X009385Y012442D03*
X009385Y012814D03*
D405*
X009387Y012444D03*
X009063Y012442D03*
X008769Y012711D03*
X008188Y012444D03*
X007167Y012464D03*
X007167Y012792D03*
X006704Y012444D03*
X006382Y012444D03*
X011060Y012816D03*
D406*
X010738Y012800D03*
X011076Y012452D03*
X009403Y012456D03*
X009403Y012800D03*
X009051Y012798D03*
X008461Y012546D03*
X008463Y012442D03*
X008208Y012798D03*
X008206Y012800D03*
X007179Y012782D03*
X007179Y012474D03*
D407*
X008185Y012442D03*
X009070Y012814D03*
X009294Y012599D03*
D408*
X009317Y012562D03*
X007924Y012442D03*
D409*
X008213Y012466D03*
X008215Y012468D03*
X008454Y012540D03*
X009038Y012464D03*
X009036Y012782D03*
X009813Y012444D03*
X006731Y012468D03*
X006729Y012466D03*
X006729Y012790D03*
X006357Y012790D03*
X006357Y012466D03*
D410*
X007922Y012444D03*
D411*
X009035Y012764D03*
X011068Y012446D03*
D412*
X010795Y012446D03*
X007913Y012454D03*
D413*
X006707Y012446D03*
X006379Y012446D03*
X009390Y012446D03*
D414*
X009058Y012446D03*
X008201Y012804D03*
X011067Y012812D03*
D415*
X008783Y012812D03*
X008455Y012446D03*
X007831Y012788D03*
D416*
X008191Y012446D03*
D417*
X007920Y012446D03*
D418*
X007136Y012446D03*
D419*
X009009Y012603D03*
X009325Y012550D03*
X010792Y012448D03*
D420*
X010401Y013033D03*
X010401Y013037D03*
X010401Y013053D03*
X010401Y013057D03*
X010401Y013061D03*
X009819Y012448D03*
X009433Y012490D03*
X009304Y012582D03*
X009433Y012766D03*
X009014Y012498D03*
X009014Y012496D03*
X008448Y012532D03*
X008239Y012758D03*
X005771Y012760D03*
D421*
X006050Y012822D03*
X006374Y012806D03*
X006712Y012806D03*
X006714Y012452D03*
X006712Y012450D03*
X006374Y012450D03*
X006372Y012452D03*
X008196Y012450D03*
X009055Y012448D03*
X011074Y012450D03*
D422*
X009060Y012806D03*
X008193Y012448D03*
X007850Y012806D03*
X007172Y012468D03*
D423*
X007918Y012448D03*
D424*
X007141Y012448D03*
X007141Y012808D03*
X010774Y012824D03*
D425*
X011110Y012488D03*
X009822Y012450D03*
X008449Y012452D03*
X006755Y012498D03*
X006755Y012500D03*
X006753Y012496D03*
X006755Y012758D03*
X006753Y012760D03*
X006334Y012760D03*
X006334Y012496D03*
X005770Y012758D03*
D426*
X008199Y012452D03*
X009052Y012450D03*
D427*
X009321Y012556D03*
X009226Y012929D03*
X007916Y012450D03*
D428*
X007906Y012464D03*
X010788Y012452D03*
D429*
X011111Y012490D03*
X011113Y012492D03*
X011113Y012760D03*
X011109Y012766D03*
X010401Y013025D03*
X010401Y013029D03*
X010401Y013065D03*
X009823Y012452D03*
X009225Y012925D03*
X009000Y012526D03*
X008446Y012456D03*
X008239Y012500D03*
X008237Y012498D03*
X006758Y012504D03*
X006758Y012751D03*
X006077Y012792D03*
X005771Y012751D03*
X005465Y012792D03*
X005463Y012790D03*
D430*
X007516Y012452D03*
X009310Y012572D03*
D431*
X007150Y012452D03*
D432*
X007180Y012780D03*
X008201Y012454D03*
X005489Y012820D03*
X011077Y012804D03*
X011079Y012454D03*
D433*
X010786Y012454D03*
D434*
X009400Y012454D03*
X009398Y012804D03*
X006717Y012454D03*
X006369Y012454D03*
D435*
X006757Y012502D03*
X006755Y012756D03*
X008240Y012756D03*
X008447Y012454D03*
X010402Y013063D03*
D436*
X009225Y012927D03*
X007516Y012454D03*
D437*
X007152Y012454D03*
X008760Y012705D03*
X009080Y012820D03*
X009225Y012919D03*
D438*
X009405Y012798D03*
X009299Y012590D03*
X009407Y012460D03*
X009405Y012458D03*
X009045Y012456D03*
X009043Y012790D03*
X009045Y012792D03*
X008781Y012719D03*
X008214Y012792D03*
X008206Y012458D03*
X007185Y012480D03*
X007185Y012776D03*
X006724Y012460D03*
X006362Y012460D03*
X011082Y012456D03*
D439*
X010784Y012456D03*
X009017Y012605D03*
D440*
X007912Y012456D03*
D441*
X007516Y012456D03*
D442*
X007900Y012474D03*
X009329Y012542D03*
X010782Y012458D03*
D443*
X011120Y012504D03*
X009828Y012458D03*
X009458Y012538D03*
X009458Y012540D03*
X009456Y012534D03*
X009456Y012532D03*
X009458Y012715D03*
X009458Y012717D03*
X009458Y012719D03*
X008989Y012558D03*
X008989Y012556D03*
X008991Y012550D03*
X008441Y012520D03*
X008439Y012516D03*
X008439Y012514D03*
X008441Y012466D03*
X008246Y012514D03*
X007232Y012558D03*
X007230Y012550D03*
X007230Y012703D03*
X006312Y012715D03*
X006310Y012707D03*
X006310Y012548D03*
X006312Y012542D03*
X006312Y012540D03*
X006086Y012774D03*
X006084Y012776D03*
X005456Y012774D03*
D444*
X005601Y012929D03*
X007910Y012458D03*
D445*
X009331Y012540D03*
X010780Y012460D03*
D446*
X010682Y012707D03*
X010682Y012709D03*
X010682Y012711D03*
X009829Y012460D03*
X008440Y012468D03*
X008440Y012472D03*
X007231Y012554D03*
X007231Y012556D03*
X007231Y012699D03*
X007231Y012701D03*
X006311Y012709D03*
X006311Y012711D03*
X006311Y012546D03*
X005455Y012768D03*
D447*
X007909Y012460D03*
D448*
X009039Y012462D03*
X011088Y012462D03*
D449*
X010778Y012462D03*
D450*
X010688Y012723D03*
X011124Y012739D03*
X011124Y012510D03*
X009460Y012544D03*
X009454Y012528D03*
X009462Y012705D03*
X008800Y012788D03*
X008443Y012462D03*
X008256Y012723D03*
X007225Y012713D03*
X006775Y012713D03*
X006773Y012536D03*
X006314Y012536D03*
X006316Y012723D03*
D451*
X007516Y012470D03*
X007907Y012462D03*
D452*
X007810Y012760D03*
X008247Y012516D03*
X008245Y012512D03*
X008442Y012522D03*
X008442Y012464D03*
X008796Y012798D03*
X008990Y012554D03*
X008992Y012548D03*
X008992Y012546D03*
X009455Y012530D03*
X009455Y012725D03*
X011119Y012749D03*
X011121Y012743D03*
X011119Y012500D03*
X011117Y012498D03*
X006083Y012782D03*
D453*
X007516Y012464D03*
X010401Y012993D03*
D454*
X006359Y012792D03*
X006359Y012464D03*
D455*
X006352Y012472D03*
X006350Y012474D03*
X006350Y012782D03*
X006352Y012784D03*
X006734Y012784D03*
X006736Y012782D03*
X006736Y012474D03*
X006734Y012472D03*
X008222Y012782D03*
X009029Y012774D03*
X009031Y012776D03*
X009033Y012468D03*
X009419Y012472D03*
X009419Y012784D03*
X010722Y012784D03*
X011092Y012466D03*
D456*
X010774Y012466D03*
X007892Y012488D03*
D457*
X007905Y012466D03*
D458*
X009030Y012472D03*
X009302Y012586D03*
X011093Y012468D03*
D459*
X010772Y012468D03*
D460*
X010401Y012985D03*
X007903Y012468D03*
D461*
X007516Y012468D03*
D462*
X010771Y012470D03*
D463*
X011093Y012788D03*
X009032Y012470D03*
X005771Y012772D03*
D464*
X006311Y012544D03*
X008440Y012470D03*
D465*
X008217Y012470D03*
X007198Y012494D03*
X007196Y012764D03*
X009422Y012780D03*
X010719Y012780D03*
D466*
X007902Y012470D03*
D467*
X007847Y012804D03*
X007175Y012470D03*
X010742Y012804D03*
D468*
X007901Y012472D03*
D469*
X007516Y012472D03*
D470*
X010767Y012474D03*
D471*
X009029Y012474D03*
X008787Y012725D03*
X008222Y012476D03*
X006738Y012476D03*
X005770Y012768D03*
D472*
X007899Y012476D03*
D473*
X007843Y012800D03*
X007181Y012476D03*
X009053Y012800D03*
X011072Y012808D03*
D474*
X011100Y012780D03*
X011102Y012478D03*
X010402Y013047D03*
X009429Y012486D03*
X008236Y012764D03*
X006750Y012764D03*
X006746Y012486D03*
X006336Y012764D03*
X005472Y012804D03*
D475*
X008223Y012478D03*
D476*
X007898Y012478D03*
D477*
X007896Y012480D03*
D478*
X007895Y012482D03*
D479*
X007894Y012484D03*
D480*
X007893Y012486D03*
D481*
X008240Y012502D03*
X008999Y012528D03*
X009450Y012518D03*
X009448Y012739D03*
X010694Y012739D03*
X011114Y012494D03*
X007223Y012536D03*
X007219Y012528D03*
X007221Y012723D03*
X006322Y012739D03*
X006322Y012518D03*
X006080Y012788D03*
X005462Y012788D03*
D482*
X007890Y012494D03*
D483*
X007818Y012772D03*
X006335Y012494D03*
X010401Y013031D03*
X010401Y013039D03*
X010401Y013055D03*
D484*
X009336Y012532D03*
X007889Y012496D03*
D485*
X007888Y012498D03*
D486*
X007887Y012500D03*
D487*
X008440Y012518D03*
X008796Y012796D03*
X011119Y012747D03*
X011119Y012502D03*
X006083Y012780D03*
D488*
X007886Y012502D03*
D489*
X007885Y012504D03*
D490*
X008248Y012518D03*
X008989Y012560D03*
X008991Y012552D03*
X009458Y012536D03*
X009456Y012723D03*
X007232Y012697D03*
X007230Y012705D03*
X007230Y012552D03*
X006312Y012713D03*
X006086Y012772D03*
X005456Y012772D03*
D491*
X009337Y012530D03*
D492*
X009473Y012621D03*
X009473Y012623D03*
X009473Y012627D03*
X009473Y012629D03*
X009473Y012631D03*
X009473Y012635D03*
X008263Y012558D03*
X007794Y012719D03*
X007796Y012725D03*
X007796Y012727D03*
X011135Y012709D03*
X011135Y012534D03*
D493*
X011135Y012536D03*
X009473Y012625D03*
X009473Y012633D03*
D494*
X009334Y012536D03*
D495*
X008264Y012562D03*
X008264Y012564D03*
X008262Y012556D03*
X008262Y012554D03*
X007793Y012715D03*
X007793Y012717D03*
X011136Y012538D03*
D496*
X009332Y012538D03*
D497*
X009328Y012546D03*
D498*
X009326Y012548D03*
D499*
X009323Y012552D03*
D500*
X009387Y012812D03*
X009067Y012812D03*
X008469Y012552D03*
X006704Y012812D03*
X006382Y012812D03*
X010752Y012812D03*
D501*
X010401Y013102D03*
X009320Y012558D03*
D502*
X008264Y012560D03*
X007793Y012713D03*
X007795Y012723D03*
D503*
X008486Y012562D03*
X005939Y012910D03*
D504*
X009315Y012566D03*
D505*
X009313Y012568D03*
D506*
X009312Y012570D03*
X005940Y012925D03*
D507*
X008505Y012572D03*
D508*
X008521Y012580D03*
D509*
X008525Y012582D03*
X008024Y012910D03*
D510*
X009297Y012592D03*
D511*
X008545Y012592D03*
D512*
X008549Y012594D03*
X008692Y012671D03*
D513*
X008553Y012596D03*
D514*
X009292Y012601D03*
D515*
X009001Y012601D03*
D516*
X008565Y012603D03*
X005940Y012878D03*
X005602Y012878D03*
D517*
X009024Y012607D03*
D518*
X009287Y012609D03*
D519*
X009032Y012609D03*
D520*
X009071Y012731D03*
X009057Y012739D03*
X009134Y012697D03*
X009148Y012689D03*
X009162Y012681D03*
X009220Y012649D03*
X009234Y012641D03*
X009248Y012633D03*
X009279Y012617D03*
X008745Y012697D03*
D521*
X009079Y012727D03*
X009093Y012719D03*
X009111Y012709D03*
X009126Y012701D03*
X009144Y012691D03*
X009224Y012647D03*
X009238Y012639D03*
X009256Y012629D03*
X009270Y012621D03*
D522*
X008602Y012623D03*
D523*
X009086Y012723D03*
X009104Y012713D03*
X009119Y012705D03*
X009263Y012625D03*
X007003Y012900D03*
D524*
X008606Y012625D03*
D525*
X008617Y012631D03*
X008024Y012894D03*
X005940Y012864D03*
X005602Y012864D03*
D526*
X008621Y012633D03*
D527*
X008634Y012641D03*
D528*
X008649Y012649D03*
X007056Y012836D03*
D529*
X007885Y012824D03*
X009064Y012735D03*
X009141Y012693D03*
X009159Y012683D03*
X009173Y012675D03*
X009209Y012655D03*
D530*
X009206Y012657D03*
D531*
X008664Y012657D03*
X007051Y012844D03*
X010906Y012892D03*
D532*
X008705Y012677D03*
D533*
X008725Y012687D03*
D534*
X008730Y012689D03*
D535*
X008773Y012713D03*
D536*
X009841Y012721D03*
X009841Y012729D03*
X009841Y012737D03*
X009841Y012745D03*
X009841Y012753D03*
X009841Y012762D03*
X009841Y012770D03*
X009841Y012778D03*
X009841Y012786D03*
X009841Y012794D03*
X009841Y012802D03*
X009841Y012810D03*
X009841Y012923D03*
X009841Y012931D03*
X009841Y012939D03*
X009841Y012947D03*
X009841Y012955D03*
X009841Y012963D03*
X009841Y012971D03*
X009841Y012979D03*
X009841Y012987D03*
X009841Y012995D03*
X009841Y013003D03*
X009841Y013011D03*
X009841Y013019D03*
X009841Y013027D03*
X009841Y013035D03*
X009841Y013043D03*
X009841Y013051D03*
X009841Y013059D03*
X010401Y013084D03*
X010401Y013011D03*
X010401Y012915D03*
X010401Y012906D03*
X010401Y012898D03*
X010401Y012890D03*
X010401Y012882D03*
X010401Y012874D03*
X010401Y012866D03*
X010401Y012858D03*
X010401Y012850D03*
X010401Y012842D03*
X010401Y012834D03*
X010401Y012826D03*
X010401Y012818D03*
X010401Y012810D03*
X010401Y012802D03*
X010401Y012794D03*
X010401Y012786D03*
X010401Y012778D03*
X010401Y012770D03*
X010401Y012762D03*
X010401Y012753D03*
X010401Y012745D03*
X010401Y012737D03*
X010401Y012729D03*
X010401Y012721D03*
X005447Y012721D03*
D537*
X005601Y012923D03*
X005939Y012923D03*
X006084Y012778D03*
X009456Y012721D03*
D538*
X009089Y012721D03*
X009075Y012729D03*
X010905Y012915D03*
X011036Y012826D03*
D539*
X008783Y012721D03*
D540*
X007796Y012729D03*
X007794Y012721D03*
D541*
X008253Y012729D03*
X007222Y012721D03*
X006770Y012729D03*
X006766Y012737D03*
X006319Y012729D03*
X006315Y012721D03*
X005771Y012745D03*
X009453Y012729D03*
D542*
X008803Y012762D03*
X008803Y012770D03*
X006093Y012745D03*
X006093Y012737D03*
X006091Y012753D03*
X005771Y012721D03*
X005451Y012753D03*
X005449Y012745D03*
D543*
X006762Y012745D03*
X007214Y012737D03*
X007218Y012729D03*
X008796Y012737D03*
X009441Y012753D03*
X009445Y012745D03*
D544*
X009061Y012737D03*
X009047Y012745D03*
D545*
X008793Y012802D03*
X008250Y012737D03*
X008246Y012745D03*
X007811Y012762D03*
X006326Y012745D03*
X010698Y012745D03*
X011116Y012753D03*
D546*
X011121Y012745D03*
D547*
X011101Y012778D03*
X009435Y012762D03*
X008237Y012762D03*
X007210Y012745D03*
X006751Y012762D03*
X005471Y012802D03*
D548*
X005603Y012908D03*
X005939Y012908D03*
X009045Y012747D03*
D549*
X009042Y012751D03*
X009090Y012824D03*
D550*
X008786Y012810D03*
X008231Y012770D03*
X007822Y012778D03*
X007204Y012753D03*
X006341Y012770D03*
D551*
X006076Y012794D03*
X006757Y012753D03*
X007817Y012770D03*
D552*
X005771Y012753D03*
X010401Y013027D03*
X010401Y013067D03*
X011111Y012762D03*
D553*
X010766Y012820D03*
X009373Y012820D03*
X009039Y012756D03*
X007149Y012804D03*
X006690Y012820D03*
X006396Y012820D03*
D554*
X006335Y012762D03*
X005771Y012762D03*
X010401Y013035D03*
X010401Y013059D03*
X010707Y012762D03*
D555*
X009036Y012762D03*
X007857Y012810D03*
X007164Y012794D03*
X005771Y012794D03*
D556*
X006065Y012810D03*
X007198Y012762D03*
X007828Y012786D03*
D557*
X010708Y012764D03*
D558*
X011079Y012802D03*
X009225Y012923D03*
X009030Y012770D03*
X007836Y012794D03*
X006725Y012794D03*
X006361Y012794D03*
X005771Y012778D03*
D559*
X006353Y012786D03*
X006733Y012786D03*
X007190Y012770D03*
X008219Y012786D03*
X010904Y012923D03*
D560*
X008225Y012778D03*
X005771Y012770D03*
X005477Y012810D03*
D561*
X005455Y012770D03*
D562*
X007819Y012774D03*
D563*
X006543Y012923D03*
X009033Y012778D03*
X009417Y012786D03*
X010724Y012786D03*
D564*
X011095Y012786D03*
D565*
X009039Y012786D03*
D566*
X008204Y012802D03*
X007175Y012786D03*
D567*
X006369Y012802D03*
X005771Y012786D03*
X009400Y012802D03*
X010739Y012802D03*
D568*
X007172Y012788D03*
X005771Y012788D03*
D569*
X005771Y012790D03*
X007852Y012808D03*
X009062Y012808D03*
X011063Y012814D03*
D570*
X005770Y012792D03*
D571*
X010731Y012794D03*
D572*
X009046Y012794D03*
D573*
X007860Y012812D03*
X007161Y012796D03*
D574*
X005771Y012796D03*
D575*
X007158Y012798D03*
X010755Y012814D03*
D576*
X011070Y012810D03*
X009055Y012802D03*
X007845Y012802D03*
D577*
X008181Y012818D03*
X007152Y012802D03*
D578*
X006716Y012802D03*
D579*
X005771Y012802D03*
D580*
X006372Y012804D03*
X006714Y012804D03*
X009057Y012804D03*
D581*
X005771Y012806D03*
D582*
X008194Y012810D03*
D583*
X007136Y012810D03*
D584*
X005771Y012810D03*
X009096Y012826D03*
X009225Y012915D03*
D585*
X008191Y012812D03*
D586*
X005771Y012812D03*
D587*
X005602Y012915D03*
X011057Y012818D03*
D588*
X010762Y012818D03*
X009377Y012818D03*
X006392Y012818D03*
D589*
X007061Y012826D03*
X009736Y012826D03*
X009736Y012834D03*
X009736Y012842D03*
X009736Y012850D03*
X009736Y012858D03*
X009736Y012866D03*
X009736Y012874D03*
X009736Y012882D03*
X009736Y012890D03*
X009736Y012898D03*
X009736Y012906D03*
X009736Y012915D03*
X009736Y012818D03*
D590*
X009076Y012818D03*
D591*
X008629Y012818D03*
D592*
X007870Y012818D03*
D593*
X007064Y012818D03*
X005939Y012858D03*
D594*
X006694Y012818D03*
D595*
X005770Y012818D03*
D596*
X008629Y012820D03*
X009227Y012836D03*
D597*
X007874Y012820D03*
D598*
X008024Y012892D03*
X007063Y012820D03*
X005940Y012860D03*
X005602Y012860D03*
D599*
X006053Y012820D03*
D600*
X005771Y012820D03*
D601*
X009084Y012822D03*
D602*
X005771Y012824D03*
D603*
X010781Y012826D03*
D604*
X009357Y012826D03*
X005939Y012906D03*
X005603Y012906D03*
D605*
X008628Y012826D03*
X010907Y012834D03*
D606*
X008159Y012826D03*
D607*
X007893Y012826D03*
D608*
X006672Y012826D03*
X006414Y012826D03*
D609*
X006042Y012826D03*
X005939Y012915D03*
X005501Y012826D03*
D610*
X005770Y012826D03*
D611*
X010908Y012828D03*
D612*
X008627Y012828D03*
D613*
X008024Y012828D03*
D614*
X007060Y012828D03*
D615*
X006543Y012828D03*
D616*
X005771Y012828D03*
D617*
X005770Y012830D03*
D618*
X005771Y012832D03*
D619*
X009227Y012834D03*
D620*
X008626Y012834D03*
D621*
X008025Y012834D03*
D622*
X007057Y012834D03*
X005940Y012866D03*
X005602Y012866D03*
X009225Y012890D03*
D623*
X006543Y012834D03*
D624*
X005771Y012834D03*
D625*
X008625Y012836D03*
D626*
X008025Y012836D03*
D627*
X006543Y012836D03*
D628*
X005771Y012836D03*
D629*
X010907Y012838D03*
D630*
X005771Y012838D03*
D631*
X008622Y012846D03*
X008622Y012848D03*
X010907Y012840D03*
D632*
X005771Y012840D03*
D633*
X010907Y012842D03*
D634*
X009227Y012842D03*
D635*
X008624Y012842D03*
X006543Y012842D03*
D636*
X008024Y012842D03*
D637*
X007052Y012842D03*
D638*
X005771Y012842D03*
D639*
X009227Y012844D03*
D640*
X008623Y012844D03*
D641*
X006543Y012844D03*
D642*
X005771Y012844D03*
D643*
X008024Y012856D03*
X008619Y012856D03*
X009227Y012846D03*
D644*
X008024Y012846D03*
D645*
X005771Y012846D03*
D646*
X005770Y012848D03*
D647*
X010907Y012850D03*
D648*
X009227Y012850D03*
D649*
X008621Y012850D03*
D650*
X008024Y012850D03*
D651*
X007048Y012850D03*
D652*
X006543Y012850D03*
D653*
X005940Y012850D03*
D654*
X005602Y012850D03*
D655*
X010907Y012852D03*
D656*
X008620Y012852D03*
D657*
X008024Y012852D03*
D658*
X007046Y012852D03*
D659*
X006543Y012852D03*
D660*
X005940Y012852D03*
X005602Y012852D03*
D661*
X010907Y012854D03*
D662*
X005940Y012854D03*
X005602Y012854D03*
D663*
X008606Y012880D03*
X010907Y012856D03*
D664*
X010907Y012858D03*
D665*
X009227Y012858D03*
D666*
X008618Y012858D03*
D667*
X008024Y012858D03*
D668*
X007042Y012858D03*
X009226Y012898D03*
D669*
X006543Y012858D03*
D670*
X005602Y012858D03*
D671*
X010907Y012860D03*
D672*
X008617Y012860D03*
D673*
X008024Y012860D03*
D674*
X007041Y012860D03*
D675*
X006543Y012860D03*
D676*
X008600Y012888D03*
X009226Y012864D03*
X010907Y012862D03*
D677*
X010906Y012886D03*
X008567Y012913D03*
X005940Y012862D03*
X005602Y012862D03*
D678*
X008615Y012864D03*
D679*
X010906Y012866D03*
D680*
X008024Y012866D03*
D681*
X007037Y012866D03*
D682*
X006544Y012866D03*
D683*
X006543Y012868D03*
X008023Y012876D03*
D684*
X005940Y012868D03*
D685*
X008024Y012872D03*
D686*
X008024Y012882D03*
X010906Y012874D03*
D687*
X009227Y012874D03*
D688*
X008610Y012874D03*
D689*
X008024Y012874D03*
D690*
X007031Y012874D03*
D691*
X006543Y012874D03*
D692*
X005939Y012874D03*
D693*
X005602Y012874D03*
D694*
X009226Y012876D03*
D695*
X006543Y012876D03*
D696*
X005940Y012876D03*
X005602Y012876D03*
X008024Y012900D03*
D697*
X009226Y012878D03*
D698*
X008024Y012878D03*
D699*
X008023Y012888D03*
X010907Y012880D03*
D700*
X008024Y012902D03*
X005940Y012880D03*
X005602Y012880D03*
D701*
X010906Y012882D03*
D702*
X009226Y012882D03*
D703*
X007024Y012882D03*
D704*
X006543Y012882D03*
D705*
X005939Y012882D03*
D706*
X005602Y012882D03*
D707*
X008603Y012884D03*
D708*
X007022Y012884D03*
D709*
X005939Y012884D03*
D710*
X005603Y012884D03*
X009226Y012900D03*
D711*
X005602Y012886D03*
D712*
X006544Y012890D03*
X008561Y012915D03*
X010906Y012890D03*
D713*
X008599Y012890D03*
D714*
X008023Y012890D03*
D715*
X007016Y012890D03*
D716*
X005939Y012890D03*
X005603Y012890D03*
D717*
X009225Y012892D03*
D718*
X006543Y012892D03*
D719*
X005939Y012892D03*
X008023Y012908D03*
D720*
X005602Y012892D03*
D721*
X005602Y012894D03*
D722*
X006543Y012898D03*
X010905Y012898D03*
D723*
X008590Y012898D03*
D724*
X008024Y012898D03*
D725*
X007006Y012898D03*
D726*
X005939Y012898D03*
D727*
X005602Y012898D03*
D728*
X006543Y012900D03*
X010905Y012900D03*
D729*
X008588Y012900D03*
D730*
X005940Y012900D03*
X005602Y012900D03*
D731*
X005602Y012902D03*
D732*
X005603Y012904D03*
X005939Y012904D03*
X010905Y012913D03*
D733*
X010906Y012906D03*
D734*
X009225Y012906D03*
D735*
X008579Y012906D03*
D736*
X008023Y012906D03*
D737*
X006543Y012906D03*
D738*
X010905Y012908D03*
D739*
X009225Y012908D03*
D740*
X006543Y012908D03*
D741*
X010906Y012910D03*
D742*
X009225Y012910D03*
D743*
X005602Y012910D03*
D744*
X008024Y012915D03*
D745*
X006544Y012915D03*
D746*
X008024Y012917D03*
D747*
X008024Y012919D03*
D748*
X006543Y012919D03*
D749*
X005940Y012919D03*
D750*
X008024Y012923D03*
D751*
X006544Y012927D03*
D752*
X005940Y012927D03*
D753*
X005601Y012927D03*
D754*
X008025Y012929D03*
D755*
X010402Y012983D03*
D756*
X010401Y012987D03*
D757*
X010402Y012989D03*
D758*
X010401Y012991D03*
D759*
X010401Y012995D03*
D760*
X010402Y012999D03*
D761*
X010401Y013001D03*
X010401Y013094D03*
D762*
X010401Y013092D03*
X010401Y013003D03*
D763*
X010401Y013005D03*
X010401Y013090D03*
D764*
X010401Y013007D03*
D765*
X010402Y013088D03*
D766*
X010401Y013096D03*
D767*
X010401Y013100D03*
D768*
X010401Y013104D03*
D769*
X010401Y013106D03*
D770*
X010402Y013108D03*
D771*
X010401Y013110D03*
M02*
