G75*
G70*
%OFA0B0*%
%FSLAX24Y24*%
%IPPOS*%
%LPD*%
%AMOC8*
5,1,8,0,0,1.08239X$1,22.5*
%
%ADD10C,0.0060*%
%ADD11C,0.0100*%
%ADD12C,0.0030*%
%ADD13C,0.0000*%
%ADD14C,0.0080*%
%ADD15C,0.0040*%
%ADD16C,0.0050*%
D10*
X003594Y003743D02*
X004837Y003743D01*
X004837Y004318D01*
X003594Y004318D01*
X003594Y003743D01*
X005293Y003744D02*
X005293Y004319D01*
X006536Y004319D01*
X006536Y003744D01*
X005293Y003744D01*
X005300Y010436D02*
X005300Y010726D01*
X005203Y010629D01*
X005075Y010726D02*
X004881Y010436D01*
X004752Y010484D02*
X004704Y010436D01*
X004607Y010436D01*
X004559Y010484D01*
X004752Y010678D01*
X004752Y010484D01*
X004559Y010484D02*
X004559Y010678D01*
X004607Y010726D01*
X004704Y010726D01*
X004752Y010678D01*
X004430Y010678D02*
X004430Y010629D01*
X004237Y010436D01*
X004430Y010436D01*
X004430Y010678D02*
X004382Y010726D01*
X004285Y010726D01*
X004237Y010678D01*
X004108Y010678D02*
X003914Y010484D01*
X003963Y010436D01*
X004059Y010436D01*
X004108Y010484D01*
X004108Y010678D01*
X004059Y010726D01*
X003963Y010726D01*
X003914Y010678D01*
X003914Y010484D01*
X003786Y010436D02*
X003592Y010436D01*
X003786Y010629D01*
X003786Y010678D01*
X003737Y010726D01*
X003640Y010726D01*
X003592Y010678D01*
X004156Y011033D02*
X004253Y010936D01*
X004350Y011033D01*
X004350Y011226D01*
X004478Y011129D02*
X004575Y011226D01*
X004575Y010936D01*
X004478Y010936D02*
X004672Y010936D01*
X004801Y010936D02*
X004849Y010936D01*
X004849Y010984D01*
X004801Y010984D01*
X004801Y010936D01*
X004962Y010984D02*
X004962Y011178D01*
X005010Y011226D01*
X005107Y011226D01*
X005155Y011178D01*
X004962Y010984D01*
X005010Y010936D01*
X005107Y010936D01*
X005155Y010984D01*
X005155Y011178D01*
X005200Y011531D02*
X005020Y011651D01*
X004940Y011611D01*
X004800Y011951D01*
X004840Y011931D02*
X004990Y012131D01*
X004940Y012381D01*
X004740Y012481D01*
X004540Y012481D01*
X004390Y012331D01*
X004390Y012031D01*
X004540Y011931D01*
X004390Y011681D01*
X004340Y011681D01*
X004190Y011581D01*
X004090Y011681D01*
X004190Y011831D01*
X004090Y012081D01*
X003890Y012131D01*
X003890Y012281D01*
X004090Y012281D01*
X004190Y012531D01*
X004040Y012731D01*
X004190Y012831D01*
X004340Y012681D01*
X004540Y012781D01*
X004590Y012981D01*
X004740Y012981D01*
X004790Y012781D01*
X004990Y012681D01*
X005190Y012831D01*
X005290Y012731D01*
X005190Y012531D01*
X005290Y012281D01*
X005490Y012281D01*
X005490Y012131D01*
X005240Y012081D01*
X005190Y011831D01*
X005290Y011681D01*
X005190Y011581D01*
X005040Y011681D01*
X004940Y011631D01*
X004840Y011931D01*
X004843Y011922D02*
X005208Y011922D01*
X005220Y011980D02*
X004877Y011980D01*
X004921Y012039D02*
X005232Y012039D01*
X005290Y012051D02*
X005510Y012091D01*
X005510Y012291D01*
X005290Y012331D01*
X005270Y012331D02*
X004950Y012331D01*
X004962Y012273D02*
X005490Y012273D01*
X005490Y012214D02*
X004973Y012214D01*
X004985Y012156D02*
X005490Y012156D01*
X005323Y012097D02*
X004965Y012097D01*
X004862Y011863D02*
X005197Y011863D01*
X005210Y011851D02*
X005340Y011671D01*
X005200Y011531D01*
X005239Y011629D02*
X005117Y011629D01*
X005246Y011746D02*
X004901Y011746D01*
X004921Y011688D02*
X005285Y011688D01*
X005207Y011805D02*
X004882Y011805D01*
X004560Y011951D02*
X004410Y011611D01*
X004340Y011651D01*
X004160Y011531D01*
X004020Y011671D01*
X004140Y011851D01*
X004177Y011863D02*
X004500Y011863D01*
X004464Y011805D02*
X004173Y011805D01*
X004134Y011746D02*
X004429Y011746D01*
X004394Y011688D02*
X004095Y011688D01*
X004141Y011629D02*
X004263Y011629D01*
X004154Y011922D02*
X004535Y011922D01*
X004466Y011980D02*
X004130Y011980D01*
X004107Y012039D02*
X004390Y012039D01*
X004390Y012097D02*
X004024Y012097D01*
X004060Y012051D02*
X003840Y012091D01*
X003840Y012291D01*
X004070Y012331D01*
X004110Y012331D02*
X004391Y012331D01*
X004390Y012273D02*
X003890Y012273D01*
X003890Y012214D02*
X004390Y012214D01*
X004390Y012156D02*
X003890Y012156D01*
X004134Y012390D02*
X004449Y012390D01*
X004508Y012448D02*
X004157Y012448D01*
X004180Y012507D02*
X005200Y012507D01*
X005200Y012521D02*
X005340Y012711D01*
X005200Y012851D01*
X005000Y012721D01*
X004992Y012682D02*
X005266Y012682D01*
X005280Y012741D02*
X005070Y012741D01*
X005148Y012799D02*
X005221Y012799D01*
X005237Y012624D02*
X004120Y012624D01*
X004076Y012682D02*
X004338Y012682D01*
X004343Y012682D02*
X004987Y012682D01*
X004870Y012741D02*
X004460Y012741D01*
X004530Y012791D02*
X004580Y013031D01*
X004770Y013031D01*
X004820Y012791D01*
X004785Y012799D02*
X004545Y012799D01*
X004559Y012858D02*
X004771Y012858D01*
X004756Y012916D02*
X004574Y012916D01*
X004589Y012975D02*
X004741Y012975D01*
X004350Y012721D02*
X004160Y012851D01*
X004020Y012711D01*
X004150Y012521D01*
X004164Y012565D02*
X005207Y012565D01*
X005223Y012448D02*
X004805Y012448D01*
X004922Y012390D02*
X005246Y012390D01*
X005292Y012331D02*
X005280Y012371D01*
X005265Y012410D01*
X005247Y012448D01*
X005227Y012484D01*
X005205Y012519D01*
X004800Y011951D02*
X004828Y011967D01*
X004855Y011986D01*
X004878Y012008D01*
X004899Y012033D01*
X004917Y012061D01*
X004932Y012090D01*
X004942Y012121D01*
X004950Y012152D01*
X004953Y012185D01*
X004952Y012217D01*
X004948Y012250D01*
X004939Y012281D01*
X004927Y012311D01*
X004912Y012340D01*
X004893Y012367D01*
X004871Y012391D01*
X004847Y012412D01*
X004820Y012431D01*
X004791Y012446D01*
X004760Y012457D01*
X004729Y012465D01*
X004696Y012469D01*
X004664Y012469D01*
X004631Y012465D01*
X004600Y012457D01*
X004569Y012446D01*
X004540Y012431D01*
X004513Y012412D01*
X004489Y012391D01*
X004467Y012367D01*
X004448Y012340D01*
X004433Y012311D01*
X004421Y012281D01*
X004412Y012250D01*
X004408Y012217D01*
X004407Y012185D01*
X004410Y012152D01*
X004418Y012121D01*
X004428Y012090D01*
X004443Y012061D01*
X004461Y012033D01*
X004482Y012008D01*
X004505Y011986D01*
X004532Y011967D01*
X004560Y011951D01*
X004352Y012717D02*
X004394Y012740D01*
X004437Y012759D01*
X004482Y012776D01*
X004528Y012788D01*
X004280Y012741D02*
X004055Y012741D01*
X004143Y012799D02*
X004221Y012799D01*
X004062Y012035D02*
X004077Y011988D01*
X004095Y011942D01*
X004117Y011898D01*
X004142Y011856D01*
X004068Y012333D02*
X004079Y012373D01*
X004093Y012412D01*
X004109Y012449D01*
X004128Y012486D01*
X004149Y012521D01*
X005289Y012052D02*
X005279Y012010D01*
X005266Y011969D01*
X005250Y011929D01*
X005231Y011890D01*
X005209Y011853D01*
X004999Y012721D02*
X004956Y012744D01*
X004912Y012764D01*
X004866Y012780D01*
X004820Y012792D01*
X004156Y011226D02*
X004156Y011033D01*
X005203Y010436D02*
X005397Y010436D01*
X005526Y010436D02*
X005719Y010629D01*
X005719Y010678D01*
X005671Y010726D01*
X005574Y010726D01*
X005526Y010678D01*
X005526Y010436D02*
X005719Y010436D01*
D11*
X003490Y003381D02*
X003740Y003131D01*
X006390Y003131D01*
X006640Y003381D01*
X016340Y003381D01*
X016340Y008131D01*
X015640Y010931D01*
X015240Y011231D01*
X014440Y011231D01*
X013890Y011731D01*
X013890Y012781D01*
X011790Y013631D01*
X005240Y013631D01*
X002940Y012681D01*
X002940Y011581D01*
X002540Y011181D01*
X001940Y011181D01*
X001290Y010781D01*
X000640Y008331D01*
X000640Y003381D01*
X003490Y003381D01*
D12*
X002045Y004376D02*
X001905Y004376D01*
X002045Y004516D01*
X002045Y004551D01*
X002010Y004586D01*
X001940Y004586D01*
X001905Y004551D01*
X001824Y004551D02*
X001789Y004586D01*
X001719Y004586D01*
X001684Y004551D01*
X001684Y004516D01*
X001719Y004481D01*
X001789Y004481D01*
X001824Y004446D01*
X001824Y004411D01*
X001789Y004376D01*
X001719Y004376D01*
X001684Y004411D01*
X001719Y006376D02*
X001684Y006411D01*
X001719Y006376D02*
X001789Y006376D01*
X001824Y006411D01*
X001824Y006446D01*
X001789Y006481D01*
X001719Y006481D01*
X001684Y006516D01*
X001684Y006551D01*
X001719Y006586D01*
X001789Y006586D01*
X001824Y006551D01*
X001905Y006516D02*
X001975Y006586D01*
X001975Y006376D01*
X001905Y006376D02*
X002045Y006376D01*
X008716Y004271D02*
X008771Y004216D01*
X008826Y004216D01*
X008881Y004271D01*
X008881Y004546D01*
X008826Y004546D02*
X008936Y004546D01*
X009048Y004546D02*
X009048Y004216D01*
X009268Y004216D01*
X009379Y004271D02*
X009434Y004216D01*
X009544Y004216D01*
X009599Y004271D01*
X009711Y004271D02*
X009766Y004216D01*
X009821Y004216D01*
X009876Y004271D01*
X009876Y004546D01*
X009821Y004546D02*
X009931Y004546D01*
X010042Y004546D02*
X010042Y004216D01*
X010262Y004216D01*
X010374Y004271D02*
X010429Y004216D01*
X010539Y004216D01*
X010594Y004271D01*
X010705Y004271D02*
X010760Y004216D01*
X010815Y004216D01*
X010870Y004271D01*
X010870Y004546D01*
X010815Y004546D02*
X010925Y004546D01*
X011036Y004546D02*
X011036Y004216D01*
X011257Y004216D01*
X011368Y004271D02*
X011423Y004216D01*
X011533Y004216D01*
X011588Y004271D01*
X011699Y004271D02*
X011754Y004216D01*
X011810Y004216D01*
X011865Y004271D01*
X011865Y004546D01*
X011810Y004546D02*
X011920Y004546D01*
X012031Y004546D02*
X012031Y004216D01*
X012251Y004216D01*
X012362Y004271D02*
X012417Y004216D01*
X012528Y004216D01*
X012583Y004271D01*
X012362Y004271D02*
X012362Y004491D01*
X012417Y004546D01*
X012528Y004546D01*
X012583Y004491D01*
X011588Y004491D02*
X011533Y004546D01*
X011423Y004546D01*
X011368Y004491D01*
X011368Y004271D01*
X010594Y004491D02*
X010539Y004546D01*
X010429Y004546D01*
X010374Y004491D01*
X010374Y004271D01*
X009599Y004491D02*
X009544Y004546D01*
X009434Y004546D01*
X009379Y004491D01*
X009379Y004271D01*
D13*
X006527Y005831D02*
X006529Y005857D01*
X006535Y005883D01*
X006544Y005907D01*
X006557Y005930D01*
X006574Y005950D01*
X006593Y005968D01*
X006615Y005983D01*
X006638Y005994D01*
X006663Y006002D01*
X006689Y006006D01*
X006715Y006006D01*
X006741Y006002D01*
X006766Y005994D01*
X006790Y005983D01*
X006811Y005968D01*
X006830Y005950D01*
X006847Y005930D01*
X006860Y005907D01*
X006869Y005883D01*
X006875Y005857D01*
X006877Y005831D01*
X006875Y005805D01*
X006869Y005779D01*
X006860Y005755D01*
X006847Y005732D01*
X006830Y005712D01*
X006811Y005694D01*
X006789Y005679D01*
X006766Y005668D01*
X006741Y005660D01*
X006715Y005656D01*
X006689Y005656D01*
X006663Y005660D01*
X006638Y005668D01*
X006614Y005679D01*
X006593Y005694D01*
X006574Y005712D01*
X006557Y005732D01*
X006544Y005755D01*
X006535Y005779D01*
X006529Y005805D01*
X006527Y005831D01*
X003277Y005831D02*
X003279Y005857D01*
X003285Y005883D01*
X003294Y005907D01*
X003307Y005930D01*
X003324Y005950D01*
X003343Y005968D01*
X003365Y005983D01*
X003388Y005994D01*
X003413Y006002D01*
X003439Y006006D01*
X003465Y006006D01*
X003491Y006002D01*
X003516Y005994D01*
X003540Y005983D01*
X003561Y005968D01*
X003580Y005950D01*
X003597Y005930D01*
X003610Y005907D01*
X003619Y005883D01*
X003625Y005857D01*
X003627Y005831D01*
X003625Y005805D01*
X003619Y005779D01*
X003610Y005755D01*
X003597Y005732D01*
X003580Y005712D01*
X003561Y005694D01*
X003539Y005679D01*
X003516Y005668D01*
X003491Y005660D01*
X003465Y005656D01*
X003439Y005656D01*
X003413Y005660D01*
X003388Y005668D01*
X003364Y005679D01*
X003343Y005694D01*
X003324Y005712D01*
X003307Y005732D01*
X003294Y005755D01*
X003285Y005779D01*
X003279Y005805D01*
X003277Y005831D01*
D14*
X002717Y006430D02*
X002717Y006532D01*
X002417Y007032D02*
X001363Y007032D01*
X001063Y006532D02*
X001063Y006430D01*
X001363Y005930D02*
X002417Y005930D01*
X002417Y005032D02*
X001363Y005032D01*
X001063Y004532D02*
X001063Y004430D01*
X001363Y003930D02*
X002417Y003930D01*
X002717Y004430D02*
X002717Y004532D01*
X007097Y003930D02*
X007097Y003526D01*
X008190Y003526D01*
X013190Y003526D02*
X014283Y003526D01*
X014283Y003930D01*
X014283Y010903D02*
X014283Y013665D01*
X007097Y013665D01*
X007097Y010903D01*
D15*
X002497Y010791D02*
X002310Y010791D01*
X002403Y010791D02*
X002403Y011071D01*
X002310Y010978D01*
X002202Y010791D02*
X002015Y010791D01*
X002015Y011071D01*
X002057Y007471D02*
X002057Y007191D01*
X002244Y007191D01*
X002151Y007331D02*
X002057Y007331D01*
X001949Y007284D02*
X001949Y007238D01*
X001903Y007191D01*
X001809Y007191D01*
X001763Y007238D01*
X001809Y007331D02*
X001903Y007331D01*
X001949Y007284D01*
X001949Y007424D02*
X001903Y007471D01*
X001809Y007471D01*
X001763Y007424D01*
X001763Y007378D01*
X001809Y007331D01*
X001655Y007191D02*
X001468Y007191D01*
X001468Y007471D01*
X001655Y007471D01*
X001561Y007331D02*
X001468Y007331D01*
X001360Y007331D02*
X001313Y007284D01*
X001173Y007284D01*
X001173Y007191D02*
X001173Y007471D01*
X001313Y007471D01*
X001360Y007424D01*
X001360Y007331D01*
X001267Y007284D02*
X001360Y007191D01*
X002057Y007471D02*
X002244Y007471D01*
X002352Y007471D02*
X002539Y007471D01*
X002445Y007471D02*
X002445Y007191D01*
X002391Y003771D02*
X002205Y003771D01*
X002298Y003771D02*
X002298Y003491D01*
X002097Y003538D02*
X002097Y003724D01*
X002050Y003771D01*
X001957Y003771D01*
X001910Y003724D01*
X001910Y003538D01*
X001957Y003491D01*
X002050Y003491D01*
X002097Y003538D01*
X001802Y003538D02*
X001802Y003724D01*
X001755Y003771D01*
X001662Y003771D01*
X001615Y003724D01*
X001615Y003538D01*
X001662Y003491D01*
X001755Y003491D01*
X001802Y003538D01*
X001508Y003538D02*
X001461Y003491D01*
X001321Y003491D01*
X001321Y003771D01*
X001461Y003771D01*
X001508Y003724D01*
X001508Y003678D01*
X001461Y003631D01*
X001321Y003631D01*
X001461Y003631D02*
X001508Y003584D01*
X001508Y003538D01*
X003965Y003478D02*
X004058Y003571D01*
X004058Y003291D01*
X003965Y003291D02*
X004152Y003291D01*
X004260Y003291D02*
X004260Y003571D01*
X004400Y003478D02*
X004260Y003384D01*
X004400Y003291D01*
X005518Y003291D02*
X005704Y003291D01*
X005611Y003291D02*
X005611Y003571D01*
X005518Y003478D01*
X005812Y003524D02*
X005812Y003338D01*
X005999Y003524D01*
X005999Y003338D01*
X005952Y003291D01*
X005859Y003291D01*
X005812Y003338D01*
X005812Y003524D02*
X005859Y003571D01*
X005952Y003571D01*
X005999Y003524D01*
X006107Y003571D02*
X006107Y003291D01*
X006107Y003384D02*
X006247Y003478D01*
X006107Y003384D02*
X006247Y003291D01*
X008942Y005586D02*
X009129Y005586D01*
X009237Y005632D02*
X009283Y005586D01*
X009377Y005586D01*
X009424Y005632D01*
X009424Y005679D01*
X009377Y005726D01*
X009283Y005726D01*
X009237Y005773D01*
X009237Y005819D01*
X009283Y005866D01*
X009377Y005866D01*
X009424Y005819D01*
X009531Y005866D02*
X009672Y005866D01*
X009718Y005819D01*
X009718Y005726D01*
X009672Y005679D01*
X009531Y005679D01*
X009531Y005586D02*
X009531Y005866D01*
X009826Y005726D02*
X010013Y005726D01*
X010121Y005866D02*
X010121Y005586D01*
X010214Y005679D01*
X010308Y005586D01*
X010308Y005866D01*
X010415Y005866D02*
X010555Y005866D01*
X010602Y005819D01*
X010602Y005726D01*
X010555Y005679D01*
X010415Y005679D01*
X010415Y005586D02*
X010415Y005866D01*
X010462Y006036D02*
X010555Y006036D01*
X010602Y006082D01*
X010602Y006316D01*
X010710Y006223D02*
X010803Y006316D01*
X010803Y006036D01*
X010710Y006036D02*
X010897Y006036D01*
X010850Y005866D02*
X010897Y005819D01*
X010897Y005632D01*
X010850Y005586D01*
X010757Y005586D01*
X010710Y005632D01*
X010710Y005819D01*
X010757Y005866D01*
X010850Y005866D01*
X011005Y005819D02*
X011005Y005632D01*
X011051Y005586D01*
X011145Y005586D01*
X011191Y005632D01*
X011191Y005819D01*
X011145Y005866D01*
X011051Y005866D01*
X011005Y005819D01*
X011299Y005866D02*
X011299Y005586D01*
X011486Y005586D02*
X011486Y005866D01*
X011393Y005773D01*
X011299Y005866D01*
X011594Y005726D02*
X011781Y005726D01*
X011889Y005819D02*
X011935Y005866D01*
X012029Y005866D01*
X012075Y005819D01*
X012075Y005773D01*
X012029Y005726D01*
X012075Y005679D01*
X012075Y005632D01*
X012029Y005586D01*
X011935Y005586D01*
X011889Y005632D01*
X011982Y005726D02*
X012029Y005726D01*
X012183Y005819D02*
X012230Y005866D01*
X012323Y005866D01*
X012370Y005819D01*
X012370Y005773D01*
X012183Y005586D01*
X012370Y005586D01*
X010602Y005586D02*
X010509Y005679D01*
X010462Y006036D02*
X010415Y006082D01*
X010415Y006316D01*
X009129Y005866D02*
X008942Y005866D01*
X008942Y005586D01*
X008942Y005726D02*
X009036Y005726D01*
D16*
X014445Y005806D02*
X014445Y005986D01*
X014445Y005896D02*
X014715Y005896D01*
X014715Y006101D02*
X014445Y006281D01*
X014445Y006101D02*
X014715Y006281D01*
X014670Y006806D02*
X014715Y006851D01*
X014715Y006941D01*
X014670Y006986D01*
X014580Y006986D01*
X014535Y006941D01*
X014535Y006896D01*
X014580Y006806D01*
X014445Y006806D01*
X014445Y006986D01*
X014445Y007101D02*
X014625Y007101D01*
X014715Y007191D01*
X014625Y007281D01*
X014445Y007281D01*
X014490Y007656D02*
X014445Y007701D01*
X014445Y007791D01*
X014490Y007836D01*
X014580Y007836D02*
X014580Y007746D01*
X014580Y007836D02*
X014670Y007836D01*
X014715Y007791D01*
X014715Y007701D01*
X014670Y007656D01*
X014490Y007656D01*
X014445Y007951D02*
X014715Y008131D01*
X014445Y008131D01*
X014445Y008245D02*
X014445Y008380D01*
X014490Y008425D01*
X014670Y008425D01*
X014715Y008380D01*
X014715Y008245D01*
X014445Y008245D01*
X014445Y007951D02*
X014715Y007951D01*
X014670Y008656D02*
X014715Y008701D01*
X014715Y008791D01*
X014670Y008836D01*
X014625Y008836D01*
X014580Y008791D01*
X014580Y008746D01*
X014580Y008791D02*
X014535Y008836D01*
X014490Y008836D01*
X014445Y008791D01*
X014445Y008701D01*
X014490Y008656D01*
X014445Y008951D02*
X014625Y008951D01*
X014715Y009041D01*
X014625Y009131D01*
X014445Y009131D01*
X014490Y009245D02*
X014445Y009290D01*
X014445Y009380D01*
X014490Y009425D01*
X014535Y009425D01*
X014580Y009380D01*
X014625Y009425D01*
X014670Y009425D01*
X014715Y009380D01*
X014715Y009290D01*
X014670Y009245D01*
X014580Y009335D02*
X014580Y009380D01*
X014840Y009531D02*
X015840Y009531D01*
X015840Y003531D01*
X014840Y003531D01*
X014840Y009531D01*
X014715Y005281D02*
X014445Y005101D01*
X014490Y004986D02*
X014445Y004941D01*
X014445Y004806D01*
X014715Y004806D01*
X014625Y004806D02*
X014625Y004941D01*
X014580Y004986D01*
X014490Y004986D01*
X014625Y004896D02*
X014715Y004986D01*
X014715Y005101D02*
X014445Y005281D01*
X014490Y004425D02*
X014580Y004425D01*
X014625Y004380D01*
X014625Y004245D01*
X014715Y004245D02*
X014445Y004245D01*
X014445Y004380D01*
X014490Y004425D01*
X014625Y004335D02*
X014715Y004425D01*
X014715Y004041D02*
X014445Y004041D01*
X014445Y003951D02*
X014445Y004131D01*
X014490Y003836D02*
X014445Y003791D01*
X014445Y003656D01*
X014715Y003656D01*
X014715Y003791D01*
X014670Y003836D01*
X014490Y003836D01*
X002915Y010293D02*
X002915Y010668D01*
X001573Y006481D02*
X001575Y006516D01*
X001581Y006552D01*
X001591Y006586D01*
X001604Y006619D01*
X001622Y006650D01*
X001642Y006679D01*
X001666Y006705D01*
X001692Y006729D01*
X001721Y006749D01*
X001752Y006767D01*
X001785Y006780D01*
X001819Y006790D01*
X001855Y006796D01*
X001890Y006798D01*
X001925Y006796D01*
X001961Y006790D01*
X001995Y006780D01*
X002028Y006767D01*
X002059Y006749D01*
X002088Y006729D01*
X002114Y006705D01*
X002138Y006679D01*
X002158Y006650D01*
X002176Y006619D01*
X002189Y006586D01*
X002199Y006552D01*
X002205Y006516D01*
X002207Y006481D01*
X002205Y006446D01*
X002199Y006410D01*
X002189Y006376D01*
X002176Y006343D01*
X002158Y006312D01*
X002138Y006283D01*
X002114Y006257D01*
X002088Y006233D01*
X002059Y006213D01*
X002028Y006195D01*
X001995Y006182D01*
X001961Y006172D01*
X001925Y006166D01*
X001890Y006164D01*
X001855Y006166D01*
X001819Y006172D01*
X001785Y006182D01*
X001752Y006195D01*
X001721Y006213D01*
X001692Y006233D01*
X001666Y006257D01*
X001642Y006283D01*
X001622Y006312D01*
X001604Y006343D01*
X001591Y006376D01*
X001581Y006410D01*
X001575Y006446D01*
X001573Y006481D01*
X001573Y004481D02*
X001575Y004516D01*
X001581Y004552D01*
X001591Y004586D01*
X001604Y004619D01*
X001622Y004650D01*
X001642Y004679D01*
X001666Y004705D01*
X001692Y004729D01*
X001721Y004749D01*
X001752Y004767D01*
X001785Y004780D01*
X001819Y004790D01*
X001855Y004796D01*
X001890Y004798D01*
X001925Y004796D01*
X001961Y004790D01*
X001995Y004780D01*
X002028Y004767D01*
X002059Y004749D01*
X002088Y004729D01*
X002114Y004705D01*
X002138Y004679D01*
X002158Y004650D01*
X002176Y004619D01*
X002189Y004586D01*
X002199Y004552D01*
X002205Y004516D01*
X002207Y004481D01*
X002205Y004446D01*
X002199Y004410D01*
X002189Y004376D01*
X002176Y004343D01*
X002158Y004312D01*
X002138Y004283D01*
X002114Y004257D01*
X002088Y004233D01*
X002059Y004213D01*
X002028Y004195D01*
X001995Y004182D01*
X001961Y004172D01*
X001925Y004166D01*
X001890Y004164D01*
X001855Y004166D01*
X001819Y004172D01*
X001785Y004182D01*
X001752Y004195D01*
X001721Y004213D01*
X001692Y004233D01*
X001666Y004257D01*
X001642Y004283D01*
X001622Y004312D01*
X001604Y004343D01*
X001591Y004376D01*
X001581Y004410D01*
X001575Y004446D01*
X001573Y004481D01*
M02*
