G75*
G70*
%OFA0B0*%
%FSLAX24Y24*%
%IPPOS*%
%LPD*%
%AMOC8*
5,1,8,0,0,1.08239X$1,22.5*
%
%ADD10C,0.0100*%
%ADD11C,0.0000*%
%ADD12R,0.0591X0.0354*%
%ADD13R,0.0354X0.0591*%
%ADD14R,0.2362X0.2362*%
%ADD15R,0.0394X0.0433*%
%ADD16R,0.0354X0.0394*%
%ADD17C,0.0118*%
D10*
X003490Y003381D02*
X003740Y003131D01*
X006390Y003131D01*
X006640Y003381D01*
X016340Y003381D01*
X016340Y008131D01*
X015640Y010931D01*
X015240Y011231D01*
X014440Y011231D01*
X013890Y011731D01*
X013890Y012781D01*
X011790Y013631D01*
X005240Y013631D01*
X002940Y012681D01*
X002940Y011581D01*
X002540Y011181D01*
X001940Y011181D01*
X001290Y010781D01*
X000640Y008331D01*
X000640Y003381D01*
X003490Y003381D01*
D11*
X003277Y005831D02*
X003279Y005857D01*
X003285Y005883D01*
X003294Y005907D01*
X003307Y005930D01*
X003324Y005950D01*
X003343Y005968D01*
X003365Y005983D01*
X003388Y005994D01*
X003413Y006002D01*
X003439Y006006D01*
X003465Y006006D01*
X003491Y006002D01*
X003516Y005994D01*
X003540Y005983D01*
X003561Y005968D01*
X003580Y005950D01*
X003597Y005930D01*
X003610Y005907D01*
X003619Y005883D01*
X003625Y005857D01*
X003627Y005831D01*
X003625Y005805D01*
X003619Y005779D01*
X003610Y005755D01*
X003597Y005732D01*
X003580Y005712D01*
X003561Y005694D01*
X003539Y005679D01*
X003516Y005668D01*
X003491Y005660D01*
X003465Y005656D01*
X003439Y005656D01*
X003413Y005660D01*
X003388Y005668D01*
X003364Y005679D01*
X003343Y005694D01*
X003324Y005712D01*
X003307Y005732D01*
X003294Y005755D01*
X003285Y005779D01*
X003279Y005805D01*
X003277Y005831D01*
X006527Y005831D02*
X006529Y005857D01*
X006535Y005883D01*
X006544Y005907D01*
X006557Y005930D01*
X006574Y005950D01*
X006593Y005968D01*
X006615Y005983D01*
X006638Y005994D01*
X006663Y006002D01*
X006689Y006006D01*
X006715Y006006D01*
X006741Y006002D01*
X006766Y005994D01*
X006790Y005983D01*
X006811Y005968D01*
X006830Y005950D01*
X006847Y005930D01*
X006860Y005907D01*
X006869Y005883D01*
X006875Y005857D01*
X006877Y005831D01*
X006875Y005805D01*
X006869Y005779D01*
X006860Y005755D01*
X006847Y005732D01*
X006830Y005712D01*
X006811Y005694D01*
X006789Y005679D01*
X006766Y005668D01*
X006741Y005660D01*
X006715Y005656D01*
X006689Y005656D01*
X006663Y005660D01*
X006638Y005668D01*
X006614Y005679D01*
X006593Y005694D01*
X006574Y005712D01*
X006557Y005732D01*
X006544Y005755D01*
X006535Y005779D01*
X006529Y005805D01*
X006527Y005831D01*
D12*
X007447Y005662D03*
X007447Y006162D03*
X007447Y006662D03*
X007447Y007162D03*
X007447Y007662D03*
X007447Y008162D03*
X007447Y008662D03*
X007447Y009162D03*
X007447Y009662D03*
X007447Y010162D03*
X007447Y010662D03*
X013933Y010662D03*
X013933Y010162D03*
X013933Y009662D03*
X013933Y009162D03*
X013933Y008662D03*
X013933Y008162D03*
X013933Y007662D03*
X013933Y007162D03*
X013933Y006662D03*
X013933Y006162D03*
X013933Y005662D03*
X013933Y005162D03*
X013933Y004662D03*
X013933Y004162D03*
X007447Y004162D03*
X007447Y004662D03*
X007447Y005162D03*
D13*
X008440Y003576D03*
X008940Y003576D03*
X009440Y003576D03*
X009940Y003576D03*
X010440Y003576D03*
X010940Y003576D03*
X011440Y003576D03*
X011940Y003576D03*
X012440Y003576D03*
X012940Y003576D03*
D14*
X010690Y007631D03*
D15*
X006270Y004031D03*
X005560Y004031D03*
X004570Y004031D03*
X003860Y004031D03*
D16*
X002697Y004166D03*
X002697Y004796D03*
X001083Y004796D03*
X001083Y004166D03*
X001083Y006166D03*
X001083Y006796D03*
X002697Y006796D03*
X002697Y006166D03*
D17*
X002497Y010343D02*
X002497Y010619D01*
X002773Y010619D01*
X002773Y010343D01*
X002497Y010343D01*
X002497Y010460D02*
X002773Y010460D01*
X002773Y010577D02*
X002497Y010577D01*
X001807Y010619D02*
X001807Y010343D01*
X001807Y010619D02*
X002083Y010619D01*
X002083Y010343D01*
X001807Y010343D01*
X001807Y010460D02*
X002083Y010460D01*
X002083Y010577D02*
X001807Y010577D01*
M02*
