G75*
G70*
%OFA0B0*%
%FSLAX24Y24*%
%IPPOS*%
%LPD*%
%AMOC8*
5,1,8,0,0,1.08239X$1,22.5*
%
%ADD10C,0.0100*%
%ADD11C,0.0600*%
%ADD12C,0.0000*%
%ADD13C,0.0600*%
%ADD14R,0.0740X0.0740*%
%ADD15C,0.0740*%
%ADD16C,0.0080*%
%ADD17C,0.0240*%
%ADD18C,0.0320*%
%ADD19C,0.0180*%
D10*
X003490Y003381D02*
X003740Y003131D01*
X006390Y003131D01*
X006640Y003381D01*
X016340Y003381D01*
X016340Y008131D01*
X015640Y010931D01*
X015240Y011231D01*
X014440Y011231D01*
X013890Y011731D01*
X013890Y012781D01*
X011790Y013631D01*
X005240Y013631D01*
X002940Y012681D01*
X002940Y011581D01*
X002540Y011181D01*
X001940Y011181D01*
X001290Y010781D01*
X000640Y008331D01*
X000640Y003381D01*
X003490Y003381D01*
D11*
X003452Y005531D02*
X003452Y006131D01*
X003452Y005531D01*
X006702Y005531D02*
X006702Y006131D01*
X006702Y005531D01*
D12*
X006527Y005831D02*
X006529Y005857D01*
X006535Y005883D01*
X006544Y005907D01*
X006557Y005930D01*
X006574Y005950D01*
X006593Y005968D01*
X006615Y005983D01*
X006638Y005994D01*
X006663Y006002D01*
X006689Y006006D01*
X006715Y006006D01*
X006741Y006002D01*
X006766Y005994D01*
X006790Y005983D01*
X006811Y005968D01*
X006830Y005950D01*
X006847Y005930D01*
X006860Y005907D01*
X006869Y005883D01*
X006875Y005857D01*
X006877Y005831D01*
X006875Y005805D01*
X006869Y005779D01*
X006860Y005755D01*
X006847Y005732D01*
X006830Y005712D01*
X006811Y005694D01*
X006789Y005679D01*
X006766Y005668D01*
X006741Y005660D01*
X006715Y005656D01*
X006689Y005656D01*
X006663Y005660D01*
X006638Y005668D01*
X006614Y005679D01*
X006593Y005694D01*
X006574Y005712D01*
X006557Y005732D01*
X006544Y005755D01*
X006535Y005779D01*
X006529Y005805D01*
X006527Y005831D01*
X003277Y005831D02*
X003279Y005857D01*
X003285Y005883D01*
X003294Y005907D01*
X003307Y005930D01*
X003324Y005950D01*
X003343Y005968D01*
X003365Y005983D01*
X003388Y005994D01*
X003413Y006002D01*
X003439Y006006D01*
X003465Y006006D01*
X003491Y006002D01*
X003516Y005994D01*
X003540Y005983D01*
X003561Y005968D01*
X003580Y005950D01*
X003597Y005930D01*
X003610Y005907D01*
X003619Y005883D01*
X003625Y005857D01*
X003627Y005831D01*
X003625Y005805D01*
X003619Y005779D01*
X003610Y005755D01*
X003597Y005732D01*
X003580Y005712D01*
X003561Y005694D01*
X003539Y005679D01*
X003516Y005668D01*
X003491Y005660D01*
X003465Y005656D01*
X003439Y005656D01*
X003413Y005660D01*
X003388Y005668D01*
X003364Y005679D01*
X003343Y005694D01*
X003324Y005712D01*
X003307Y005732D01*
X003294Y005755D01*
X003285Y005779D01*
X003279Y005805D01*
X003277Y005831D01*
D13*
X004278Y005981D03*
X005065Y005981D03*
X005852Y005981D03*
X005852Y005194D03*
X005065Y005194D03*
X004278Y005194D03*
D14*
X015340Y004031D03*
D15*
X015340Y005031D03*
X015340Y006031D03*
X015340Y007031D03*
X015340Y008031D03*
X015340Y009031D03*
D16*
X015861Y008851D02*
X015806Y008719D01*
X015894Y008719D01*
X015874Y008797D02*
X015839Y008797D01*
X015861Y008851D02*
X016050Y008095D01*
X016050Y003671D01*
X015890Y003671D01*
X015890Y004475D01*
X015785Y004581D01*
X015668Y004581D01*
X015806Y004719D01*
X015890Y004922D01*
X015890Y005140D01*
X015806Y005342D01*
X015652Y005497D01*
X015570Y005531D01*
X015652Y005565D01*
X015806Y005719D01*
X015890Y005922D01*
X015890Y006140D01*
X015806Y006342D01*
X015652Y006497D01*
X015570Y006531D01*
X015652Y006565D01*
X015806Y006719D01*
X015890Y006922D01*
X015890Y007140D01*
X015806Y007342D01*
X015652Y007497D01*
X015518Y007552D01*
X015536Y007558D01*
X015607Y007595D01*
X015672Y007642D01*
X015729Y007699D01*
X015776Y007764D01*
X015813Y007835D01*
X015837Y007911D01*
X015850Y007991D01*
X015380Y007991D01*
X015380Y008071D01*
X015850Y008071D01*
X015837Y008150D01*
X015813Y008227D01*
X015776Y008298D01*
X015729Y008363D01*
X015672Y008420D01*
X015607Y008467D01*
X015536Y008504D01*
X015518Y008509D01*
X015652Y008565D01*
X015806Y008719D01*
X015727Y008640D02*
X015914Y008640D01*
X015933Y008562D02*
X015645Y008562D01*
X015575Y008483D02*
X015953Y008483D01*
X015973Y008405D02*
X015687Y008405D01*
X015756Y008326D02*
X015992Y008326D01*
X016012Y008248D02*
X015802Y008248D01*
X015831Y008169D02*
X016031Y008169D01*
X016050Y008091D02*
X015847Y008091D01*
X015850Y008071D02*
X015850Y008071D01*
X015850Y007991D02*
X015850Y007991D01*
X015841Y007934D02*
X016050Y007934D01*
X016050Y008012D02*
X015380Y008012D01*
X015300Y008012D02*
X013510Y008012D01*
X013510Y007934D02*
X014839Y007934D01*
X014843Y007911D02*
X014867Y007835D01*
X014904Y007764D01*
X014951Y007699D01*
X015008Y007642D01*
X015073Y007595D01*
X015144Y007558D01*
X015162Y007552D01*
X015028Y007497D01*
X014874Y007342D01*
X014790Y007140D01*
X014790Y006922D01*
X014874Y006719D01*
X015028Y006565D01*
X015110Y006531D01*
X015028Y006497D01*
X014967Y006436D01*
X013510Y007893D01*
X013510Y008383D01*
X013533Y008393D01*
X013628Y008488D01*
X013680Y008613D01*
X013680Y008749D01*
X013628Y008873D01*
X013533Y008969D01*
X013408Y009021D01*
X013380Y009021D01*
X013380Y009149D01*
X013354Y009211D01*
X014778Y009211D01*
X014807Y009182D01*
X014790Y009140D01*
X014790Y008922D01*
X014874Y008719D01*
X013680Y008719D01*
X013680Y008640D02*
X014953Y008640D01*
X015028Y008565D02*
X014874Y008719D01*
X014841Y008797D02*
X013660Y008797D01*
X013626Y008876D02*
X014809Y008876D01*
X014790Y008954D02*
X013547Y008954D01*
X013380Y009033D02*
X014790Y009033D01*
X014790Y009111D02*
X013380Y009111D01*
X013363Y009190D02*
X014799Y009190D01*
X015189Y009564D02*
X015043Y009710D01*
X014944Y009751D01*
X012786Y009751D01*
X012687Y009710D01*
X012611Y009634D01*
X012514Y009537D01*
X012478Y009623D01*
X012383Y009719D01*
X012258Y009771D01*
X012122Y009771D01*
X011997Y009719D01*
X011902Y009623D01*
X011850Y009499D01*
X011850Y009363D01*
X011902Y009238D01*
X011920Y009220D01*
X011920Y007277D01*
X011961Y007178D01*
X012318Y006821D01*
X012272Y006821D01*
X012147Y006769D01*
X012079Y006701D01*
X009302Y006701D01*
X008569Y007434D01*
X008493Y007510D01*
X008394Y007551D01*
X007033Y007551D01*
X007080Y007663D01*
X007080Y007799D01*
X007028Y007923D01*
X006933Y008019D01*
X006808Y008071D01*
X006672Y008071D01*
X006547Y008019D01*
X006452Y007923D01*
X006442Y007901D01*
X005236Y007901D01*
X005137Y007860D01*
X005061Y007784D01*
X004328Y007051D01*
X002986Y007051D01*
X002887Y007010D01*
X002487Y006610D01*
X002411Y006534D01*
X002370Y006435D01*
X002370Y005992D01*
X002352Y005973D01*
X002300Y005849D01*
X002300Y005713D01*
X002352Y005588D01*
X002370Y005570D01*
X002370Y005027D01*
X002411Y004928D01*
X002487Y004852D01*
X002888Y004451D01*
X001252Y004451D01*
X001210Y004493D01*
X001210Y008241D01*
X001795Y010190D01*
X001805Y010215D01*
X001821Y010231D01*
X015516Y010231D01*
X015715Y009433D01*
X015652Y009497D01*
X015449Y009581D01*
X015231Y009581D01*
X015189Y009564D01*
X015170Y009582D02*
X015678Y009582D01*
X015698Y009504D02*
X015635Y009504D01*
X015659Y009661D02*
X015092Y009661D01*
X014971Y009739D02*
X015639Y009739D01*
X015619Y009818D02*
X001683Y009818D01*
X001707Y009896D02*
X015600Y009896D01*
X015580Y009975D02*
X001730Y009975D01*
X001754Y010053D02*
X015560Y010053D01*
X015541Y010132D02*
X001777Y010132D01*
X001803Y010210D02*
X015521Y010210D01*
X015028Y008565D02*
X015162Y008509D01*
X015144Y008504D01*
X015073Y008467D01*
X015008Y008420D01*
X014951Y008363D01*
X014904Y008298D01*
X014867Y008227D01*
X014843Y008150D01*
X014830Y008071D01*
X014830Y008071D01*
X015300Y008071D01*
X015300Y007991D01*
X014830Y007991D01*
X014830Y007991D01*
X014843Y007911D01*
X014861Y007855D02*
X013547Y007855D01*
X013626Y007777D02*
X014897Y007777D01*
X014951Y007698D02*
X013704Y007698D01*
X013783Y007620D02*
X015038Y007620D01*
X015135Y007541D02*
X013861Y007541D01*
X013940Y007463D02*
X014994Y007463D01*
X014916Y007384D02*
X014018Y007384D01*
X014097Y007306D02*
X014859Y007306D01*
X014826Y007227D02*
X014175Y007227D01*
X014254Y007149D02*
X014794Y007149D01*
X014790Y007070D02*
X014332Y007070D01*
X014411Y006992D02*
X014790Y006992D01*
X014793Y006913D02*
X014489Y006913D01*
X014568Y006835D02*
X014826Y006835D01*
X014858Y006756D02*
X014646Y006756D01*
X014725Y006678D02*
X014915Y006678D01*
X014994Y006599D02*
X014803Y006599D01*
X014882Y006521D02*
X015086Y006521D01*
X014974Y006442D02*
X014960Y006442D01*
X015594Y006521D02*
X016050Y006521D01*
X016050Y006599D02*
X015686Y006599D01*
X015765Y006678D02*
X016050Y006678D01*
X016050Y006756D02*
X015822Y006756D01*
X015854Y006835D02*
X016050Y006835D01*
X016050Y006913D02*
X015887Y006913D01*
X015890Y006992D02*
X016050Y006992D01*
X016050Y007070D02*
X015890Y007070D01*
X015886Y007149D02*
X016050Y007149D01*
X016050Y007227D02*
X015854Y007227D01*
X015821Y007306D02*
X016050Y007306D01*
X016050Y007384D02*
X015764Y007384D01*
X015686Y007463D02*
X016050Y007463D01*
X016050Y007541D02*
X015545Y007541D01*
X015642Y007620D02*
X016050Y007620D01*
X016050Y007698D02*
X015729Y007698D01*
X015783Y007777D02*
X016050Y007777D01*
X016050Y007855D02*
X015819Y007855D01*
X015105Y008483D02*
X013623Y008483D01*
X013659Y008562D02*
X015035Y008562D01*
X014993Y008405D02*
X013545Y008405D01*
X013510Y008326D02*
X014924Y008326D01*
X014878Y008248D02*
X013510Y008248D01*
X013510Y008169D02*
X014849Y008169D01*
X014833Y008091D02*
X013510Y008091D01*
X012304Y006835D02*
X009168Y006835D01*
X009246Y006756D02*
X012135Y006756D01*
X012226Y006913D02*
X009089Y006913D01*
X009011Y006992D02*
X012147Y006992D01*
X012069Y007070D02*
X008932Y007070D01*
X008854Y007149D02*
X011990Y007149D01*
X011941Y007227D02*
X008775Y007227D01*
X008697Y007306D02*
X011920Y007306D01*
X011920Y007384D02*
X008618Y007384D01*
X008540Y007463D02*
X011920Y007463D01*
X011920Y007541D02*
X008417Y007541D01*
X007080Y007698D02*
X011920Y007698D01*
X011920Y007620D02*
X007062Y007620D01*
X007080Y007777D02*
X011920Y007777D01*
X011920Y007855D02*
X007056Y007855D01*
X007018Y007934D02*
X011920Y007934D01*
X011920Y008012D02*
X006939Y008012D01*
X006541Y008012D02*
X001210Y008012D01*
X001210Y007934D02*
X006462Y007934D01*
X005133Y007855D02*
X001210Y007855D01*
X001210Y007777D02*
X005054Y007777D01*
X004976Y007698D02*
X001210Y007698D01*
X001210Y007620D02*
X004897Y007620D01*
X004819Y007541D02*
X001210Y007541D01*
X001210Y007463D02*
X004740Y007463D01*
X004662Y007384D02*
X001210Y007384D01*
X001210Y007306D02*
X004583Y007306D01*
X004505Y007227D02*
X001210Y007227D01*
X001210Y007149D02*
X004426Y007149D01*
X004348Y007070D02*
X001210Y007070D01*
X001210Y006992D02*
X002869Y006992D01*
X002791Y006913D02*
X001210Y006913D01*
X001210Y006835D02*
X002712Y006835D01*
X002634Y006756D02*
X001210Y006756D01*
X001210Y006678D02*
X002555Y006678D01*
X002477Y006599D02*
X001210Y006599D01*
X001210Y006521D02*
X002406Y006521D01*
X002373Y006442D02*
X001210Y006442D01*
X001210Y006364D02*
X002370Y006364D01*
X002370Y006285D02*
X001210Y006285D01*
X001210Y006207D02*
X002370Y006207D01*
X002370Y006128D02*
X001210Y006128D01*
X001210Y006050D02*
X002370Y006050D01*
X002351Y005971D02*
X001210Y005971D01*
X001210Y005893D02*
X002318Y005893D01*
X002300Y005814D02*
X001210Y005814D01*
X001210Y005736D02*
X002300Y005736D01*
X002323Y005657D02*
X001210Y005657D01*
X001210Y005579D02*
X002361Y005579D01*
X002370Y005500D02*
X001210Y005500D01*
X001210Y005422D02*
X002370Y005422D01*
X002370Y005343D02*
X001210Y005343D01*
X001210Y005265D02*
X002370Y005265D01*
X002370Y005186D02*
X001210Y005186D01*
X001210Y005108D02*
X002370Y005108D01*
X002370Y005029D02*
X001210Y005029D01*
X001210Y004951D02*
X002402Y004951D01*
X002467Y004872D02*
X001210Y004872D01*
X001210Y004794D02*
X002545Y004794D01*
X002624Y004715D02*
X001210Y004715D01*
X001210Y004637D02*
X002702Y004637D01*
X002781Y004558D02*
X001210Y004558D01*
X001223Y004480D02*
X002859Y004480D01*
X003230Y004872D02*
X003976Y004872D01*
X003991Y004858D02*
X004047Y004817D01*
X004109Y004786D01*
X004175Y004764D01*
X004238Y004754D01*
X004238Y005153D01*
X004318Y005153D01*
X004318Y004754D01*
X004381Y004764D01*
X004446Y004786D01*
X004508Y004817D01*
X004564Y004858D01*
X004613Y004907D01*
X004646Y004952D01*
X004658Y004922D01*
X004793Y004787D01*
X004970Y004714D01*
X005160Y004714D01*
X005337Y004787D01*
X005459Y004908D01*
X005581Y004787D01*
X005757Y004714D01*
X005948Y004714D01*
X005950Y004714D01*
X006012Y004652D01*
X006060Y004632D01*
X006052Y004623D01*
X006000Y004499D01*
X006000Y004363D01*
X006052Y004238D01*
X006109Y004181D01*
X006028Y004101D01*
X005741Y004101D01*
X005828Y004188D01*
X005880Y004313D01*
X005880Y004449D01*
X005828Y004573D01*
X005733Y004669D01*
X005608Y004721D01*
X005472Y004721D01*
X005347Y004669D01*
X005329Y004651D01*
X004052Y004651D01*
X003969Y004734D01*
X003893Y004810D01*
X003794Y004851D01*
X003252Y004851D01*
X002910Y005193D01*
X002910Y005570D01*
X002928Y005588D01*
X002972Y005695D01*
X002972Y005435D01*
X003045Y005259D01*
X003181Y005124D01*
X003357Y005051D01*
X003548Y005051D01*
X003724Y005124D01*
X003839Y005239D01*
X003838Y005234D01*
X004238Y005234D01*
X004238Y005154D01*
X003838Y005154D01*
X003848Y005090D01*
X003870Y005025D01*
X003901Y004963D01*
X003942Y004907D01*
X003991Y004858D01*
X003909Y004794D02*
X004093Y004794D01*
X003987Y004715D02*
X004965Y004715D01*
X004786Y004794D02*
X004463Y004794D01*
X004579Y004872D02*
X004707Y004872D01*
X004646Y004951D02*
X004645Y004951D01*
X004318Y004951D02*
X004238Y004951D01*
X004238Y005029D02*
X004318Y005029D01*
X004318Y005108D02*
X004238Y005108D01*
X004238Y005186D02*
X003787Y005186D01*
X003846Y005108D02*
X003686Y005108D01*
X003868Y005029D02*
X003073Y005029D01*
X003152Y004951D02*
X003910Y004951D01*
X004238Y004872D02*
X004318Y004872D01*
X004318Y004794D02*
X004238Y004794D01*
X005165Y004715D02*
X005459Y004715D01*
X005573Y004794D02*
X005344Y004794D01*
X005423Y004872D02*
X005495Y004872D01*
X005621Y004715D02*
X005752Y004715D01*
X005765Y004637D02*
X006049Y004637D01*
X006025Y004558D02*
X005834Y004558D01*
X005867Y004480D02*
X006000Y004480D01*
X006000Y004401D02*
X005880Y004401D01*
X005880Y004323D02*
X006017Y004323D01*
X006049Y004244D02*
X005851Y004244D01*
X005806Y004166D02*
X006093Y004166D01*
X008810Y004651D02*
X008810Y005929D01*
X008887Y005852D01*
X008986Y005811D01*
X012644Y005811D01*
X012743Y005852D01*
X012819Y005928D01*
X013019Y006128D01*
X013060Y006227D01*
X013060Y006579D01*
X014120Y005519D01*
X014120Y004693D01*
X014078Y004651D01*
X013352Y004651D01*
X013293Y004710D01*
X013194Y004751D01*
X012686Y004751D01*
X012587Y004710D01*
X012528Y004651D01*
X008810Y004651D01*
X008810Y004715D02*
X012601Y004715D01*
X013279Y004715D02*
X014120Y004715D01*
X014120Y004794D02*
X008810Y004794D01*
X008810Y004872D02*
X014120Y004872D01*
X014120Y004951D02*
X008810Y004951D01*
X008810Y005029D02*
X014120Y005029D01*
X014120Y005108D02*
X008810Y005108D01*
X008810Y005186D02*
X014120Y005186D01*
X014120Y005265D02*
X008810Y005265D01*
X008810Y005343D02*
X014120Y005343D01*
X014120Y005422D02*
X008810Y005422D01*
X008810Y005500D02*
X014120Y005500D01*
X014060Y005579D02*
X008810Y005579D01*
X008810Y005657D02*
X013982Y005657D01*
X013903Y005736D02*
X008810Y005736D01*
X008810Y005814D02*
X008978Y005814D01*
X008846Y005893D02*
X008810Y005893D01*
X011920Y008091D02*
X001210Y008091D01*
X001210Y008169D02*
X011920Y008169D01*
X011920Y008248D02*
X001212Y008248D01*
X001236Y008326D02*
X011920Y008326D01*
X011920Y008405D02*
X001259Y008405D01*
X001283Y008483D02*
X011920Y008483D01*
X011920Y008562D02*
X001306Y008562D01*
X001330Y008640D02*
X011920Y008640D01*
X011920Y008719D02*
X001353Y008719D01*
X001377Y008797D02*
X011920Y008797D01*
X011920Y008876D02*
X001400Y008876D01*
X001424Y008954D02*
X011920Y008954D01*
X011920Y009033D02*
X001447Y009033D01*
X001471Y009111D02*
X011920Y009111D01*
X011920Y009190D02*
X001495Y009190D01*
X001518Y009268D02*
X011889Y009268D01*
X011857Y009347D02*
X001542Y009347D01*
X001565Y009425D02*
X011850Y009425D01*
X011852Y009504D02*
X001589Y009504D01*
X001612Y009582D02*
X011885Y009582D01*
X011939Y009661D02*
X001636Y009661D01*
X001659Y009739D02*
X012046Y009739D01*
X012334Y009739D02*
X012759Y009739D01*
X012638Y009661D02*
X012441Y009661D01*
X012495Y009582D02*
X012560Y009582D01*
X013060Y006521D02*
X013118Y006521D01*
X013060Y006442D02*
X013197Y006442D01*
X013275Y006364D02*
X013060Y006364D01*
X013060Y006285D02*
X013354Y006285D01*
X013432Y006207D02*
X013052Y006207D01*
X013019Y006128D02*
X013511Y006128D01*
X013589Y006050D02*
X012941Y006050D01*
X012862Y005971D02*
X013668Y005971D01*
X013746Y005893D02*
X012784Y005893D01*
X012652Y005814D02*
X013825Y005814D01*
X015644Y005500D02*
X016050Y005500D01*
X016050Y005422D02*
X015727Y005422D01*
X015805Y005343D02*
X016050Y005343D01*
X016050Y005265D02*
X015838Y005265D01*
X015871Y005186D02*
X016050Y005186D01*
X016050Y005108D02*
X015890Y005108D01*
X015890Y005029D02*
X016050Y005029D01*
X016050Y004951D02*
X015890Y004951D01*
X015870Y004872D02*
X016050Y004872D01*
X016050Y004794D02*
X015837Y004794D01*
X015802Y004715D02*
X016050Y004715D01*
X016050Y004637D02*
X015724Y004637D01*
X015807Y004558D02*
X016050Y004558D01*
X016050Y004480D02*
X015886Y004480D01*
X015890Y004401D02*
X016050Y004401D01*
X016050Y004323D02*
X015890Y004323D01*
X015890Y004244D02*
X016050Y004244D01*
X016050Y004166D02*
X015890Y004166D01*
X015890Y004087D02*
X016050Y004087D01*
X016050Y004009D02*
X015890Y004009D01*
X015890Y003930D02*
X016050Y003930D01*
X016050Y003852D02*
X015890Y003852D01*
X015890Y003773D02*
X016050Y003773D01*
X016050Y003695D02*
X015890Y003695D01*
X016050Y005579D02*
X015666Y005579D01*
X015744Y005657D02*
X016050Y005657D01*
X016050Y005736D02*
X015813Y005736D01*
X015846Y005814D02*
X016050Y005814D01*
X016050Y005893D02*
X015878Y005893D01*
X015890Y005971D02*
X016050Y005971D01*
X016050Y006050D02*
X015890Y006050D01*
X015890Y006128D02*
X016050Y006128D01*
X016050Y006207D02*
X015862Y006207D01*
X015830Y006285D02*
X016050Y006285D01*
X016050Y006364D02*
X015785Y006364D01*
X015706Y006442D02*
X016050Y006442D01*
X003219Y005108D02*
X002995Y005108D01*
X002916Y005186D02*
X003118Y005186D01*
X003043Y005265D02*
X002910Y005265D01*
X002910Y005343D02*
X003011Y005343D01*
X002978Y005422D02*
X002910Y005422D01*
X002910Y005500D02*
X002972Y005500D01*
X002972Y005579D02*
X002919Y005579D01*
X002957Y005657D02*
X002972Y005657D01*
D17*
X002190Y005481D03*
X001790Y005481D03*
X001390Y005481D03*
X001790Y005881D03*
X001790Y005081D03*
X002240Y008131D03*
X002540Y008431D03*
X002840Y008731D03*
X003140Y008431D03*
X002840Y008131D03*
X003440Y008131D03*
X004040Y008131D03*
X004340Y008431D03*
X004640Y008731D03*
X004940Y008431D03*
X004640Y008131D03*
X005240Y008131D03*
X004340Y009131D03*
X004040Y009431D03*
X003740Y009731D03*
X003440Y009431D03*
X003140Y009131D03*
X003740Y009131D03*
X008990Y009331D03*
X009390Y009331D03*
X009790Y009331D03*
X010190Y009331D03*
X010590Y009331D03*
X008990Y008931D03*
X008990Y008531D03*
X008990Y008131D03*
X008990Y007731D03*
X009340Y005231D03*
X009040Y004931D03*
X009740Y005231D03*
X010140Y005231D03*
X010140Y004831D03*
X010540Y004831D03*
X010940Y004831D03*
X011340Y004831D03*
X011340Y005231D03*
X011740Y005231D03*
X012140Y005231D03*
X012440Y004931D03*
X014640Y009981D03*
X015040Y009981D03*
X015440Y009981D03*
D18*
X013340Y008681D03*
X013040Y009081D03*
X012190Y009431D03*
X012340Y006481D03*
X012940Y004081D03*
X013940Y003781D03*
X008140Y005081D03*
X006340Y004431D03*
X005540Y004381D03*
X004940Y003881D03*
X003440Y004181D03*
X002740Y003781D03*
X002640Y005781D03*
X006740Y007731D03*
X001590Y010481D03*
D19*
X001540Y010431D01*
X001540Y010281D01*
X000940Y008281D01*
X000940Y004381D01*
X001140Y004181D01*
X003440Y004181D01*
X003140Y004581D02*
X002640Y005081D01*
X002640Y005781D01*
X002640Y006381D01*
X003040Y006781D01*
X004440Y006781D01*
X005290Y007631D01*
X006640Y007631D01*
X006740Y007731D01*
X005640Y006931D02*
X005065Y006356D01*
X005065Y005981D01*
X004278Y005981D02*
X004278Y006119D01*
X005440Y007281D01*
X008340Y007281D01*
X009190Y006431D01*
X012290Y006431D01*
X012340Y006481D01*
X012590Y006081D02*
X009040Y006081D01*
X008190Y006931D01*
X005640Y006931D01*
X005952Y006581D02*
X005852Y006481D01*
X005852Y005981D01*
X005952Y006581D02*
X008040Y006581D01*
X008540Y006081D01*
X008540Y004431D01*
X008590Y004381D01*
X006390Y004381D01*
X006340Y004431D01*
X006340Y004031D02*
X006140Y003831D01*
X004990Y003831D01*
X004940Y003881D01*
X005540Y004381D02*
X003940Y004381D01*
X003740Y004581D01*
X003140Y004581D01*
X002740Y003781D02*
X002840Y003681D01*
X003640Y003681D01*
X003840Y003481D01*
X006290Y003481D01*
X006490Y003681D01*
X013840Y003681D01*
X013940Y003781D01*
X014190Y004381D02*
X013240Y004381D01*
X013140Y004481D01*
X012740Y004481D01*
X012640Y004381D01*
X008590Y004381D01*
X007940Y004881D02*
X006165Y004881D01*
X005852Y005194D01*
X006340Y004031D02*
X012790Y004031D01*
X012940Y004081D01*
X014190Y004381D02*
X014390Y004581D01*
X014390Y005631D01*
X012540Y007481D01*
X012540Y009181D01*
X012840Y009481D01*
X014890Y009481D01*
X015340Y009031D01*
X013340Y008681D02*
X013240Y008581D01*
X013240Y007781D01*
X014990Y006031D01*
X015340Y006031D01*
X014740Y005781D02*
X012890Y007631D01*
X012890Y008931D01*
X013040Y009081D01*
X012190Y009431D02*
X012190Y007331D01*
X012790Y006731D01*
X012790Y006281D01*
X012590Y006081D01*
X014740Y005781D02*
X014740Y005181D01*
X014890Y005031D01*
X015340Y005031D01*
X008140Y005081D02*
X007940Y004881D01*
M02*
