G75*
G70*
%OFA0B0*%
%FSLAX24Y24*%
%IPPOS*%
%LPD*%
%AMOC8*
5,1,8,0,0,1.08239X$1,22.5*
%
%ADD10C,0.0100*%
%ADD11C,0.0600*%
%ADD12C,0.0000*%
%ADD13C,0.0350*%
%ADD14C,0.0600*%
%ADD15C,0.0500*%
%ADD16C,0.0394*%
%ADD17R,0.0591X0.0354*%
%ADD18R,0.0354X0.0591*%
%ADD19R,0.2362X0.2362*%
%ADD20R,0.0394X0.0433*%
%ADD21C,0.0118*%
%ADD22R,0.0740X0.0740*%
%ADD23C,0.0740*%
%ADD24R,0.0400X0.0700*%
D10*
X003490Y003381D02*
X003740Y003131D01*
X006390Y003131D01*
X006640Y003381D01*
X016340Y003381D01*
X016340Y008131D01*
X015640Y010931D01*
X015240Y011231D01*
X014440Y011231D01*
X013890Y011731D01*
X013890Y012781D01*
X011790Y013631D01*
X005240Y013631D01*
X002940Y012681D01*
X002940Y011581D01*
X002540Y011181D01*
X001940Y011181D01*
X001290Y010781D01*
X000640Y008331D01*
X000640Y003381D01*
X003490Y003381D01*
D11*
X003452Y005531D02*
X003452Y006131D01*
X003452Y005531D01*
X006702Y005531D02*
X006702Y006131D01*
X006702Y005531D01*
D12*
X006527Y005831D02*
X006529Y005857D01*
X006535Y005883D01*
X006544Y005907D01*
X006557Y005930D01*
X006574Y005950D01*
X006593Y005968D01*
X006615Y005983D01*
X006638Y005994D01*
X006663Y006002D01*
X006689Y006006D01*
X006715Y006006D01*
X006741Y006002D01*
X006766Y005994D01*
X006790Y005983D01*
X006811Y005968D01*
X006830Y005950D01*
X006847Y005930D01*
X006860Y005907D01*
X006869Y005883D01*
X006875Y005857D01*
X006877Y005831D01*
X006875Y005805D01*
X006869Y005779D01*
X006860Y005755D01*
X006847Y005732D01*
X006830Y005712D01*
X006811Y005694D01*
X006789Y005679D01*
X006766Y005668D01*
X006741Y005660D01*
X006715Y005656D01*
X006689Y005656D01*
X006663Y005660D01*
X006638Y005668D01*
X006614Y005679D01*
X006593Y005694D01*
X006574Y005712D01*
X006557Y005732D01*
X006544Y005755D01*
X006535Y005779D01*
X006529Y005805D01*
X006527Y005831D01*
X003277Y005831D02*
X003279Y005857D01*
X003285Y005883D01*
X003294Y005907D01*
X003307Y005930D01*
X003324Y005950D01*
X003343Y005968D01*
X003365Y005983D01*
X003388Y005994D01*
X003413Y006002D01*
X003439Y006006D01*
X003465Y006006D01*
X003491Y006002D01*
X003516Y005994D01*
X003540Y005983D01*
X003561Y005968D01*
X003580Y005950D01*
X003597Y005930D01*
X003610Y005907D01*
X003619Y005883D01*
X003625Y005857D01*
X003627Y005831D01*
X003625Y005805D01*
X003619Y005779D01*
X003610Y005755D01*
X003597Y005732D01*
X003580Y005712D01*
X003561Y005694D01*
X003539Y005679D01*
X003516Y005668D01*
X003491Y005660D01*
X003465Y005656D01*
X003439Y005656D01*
X003413Y005660D01*
X003388Y005668D01*
X003364Y005679D01*
X003343Y005694D01*
X003324Y005712D01*
X003307Y005732D01*
X003294Y005755D01*
X003285Y005779D01*
X003279Y005805D01*
X003277Y005831D01*
D13*
X003452Y005831D03*
X006702Y005831D03*
D14*
X005852Y005981D03*
X005065Y005981D03*
X004278Y005981D03*
X004278Y005194D03*
X005065Y005194D03*
X005852Y005194D03*
D15*
X003598Y007081D02*
X003600Y007104D01*
X003606Y007127D01*
X003615Y007149D01*
X003628Y007168D01*
X003644Y007185D01*
X003662Y007200D01*
X003683Y007211D01*
X003705Y007219D01*
X003728Y007223D01*
X003752Y007223D01*
X003775Y007219D01*
X003797Y007211D01*
X003818Y007200D01*
X003836Y007185D01*
X003852Y007168D01*
X003865Y007149D01*
X003874Y007127D01*
X003880Y007104D01*
X003882Y007081D01*
X003880Y007058D01*
X003874Y007035D01*
X003865Y007013D01*
X003852Y006994D01*
X003836Y006977D01*
X003818Y006962D01*
X003797Y006951D01*
X003775Y006943D01*
X003752Y006939D01*
X003728Y006939D01*
X003705Y006943D01*
X003683Y006951D01*
X003662Y006962D01*
X003644Y006977D01*
X003628Y006994D01*
X003615Y007013D01*
X003606Y007035D01*
X003600Y007058D01*
X003598Y007081D01*
X001798Y009431D02*
X001800Y009454D01*
X001806Y009477D01*
X001815Y009499D01*
X001828Y009518D01*
X001844Y009535D01*
X001862Y009550D01*
X001883Y009561D01*
X001905Y009569D01*
X001928Y009573D01*
X001952Y009573D01*
X001975Y009569D01*
X001997Y009561D01*
X002018Y009550D01*
X002036Y009535D01*
X002052Y009518D01*
X002065Y009499D01*
X002074Y009477D01*
X002080Y009454D01*
X002082Y009431D01*
X002080Y009408D01*
X002074Y009385D01*
X002065Y009363D01*
X002052Y009344D01*
X002036Y009327D01*
X002018Y009312D01*
X001997Y009301D01*
X001975Y009293D01*
X001952Y009289D01*
X001928Y009289D01*
X001905Y009293D01*
X001883Y009301D01*
X001862Y009312D01*
X001844Y009327D01*
X001828Y009344D01*
X001815Y009363D01*
X001806Y009385D01*
X001800Y009408D01*
X001798Y009431D01*
X005398Y009431D02*
X005400Y009454D01*
X005406Y009477D01*
X005415Y009499D01*
X005428Y009518D01*
X005444Y009535D01*
X005462Y009550D01*
X005483Y009561D01*
X005505Y009569D01*
X005528Y009573D01*
X005552Y009573D01*
X005575Y009569D01*
X005597Y009561D01*
X005618Y009550D01*
X005636Y009535D01*
X005652Y009518D01*
X005665Y009499D01*
X005674Y009477D01*
X005680Y009454D01*
X005682Y009431D01*
X005680Y009408D01*
X005674Y009385D01*
X005665Y009363D01*
X005652Y009344D01*
X005636Y009327D01*
X005618Y009312D01*
X005597Y009301D01*
X005575Y009293D01*
X005552Y009289D01*
X005528Y009289D01*
X005505Y009293D01*
X005483Y009301D01*
X005462Y009312D01*
X005444Y009327D01*
X005428Y009344D01*
X005415Y009363D01*
X005406Y009385D01*
X005400Y009408D01*
X005398Y009431D01*
D16*
X005540Y009431D03*
X003740Y007081D03*
X001940Y009431D03*
D17*
X007447Y009662D03*
X007447Y009162D03*
X007447Y008662D03*
X007447Y008162D03*
X007447Y007662D03*
X007447Y007162D03*
X007447Y006662D03*
X007447Y006162D03*
X007447Y005662D03*
X007447Y005162D03*
X007447Y004662D03*
X007447Y004162D03*
X013933Y004162D03*
X013933Y004662D03*
X013933Y005162D03*
X013933Y005662D03*
X013933Y006162D03*
X013933Y006662D03*
X013933Y007162D03*
X013933Y007662D03*
X013933Y008162D03*
X013933Y008662D03*
X013933Y009162D03*
X013933Y009662D03*
X013933Y010162D03*
X013933Y010662D03*
X007447Y010662D03*
X007447Y010162D03*
D18*
X008440Y003576D03*
X008940Y003576D03*
X009440Y003576D03*
X009940Y003576D03*
X010440Y003576D03*
X010940Y003576D03*
X011440Y003576D03*
X011940Y003576D03*
X012440Y003576D03*
X012940Y003576D03*
D19*
X010690Y007631D03*
D20*
X006270Y004031D03*
X005560Y004031D03*
X004570Y004031D03*
X003860Y004031D03*
D21*
X002497Y010343D02*
X002497Y010619D01*
X002773Y010619D01*
X002773Y010343D01*
X002497Y010343D01*
X002497Y010460D02*
X002773Y010460D01*
X002773Y010577D02*
X002497Y010577D01*
X001807Y010619D02*
X001807Y010343D01*
X001807Y010619D02*
X002083Y010619D01*
X002083Y010343D01*
X001807Y010343D01*
X001807Y010460D02*
X002083Y010460D01*
X002083Y010577D02*
X001807Y010577D01*
D22*
X015340Y004031D03*
D23*
X015340Y005031D03*
X015340Y006031D03*
X015340Y007031D03*
X015340Y008031D03*
X015340Y009031D03*
D24*
X002747Y006481D03*
X001033Y006481D03*
X001033Y004481D03*
X002747Y004481D03*
M02*
