%
M48
M72
T01C0.0200
T02C0.0220
T03C0.0350
T04C0.0400
%
T01
X2740Y3781
X3440Y4181
X4940Y3881
X5540Y4381
X6340Y4431
X8140Y5081
X6740Y7731
X2640Y5781
X1590Y10481
X12190Y9431
X13040Y9081
X13340Y8681
X12340Y6481
X12940Y4081
X13940Y3781
T02
X12440Y4931
X12140Y5231
X11740Y5231
X11340Y5231
X11340Y4831
X10940Y4831
X10540Y4831
X10140Y4831
X10140Y5231
X9740Y5231
X9340Y5231
X9040Y4931
X8990Y7731
X8990Y8131
X8990Y8531
X8990Y8931
X8990Y9331
X9390Y9331
X9790Y9331
X10190Y9331
X10590Y9331
X14640Y9981
X15040Y9981
X15440Y9981
X5240Y8131
X4940Y8431
X4640Y8731
X4340Y8431
X4040Y8131
X3440Y8131
X3140Y8431
X2840Y8731
X2540Y8431
X2240Y8131
X2840Y8131
X3140Y9131
X3440Y9431
X3740Y9731
X4040Y9431
X3740Y9131
X4340Y9131
X4640Y8131
X1790Y5881
X1790Y5481
X1390Y5481
X1790Y5081
X2190Y5481
T03
X3452Y5531
X3452Y5831
X3452Y6131
X6702Y6131
X6702Y5831
X6702Y5531
T04
X5852Y5194
X5065Y5194
X4278Y5194
X4278Y5981
X5065Y5981
X5852Y5981
X15340Y6031
X15340Y7031
X15340Y8031
X15340Y9031
X15340Y5031
X15340Y4031
M30
